%TF.GenerationSoftware,KiCad,Pcbnew,7.0.5*%
%TF.CreationDate,2023-08-24T21:12:11+09:00*%
%TF.ProjectId,templogger,74656d70-6c6f-4676-9765-722e6b696361,rev?*%
%TF.SameCoordinates,Original*%
%TF.FileFunction,Soldermask,Top*%
%TF.FilePolarity,Negative*%
%FSLAX46Y46*%
G04 Gerber Fmt 4.6, Leading zero omitted, Abs format (unit mm)*
G04 Created by KiCad (PCBNEW 7.0.5) date 2023-08-24 21:12:11*
%MOMM*%
%LPD*%
G01*
G04 APERTURE LIST*
G04 Aperture macros list*
%AMRoundRect*
0 Rectangle with rounded corners*
0 $1 Rounding radius*
0 $2 $3 $4 $5 $6 $7 $8 $9 X,Y pos of 4 corners*
0 Add a 4 corners polygon primitive as box body*
4,1,4,$2,$3,$4,$5,$6,$7,$8,$9,$2,$3,0*
0 Add four circle primitives for the rounded corners*
1,1,$1+$1,$2,$3*
1,1,$1+$1,$4,$5*
1,1,$1+$1,$6,$7*
1,1,$1+$1,$8,$9*
0 Add four rect primitives between the rounded corners*
20,1,$1+$1,$2,$3,$4,$5,0*
20,1,$1+$1,$4,$5,$6,$7,0*
20,1,$1+$1,$6,$7,$8,$9,0*
20,1,$1+$1,$8,$9,$2,$3,0*%
%AMFreePoly0*
4,1,19,0.500000,-0.750000,0.000000,-0.750000,0.000000,-0.744911,-0.071157,-0.744911,-0.207708,-0.704816,-0.327430,-0.627875,-0.420627,-0.520320,-0.479746,-0.390866,-0.500000,-0.250000,-0.500000,0.250000,-0.479746,0.390866,-0.420627,0.520320,-0.327430,0.627875,-0.207708,0.704816,-0.071157,0.744911,0.000000,0.744911,0.000000,0.750000,0.500000,0.750000,0.500000,-0.750000,0.500000,-0.750000,
$1*%
%AMFreePoly1*
4,1,19,0.000000,0.744911,0.071157,0.744911,0.207708,0.704816,0.327430,0.627875,0.420627,0.520320,0.479746,0.390866,0.500000,0.250000,0.500000,-0.250000,0.479746,-0.390866,0.420627,-0.520320,0.327430,-0.627875,0.207708,-0.704816,0.071157,-0.744911,0.000000,-0.744911,0.000000,-0.750000,-0.500000,-0.750000,-0.500000,0.750000,0.000000,0.750000,0.000000,0.744911,0.000000,0.744911,
$1*%
G04 Aperture macros list end*
%ADD10RoundRect,0.250000X0.475000X-0.337500X0.475000X0.337500X-0.475000X0.337500X-0.475000X-0.337500X0*%
%ADD11RoundRect,0.250000X-0.450000X0.350000X-0.450000X-0.350000X0.450000X-0.350000X0.450000X0.350000X0*%
%ADD12RoundRect,0.237500X-0.237500X0.287500X-0.237500X-0.287500X0.237500X-0.287500X0.237500X0.287500X0*%
%ADD13RoundRect,0.250000X0.350000X0.450000X-0.350000X0.450000X-0.350000X-0.450000X0.350000X-0.450000X0*%
%ADD14RoundRect,0.250000X-0.350000X-0.450000X0.350000X-0.450000X0.350000X0.450000X-0.350000X0.450000X0*%
%ADD15RoundRect,0.250000X-0.250000X0.650000X-0.250000X-0.650000X0.250000X-0.650000X0.250000X0.650000X0*%
%ADD16RoundRect,0.237500X-0.237500X0.300000X-0.237500X-0.300000X0.237500X-0.300000X0.237500X0.300000X0*%
%ADD17C,2.100000*%
%ADD18R,1.700000X1.700000*%
%ADD19O,1.700000X1.700000*%
%ADD20FreePoly0,0.000000*%
%ADD21FreePoly1,0.000000*%
%ADD22C,1.200000*%
%ADD23O,2.600000X1.500000*%
%ADD24RoundRect,0.150000X-0.150000X0.512500X-0.150000X-0.512500X0.150000X-0.512500X0.150000X0.512500X0*%
%ADD25RoundRect,0.237500X-0.287500X-0.237500X0.287500X-0.237500X0.287500X0.237500X-0.287500X0.237500X0*%
%ADD26C,3.500000*%
%ADD27RoundRect,0.100000X0.712500X0.100000X-0.712500X0.100000X-0.712500X-0.100000X0.712500X-0.100000X0*%
%ADD28RoundRect,0.250000X-0.250000X-0.475000X0.250000X-0.475000X0.250000X0.475000X-0.250000X0.475000X0*%
%ADD29C,1.800000*%
%ADD30RoundRect,0.250000X0.250000X0.250000X-0.250000X0.250000X-0.250000X-0.250000X0.250000X-0.250000X0*%
%ADD31C,1.524000*%
%ADD32RoundRect,0.250000X-0.475000X0.337500X-0.475000X-0.337500X0.475000X-0.337500X0.475000X0.337500X0*%
%ADD33RoundRect,0.237500X0.287500X0.237500X-0.287500X0.237500X-0.287500X-0.237500X0.287500X-0.237500X0*%
%ADD34RoundRect,0.250000X-0.475000X0.250000X-0.475000X-0.250000X0.475000X-0.250000X0.475000X0.250000X0*%
%ADD35RoundRect,0.150000X-0.512500X-0.150000X0.512500X-0.150000X0.512500X0.150000X-0.512500X0.150000X0*%
%ADD36RoundRect,0.250000X-0.625000X0.350000X-0.625000X-0.350000X0.625000X-0.350000X0.625000X0.350000X0*%
%ADD37O,1.750000X1.200000*%
%ADD38RoundRect,0.250000X-0.750000X0.600000X-0.750000X-0.600000X0.750000X-0.600000X0.750000X0.600000X0*%
%ADD39O,2.000000X1.700000*%
G04 APERTURE END LIST*
D10*
%TO.C,C101*%
X94300000Y-66637500D03*
X94300000Y-64562500D03*
%TD*%
D11*
%TO.C,R104*%
X126500000Y-63700000D03*
X126500000Y-65700000D03*
%TD*%
D12*
%TO.C,D103*%
X131000000Y-64125000D03*
X131000000Y-65875000D03*
%TD*%
D13*
%TO.C,R107*%
X97500000Y-99000000D03*
X95500000Y-99000000D03*
%TD*%
D14*
%TO.C,R110*%
X129000000Y-68400000D03*
X131000000Y-68400000D03*
%TD*%
D15*
%TO.C,SW103*%
X128475000Y-77350000D03*
X128475000Y-85550000D03*
X132975000Y-77350000D03*
X132975000Y-85550000D03*
%TD*%
D16*
%TO.C,C103*%
X113200000Y-60737500D03*
X113200000Y-62462500D03*
%TD*%
D17*
%TO.C,U105*%
X122500000Y-94300000D03*
X122500000Y-72300000D03*
X101500000Y-94300000D03*
X101500000Y-72300000D03*
D18*
X115810000Y-95330000D03*
D19*
X113270000Y-95330000D03*
X110730000Y-95330000D03*
X108190000Y-95330000D03*
%TD*%
D14*
%TO.C,R109*%
X126300000Y-101300000D03*
X128300000Y-101300000D03*
%TD*%
D20*
%TO.C,JP101*%
X109450000Y-60700000D03*
D21*
X110750000Y-60700000D03*
%TD*%
D11*
%TO.C,R115*%
X96600000Y-72500000D03*
X96600000Y-74500000D03*
%TD*%
D22*
%TO.C,J103*%
X96750000Y-80160000D03*
X95550000Y-80960000D03*
X96750000Y-81760000D03*
X95550000Y-82560000D03*
X96750000Y-83360000D03*
D23*
X95850000Y-77960000D03*
X91050000Y-77960000D03*
X95850000Y-85560000D03*
X91050000Y-85560000D03*
%TD*%
D24*
%TO.C,U101*%
X99250000Y-66862500D03*
X98300000Y-66862500D03*
X97350000Y-66862500D03*
X97350000Y-69137500D03*
X99250000Y-69137500D03*
%TD*%
D14*
%TO.C,R117*%
X113400000Y-57050000D03*
X115400000Y-57050000D03*
%TD*%
D25*
%TO.C,D102*%
X91125000Y-71300000D03*
X92875000Y-71300000D03*
%TD*%
D26*
%TO.C,J101*%
X104050000Y-115625000D03*
X119750000Y-115625000D03*
X118900000Y-102125000D03*
X105200000Y-102125000D03*
%TD*%
D25*
%TO.C,D101*%
X90925000Y-99000000D03*
X92675000Y-99000000D03*
%TD*%
D27*
%TO.C,Q102*%
X101512500Y-61375000D03*
X101512500Y-60725000D03*
X101512500Y-60075000D03*
X101512500Y-59425000D03*
X97287500Y-59425000D03*
X97287500Y-60075000D03*
X97287500Y-60725000D03*
X97287500Y-61375000D03*
%TD*%
D11*
%TO.C,R103*%
X128500000Y-72100000D03*
X128500000Y-74100000D03*
%TD*%
D28*
%TO.C,C108*%
X130750000Y-101300000D03*
X132650000Y-101300000D03*
%TD*%
D29*
%TO.C,SW102*%
X130950000Y-104950000D03*
X130950000Y-111450000D03*
X126450000Y-104950000D03*
X126450000Y-111450000D03*
X125900000Y-108200000D03*
X131500000Y-108200000D03*
%TD*%
D25*
%TO.C,FB101*%
X104625000Y-60800000D03*
X106375000Y-60800000D03*
%TD*%
D30*
%TO.C,D105*%
X102550000Y-63500000D03*
X100050000Y-63500000D03*
%TD*%
D31*
%TO.C,SW105*%
X90900000Y-54500000D03*
X87700000Y-57000000D03*
X90900000Y-59500000D03*
%TD*%
D32*
%TO.C,C104*%
X116400000Y-60562500D03*
X116400000Y-62637500D03*
%TD*%
D13*
%TO.C,R106*%
X121900000Y-64700000D03*
X119900000Y-64700000D03*
%TD*%
D33*
%TO.C,D104*%
X92875000Y-74500000D03*
X91125000Y-74500000D03*
%TD*%
D34*
%TO.C,C102*%
X104600000Y-62750000D03*
X104600000Y-64650000D03*
%TD*%
D14*
%TO.C,R112*%
X102100000Y-69200000D03*
X104100000Y-69200000D03*
%TD*%
D15*
%TO.C,SW104*%
X128475000Y-89350000D03*
X128475000Y-97550000D03*
X132975000Y-89350000D03*
X132975000Y-97550000D03*
%TD*%
D35*
%TO.C,U104*%
X119725000Y-60600000D03*
X119725000Y-61550000D03*
X119725000Y-62500000D03*
X122000000Y-62500000D03*
X122000000Y-60600000D03*
%TD*%
D29*
%TO.C,SW101*%
X97050000Y-104950000D03*
X97050000Y-111450000D03*
X92550000Y-104950000D03*
X92550000Y-111450000D03*
X92000000Y-108200000D03*
X97600000Y-108200000D03*
%TD*%
D14*
%TO.C,R108*%
X107750000Y-57000000D03*
X109750000Y-57000000D03*
%TD*%
D36*
%TO.C,J104*%
X89050000Y-64500000D03*
D37*
X89050000Y-66500000D03*
%TD*%
D38*
%TO.C,J102*%
X93625000Y-91750000D03*
D39*
X93625000Y-94250000D03*
%TD*%
M02*
