%TF.GenerationSoftware,KiCad,Pcbnew,7.0.5*%
%TF.CreationDate,2023-08-05T14:06:43+09:00*%
%TF.ProjectId,templogger,74656d70-6c6f-4676-9765-722e6b696361,rev?*%
%TF.SameCoordinates,Original*%
%TF.FileFunction,Legend,Top*%
%TF.FilePolarity,Positive*%
%FSLAX46Y46*%
G04 Gerber Fmt 4.6, Leading zero omitted, Abs format (unit mm)*
G04 Created by KiCad (PCBNEW 7.0.5) date 2023-08-05 14:06:43*
%MOMM*%
%LPD*%
G01*
G04 APERTURE LIST*
G04 Aperture macros list*
%AMRoundRect*
0 Rectangle with rounded corners*
0 $1 Rounding radius*
0 $2 $3 $4 $5 $6 $7 $8 $9 X,Y pos of 4 corners*
0 Add a 4 corners polygon primitive as box body*
4,1,4,$2,$3,$4,$5,$6,$7,$8,$9,$2,$3,0*
0 Add four circle primitives for the rounded corners*
1,1,$1+$1,$2,$3*
1,1,$1+$1,$4,$5*
1,1,$1+$1,$6,$7*
1,1,$1+$1,$8,$9*
0 Add four rect primitives between the rounded corners*
20,1,$1+$1,$2,$3,$4,$5,0*
20,1,$1+$1,$4,$5,$6,$7,0*
20,1,$1+$1,$6,$7,$8,$9,0*
20,1,$1+$1,$8,$9,$2,$3,0*%
%AMFreePoly0*
4,1,19,0.500000,-0.750000,0.000000,-0.750000,0.000000,-0.744911,-0.071157,-0.744911,-0.207708,-0.704816,-0.327430,-0.627875,-0.420627,-0.520320,-0.479746,-0.390866,-0.500000,-0.250000,-0.500000,0.250000,-0.479746,0.390866,-0.420627,0.520320,-0.327430,0.627875,-0.207708,0.704816,-0.071157,0.744911,0.000000,0.744911,0.000000,0.750000,0.500000,0.750000,0.500000,-0.750000,0.500000,-0.750000,
$1*%
%AMFreePoly1*
4,1,19,0.000000,0.744911,0.071157,0.744911,0.207708,0.704816,0.327430,0.627875,0.420627,0.520320,0.479746,0.390866,0.500000,0.250000,0.500000,-0.250000,0.479746,-0.390866,0.420627,-0.520320,0.327430,-0.627875,0.207708,-0.704816,0.071157,-0.744911,0.000000,-0.744911,0.000000,-0.750000,-0.500000,-0.750000,-0.500000,0.750000,0.000000,0.750000,0.000000,0.744911,0.000000,0.744911,
$1*%
G04 Aperture macros list end*
%ADD10C,0.150000*%
%ADD11C,0.120000*%
%ADD12C,0.508000*%
%ADD13C,1.524000*%
%ADD14RoundRect,0.250000X0.350000X0.450000X-0.350000X0.450000X-0.350000X-0.450000X0.350000X-0.450000X0*%
%ADD15FreePoly0,0.000000*%
%ADD16FreePoly1,0.000000*%
%ADD17RoundRect,0.250000X0.475000X-0.337500X0.475000X0.337500X-0.475000X0.337500X-0.475000X-0.337500X0*%
%ADD18RoundRect,0.250000X-0.450000X0.350000X-0.450000X-0.350000X0.450000X-0.350000X0.450000X0.350000X0*%
%ADD19RoundRect,0.237500X-0.237500X0.287500X-0.237500X-0.287500X0.237500X-0.287500X0.237500X0.287500X0*%
%ADD20RoundRect,0.250000X-0.350000X-0.450000X0.350000X-0.450000X0.350000X0.450000X-0.350000X0.450000X0*%
%ADD21RoundRect,0.250000X-0.250000X0.650000X-0.250000X-0.650000X0.250000X-0.650000X0.250000X0.650000X0*%
%ADD22RoundRect,0.237500X-0.237500X0.300000X-0.237500X-0.300000X0.237500X-0.300000X0.237500X0.300000X0*%
%ADD23C,2.100000*%
%ADD24R,1.700000X1.700000*%
%ADD25O,1.700000X1.700000*%
%ADD26C,1.200000*%
%ADD27O,2.600000X1.500000*%
%ADD28RoundRect,0.150000X-0.150000X0.512500X-0.150000X-0.512500X0.150000X-0.512500X0.150000X0.512500X0*%
%ADD29RoundRect,0.237500X-0.287500X-0.237500X0.287500X-0.237500X0.287500X0.237500X-0.287500X0.237500X0*%
%ADD30C,3.500000*%
%ADD31RoundRect,0.100000X0.712500X0.100000X-0.712500X0.100000X-0.712500X-0.100000X0.712500X-0.100000X0*%
%ADD32RoundRect,0.250000X-0.250000X-0.475000X0.250000X-0.475000X0.250000X0.475000X-0.250000X0.475000X0*%
%ADD33C,1.800000*%
%ADD34RoundRect,0.250000X0.250000X0.250000X-0.250000X0.250000X-0.250000X-0.250000X0.250000X-0.250000X0*%
%ADD35RoundRect,0.250000X-0.750000X0.600000X-0.750000X-0.600000X0.750000X-0.600000X0.750000X0.600000X0*%
%ADD36O,2.000000X1.700000*%
%ADD37RoundRect,0.250000X-0.475000X0.337500X-0.475000X-0.337500X0.475000X-0.337500X0.475000X0.337500X0*%
%ADD38RoundRect,0.237500X0.287500X0.237500X-0.287500X0.237500X-0.287500X-0.237500X0.287500X-0.237500X0*%
%ADD39RoundRect,0.250000X-0.475000X0.250000X-0.475000X-0.250000X0.475000X-0.250000X0.475000X0.250000X0*%
%ADD40RoundRect,0.150000X-0.512500X-0.150000X0.512500X-0.150000X0.512500X0.150000X-0.512500X0.150000X0*%
%ADD41RoundRect,0.250000X0.625000X-0.350000X0.625000X0.350000X-0.625000X0.350000X-0.625000X-0.350000X0*%
%ADD42O,1.750000X1.200000*%
G04 APERTURE END LIST*
D10*
X93800000Y-59000000D02*
X93800000Y-60700000D01*
X93800000Y-55000000D02*
X93800000Y-53200000D01*
X93230180Y-55736779D02*
X94230180Y-55736779D01*
X94230180Y-55736779D02*
X94230180Y-56117731D01*
X94230180Y-56117731D02*
X94182561Y-56212969D01*
X94182561Y-56212969D02*
X94134942Y-56260588D01*
X94134942Y-56260588D02*
X94039704Y-56308207D01*
X94039704Y-56308207D02*
X93896847Y-56308207D01*
X93896847Y-56308207D02*
X93801609Y-56260588D01*
X93801609Y-56260588D02*
X93753990Y-56212969D01*
X93753990Y-56212969D02*
X93706371Y-56117731D01*
X93706371Y-56117731D02*
X93706371Y-55736779D01*
X94230180Y-56641541D02*
X93230180Y-56879636D01*
X93230180Y-56879636D02*
X93944466Y-57070112D01*
X93944466Y-57070112D02*
X93230180Y-57260588D01*
X93230180Y-57260588D02*
X94230180Y-57498684D01*
X93230180Y-58451064D02*
X93706371Y-58117731D01*
X93230180Y-57879636D02*
X94230180Y-57879636D01*
X94230180Y-57879636D02*
X94230180Y-58260588D01*
X94230180Y-58260588D02*
X94182561Y-58355826D01*
X94182561Y-58355826D02*
X94134942Y-58403445D01*
X94134942Y-58403445D02*
X94039704Y-58451064D01*
X94039704Y-58451064D02*
X93896847Y-58451064D01*
X93896847Y-58451064D02*
X93801609Y-58403445D01*
X93801609Y-58403445D02*
X93753990Y-58355826D01*
X93753990Y-58355826D02*
X93706371Y-58260588D01*
X93706371Y-58260588D02*
X93706371Y-57879636D01*
X93430180Y-59627255D02*
X93430180Y-59817731D01*
X93430180Y-59817731D02*
X93382561Y-59912969D01*
X93382561Y-59912969D02*
X93287323Y-60008207D01*
X93287323Y-60008207D02*
X93096847Y-60055826D01*
X93096847Y-60055826D02*
X92763514Y-60055826D01*
X92763514Y-60055826D02*
X92573038Y-60008207D01*
X92573038Y-60008207D02*
X92477800Y-59912969D01*
X92477800Y-59912969D02*
X92430180Y-59817731D01*
X92430180Y-59817731D02*
X92430180Y-59627255D01*
X92430180Y-59627255D02*
X92477800Y-59532017D01*
X92477800Y-59532017D02*
X92573038Y-59436779D01*
X92573038Y-59436779D02*
X92763514Y-59389160D01*
X92763514Y-59389160D02*
X93096847Y-59389160D01*
X93096847Y-59389160D02*
X93287323Y-59436779D01*
X93287323Y-59436779D02*
X93382561Y-59532017D01*
X93382561Y-59532017D02*
X93430180Y-59627255D01*
X92953990Y-60817731D02*
X92953990Y-60484398D01*
X92430180Y-60484398D02*
X93430180Y-60484398D01*
X93430180Y-60484398D02*
X93430180Y-60960588D01*
X92953990Y-61674874D02*
X92953990Y-61341541D01*
X92430180Y-61341541D02*
X93430180Y-61341541D01*
X93430180Y-61341541D02*
X93430180Y-61817731D01*
X93430180Y-52527255D02*
X93430180Y-52717731D01*
X93430180Y-52717731D02*
X93382561Y-52812969D01*
X93382561Y-52812969D02*
X93287323Y-52908207D01*
X93287323Y-52908207D02*
X93096847Y-52955826D01*
X93096847Y-52955826D02*
X92763514Y-52955826D01*
X92763514Y-52955826D02*
X92573038Y-52908207D01*
X92573038Y-52908207D02*
X92477800Y-52812969D01*
X92477800Y-52812969D02*
X92430180Y-52717731D01*
X92430180Y-52717731D02*
X92430180Y-52527255D01*
X92430180Y-52527255D02*
X92477800Y-52432017D01*
X92477800Y-52432017D02*
X92573038Y-52336779D01*
X92573038Y-52336779D02*
X92763514Y-52289160D01*
X92763514Y-52289160D02*
X93096847Y-52289160D01*
X93096847Y-52289160D02*
X93287323Y-52336779D01*
X93287323Y-52336779D02*
X93382561Y-52432017D01*
X93382561Y-52432017D02*
X93430180Y-52527255D01*
X92430180Y-53384398D02*
X93430180Y-53384398D01*
X93430180Y-53384398D02*
X92430180Y-53955826D01*
X92430180Y-53955826D02*
X93430180Y-53955826D01*
X87653990Y-72170112D02*
X87606371Y-72312969D01*
X87606371Y-72312969D02*
X87558752Y-72360588D01*
X87558752Y-72360588D02*
X87463514Y-72408207D01*
X87463514Y-72408207D02*
X87320657Y-72408207D01*
X87320657Y-72408207D02*
X87225419Y-72360588D01*
X87225419Y-72360588D02*
X87177800Y-72312969D01*
X87177800Y-72312969D02*
X87130180Y-72217731D01*
X87130180Y-72217731D02*
X87130180Y-71836779D01*
X87130180Y-71836779D02*
X88130180Y-71836779D01*
X88130180Y-71836779D02*
X88130180Y-72170112D01*
X88130180Y-72170112D02*
X88082561Y-72265350D01*
X88082561Y-72265350D02*
X88034942Y-72312969D01*
X88034942Y-72312969D02*
X87939704Y-72360588D01*
X87939704Y-72360588D02*
X87844466Y-72360588D01*
X87844466Y-72360588D02*
X87749228Y-72312969D01*
X87749228Y-72312969D02*
X87701609Y-72265350D01*
X87701609Y-72265350D02*
X87653990Y-72170112D01*
X87653990Y-72170112D02*
X87653990Y-71836779D01*
X87415895Y-72789160D02*
X87415895Y-73265350D01*
X87130180Y-72693922D02*
X88130180Y-73027255D01*
X88130180Y-73027255D02*
X87130180Y-73360588D01*
X88130180Y-73551065D02*
X88130180Y-74122493D01*
X87130180Y-73836779D02*
X88130180Y-73836779D01*
X92936779Y-68188866D02*
X93698684Y-68188866D01*
X93317731Y-68569819D02*
X93317731Y-67807914D01*
X93188866Y-63163220D02*
X93188866Y-62401316D01*
X126989160Y-114122200D02*
X127132017Y-114169819D01*
X127132017Y-114169819D02*
X127370112Y-114169819D01*
X127370112Y-114169819D02*
X127465350Y-114122200D01*
X127465350Y-114122200D02*
X127512969Y-114074580D01*
X127512969Y-114074580D02*
X127560588Y-113979342D01*
X127560588Y-113979342D02*
X127560588Y-113884104D01*
X127560588Y-113884104D02*
X127512969Y-113788866D01*
X127512969Y-113788866D02*
X127465350Y-113741247D01*
X127465350Y-113741247D02*
X127370112Y-113693628D01*
X127370112Y-113693628D02*
X127179636Y-113646009D01*
X127179636Y-113646009D02*
X127084398Y-113598390D01*
X127084398Y-113598390D02*
X127036779Y-113550771D01*
X127036779Y-113550771D02*
X126989160Y-113455533D01*
X126989160Y-113455533D02*
X126989160Y-113360295D01*
X126989160Y-113360295D02*
X127036779Y-113265057D01*
X127036779Y-113265057D02*
X127084398Y-113217438D01*
X127084398Y-113217438D02*
X127179636Y-113169819D01*
X127179636Y-113169819D02*
X127417731Y-113169819D01*
X127417731Y-113169819D02*
X127560588Y-113217438D01*
X127989160Y-113646009D02*
X128322493Y-113646009D01*
X128465350Y-114169819D02*
X127989160Y-114169819D01*
X127989160Y-114169819D02*
X127989160Y-113169819D01*
X127989160Y-113169819D02*
X128465350Y-113169819D01*
X128893922Y-114169819D02*
X128893922Y-113169819D01*
X128893922Y-113169819D02*
X129465350Y-114169819D01*
X129465350Y-114169819D02*
X129465350Y-113169819D01*
X129941541Y-114169819D02*
X129941541Y-113169819D01*
X129941541Y-113169819D02*
X130179636Y-113169819D01*
X130179636Y-113169819D02*
X130322493Y-113217438D01*
X130322493Y-113217438D02*
X130417731Y-113312676D01*
X130417731Y-113312676D02*
X130465350Y-113407914D01*
X130465350Y-113407914D02*
X130512969Y-113598390D01*
X130512969Y-113598390D02*
X130512969Y-113741247D01*
X130512969Y-113741247D02*
X130465350Y-113931723D01*
X130465350Y-113931723D02*
X130417731Y-114026961D01*
X130417731Y-114026961D02*
X130322493Y-114122200D01*
X130322493Y-114122200D02*
X130179636Y-114169819D01*
X130179636Y-114169819D02*
X129941541Y-114169819D01*
X133269819Y-66263220D02*
X132269819Y-66263220D01*
X132269819Y-66263220D02*
X132269819Y-65882268D01*
X132269819Y-65882268D02*
X132317438Y-65787030D01*
X132317438Y-65787030D02*
X132365057Y-65739411D01*
X132365057Y-65739411D02*
X132460295Y-65691792D01*
X132460295Y-65691792D02*
X132603152Y-65691792D01*
X132603152Y-65691792D02*
X132698390Y-65739411D01*
X132698390Y-65739411D02*
X132746009Y-65787030D01*
X132746009Y-65787030D02*
X132793628Y-65882268D01*
X132793628Y-65882268D02*
X132793628Y-66263220D01*
X132269819Y-65358458D02*
X133269819Y-65120363D01*
X133269819Y-65120363D02*
X132555533Y-64929887D01*
X132555533Y-64929887D02*
X133269819Y-64739411D01*
X133269819Y-64739411D02*
X132269819Y-64501316D01*
X133269819Y-63548935D02*
X132793628Y-63882268D01*
X133269819Y-64120363D02*
X132269819Y-64120363D01*
X132269819Y-64120363D02*
X132269819Y-63739411D01*
X132269819Y-63739411D02*
X132317438Y-63644173D01*
X132317438Y-63644173D02*
X132365057Y-63596554D01*
X132365057Y-63596554D02*
X132460295Y-63548935D01*
X132460295Y-63548935D02*
X132603152Y-63548935D01*
X132603152Y-63548935D02*
X132698390Y-63596554D01*
X132698390Y-63596554D02*
X132746009Y-63644173D01*
X132746009Y-63644173D02*
X132793628Y-63739411D01*
X132793628Y-63739411D02*
X132793628Y-64120363D01*
X91027255Y-100069819D02*
X91217731Y-100069819D01*
X91217731Y-100069819D02*
X91312969Y-100117438D01*
X91312969Y-100117438D02*
X91408207Y-100212676D01*
X91408207Y-100212676D02*
X91455826Y-100403152D01*
X91455826Y-100403152D02*
X91455826Y-100736485D01*
X91455826Y-100736485D02*
X91408207Y-100926961D01*
X91408207Y-100926961D02*
X91312969Y-101022200D01*
X91312969Y-101022200D02*
X91217731Y-101069819D01*
X91217731Y-101069819D02*
X91027255Y-101069819D01*
X91027255Y-101069819D02*
X90932017Y-101022200D01*
X90932017Y-101022200D02*
X90836779Y-100926961D01*
X90836779Y-100926961D02*
X90789160Y-100736485D01*
X90789160Y-100736485D02*
X90789160Y-100403152D01*
X90789160Y-100403152D02*
X90836779Y-100212676D01*
X90836779Y-100212676D02*
X90932017Y-100117438D01*
X90932017Y-100117438D02*
X91027255Y-100069819D01*
X91884398Y-101069819D02*
X91884398Y-100069819D01*
X91884398Y-100069819D02*
X92455826Y-101069819D01*
X92455826Y-101069819D02*
X92455826Y-100069819D01*
X134746009Y-82629887D02*
X134793628Y-82487030D01*
X134793628Y-82487030D02*
X134841247Y-82439411D01*
X134841247Y-82439411D02*
X134936485Y-82391792D01*
X134936485Y-82391792D02*
X135079342Y-82391792D01*
X135079342Y-82391792D02*
X135174580Y-82439411D01*
X135174580Y-82439411D02*
X135222200Y-82487030D01*
X135222200Y-82487030D02*
X135269819Y-82582268D01*
X135269819Y-82582268D02*
X135269819Y-82963220D01*
X135269819Y-82963220D02*
X134269819Y-82963220D01*
X134269819Y-82963220D02*
X134269819Y-82629887D01*
X134269819Y-82629887D02*
X134317438Y-82534649D01*
X134317438Y-82534649D02*
X134365057Y-82487030D01*
X134365057Y-82487030D02*
X134460295Y-82439411D01*
X134460295Y-82439411D02*
X134555533Y-82439411D01*
X134555533Y-82439411D02*
X134650771Y-82487030D01*
X134650771Y-82487030D02*
X134698390Y-82534649D01*
X134698390Y-82534649D02*
X134746009Y-82629887D01*
X134746009Y-82629887D02*
X134746009Y-82963220D01*
X134269819Y-81772744D02*
X134269819Y-81582268D01*
X134269819Y-81582268D02*
X134317438Y-81487030D01*
X134317438Y-81487030D02*
X134412676Y-81391792D01*
X134412676Y-81391792D02*
X134603152Y-81344173D01*
X134603152Y-81344173D02*
X134936485Y-81344173D01*
X134936485Y-81344173D02*
X135126961Y-81391792D01*
X135126961Y-81391792D02*
X135222200Y-81487030D01*
X135222200Y-81487030D02*
X135269819Y-81582268D01*
X135269819Y-81582268D02*
X135269819Y-81772744D01*
X135269819Y-81772744D02*
X135222200Y-81867982D01*
X135222200Y-81867982D02*
X135126961Y-81963220D01*
X135126961Y-81963220D02*
X134936485Y-82010839D01*
X134936485Y-82010839D02*
X134603152Y-82010839D01*
X134603152Y-82010839D02*
X134412676Y-81963220D01*
X134412676Y-81963220D02*
X134317438Y-81867982D01*
X134317438Y-81867982D02*
X134269819Y-81772744D01*
X134269819Y-80725125D02*
X134269819Y-80534649D01*
X134269819Y-80534649D02*
X134317438Y-80439411D01*
X134317438Y-80439411D02*
X134412676Y-80344173D01*
X134412676Y-80344173D02*
X134603152Y-80296554D01*
X134603152Y-80296554D02*
X134936485Y-80296554D01*
X134936485Y-80296554D02*
X135126961Y-80344173D01*
X135126961Y-80344173D02*
X135222200Y-80439411D01*
X135222200Y-80439411D02*
X135269819Y-80534649D01*
X135269819Y-80534649D02*
X135269819Y-80725125D01*
X135269819Y-80725125D02*
X135222200Y-80820363D01*
X135222200Y-80820363D02*
X135126961Y-80915601D01*
X135126961Y-80915601D02*
X134936485Y-80963220D01*
X134936485Y-80963220D02*
X134603152Y-80963220D01*
X134603152Y-80963220D02*
X134412676Y-80915601D01*
X134412676Y-80915601D02*
X134317438Y-80820363D01*
X134317438Y-80820363D02*
X134269819Y-80725125D01*
X134269819Y-80010839D02*
X134269819Y-79439411D01*
X135269819Y-79725125D02*
X134269819Y-79725125D01*
X88625419Y-70508207D02*
X88577800Y-70460588D01*
X88577800Y-70460588D02*
X88530180Y-70317731D01*
X88530180Y-70317731D02*
X88530180Y-70222493D01*
X88530180Y-70222493D02*
X88577800Y-70079636D01*
X88577800Y-70079636D02*
X88673038Y-69984398D01*
X88673038Y-69984398D02*
X88768276Y-69936779D01*
X88768276Y-69936779D02*
X88958752Y-69889160D01*
X88958752Y-69889160D02*
X89101609Y-69889160D01*
X89101609Y-69889160D02*
X89292085Y-69936779D01*
X89292085Y-69936779D02*
X89387323Y-69984398D01*
X89387323Y-69984398D02*
X89482561Y-70079636D01*
X89482561Y-70079636D02*
X89530180Y-70222493D01*
X89530180Y-70222493D02*
X89530180Y-70317731D01*
X89530180Y-70317731D02*
X89482561Y-70460588D01*
X89482561Y-70460588D02*
X89434942Y-70508207D01*
X88530180Y-70936779D02*
X89530180Y-70936779D01*
X89053990Y-70936779D02*
X89053990Y-71508207D01*
X88530180Y-71508207D02*
X89530180Y-71508207D01*
X89482561Y-72508207D02*
X89530180Y-72412969D01*
X89530180Y-72412969D02*
X89530180Y-72270112D01*
X89530180Y-72270112D02*
X89482561Y-72127255D01*
X89482561Y-72127255D02*
X89387323Y-72032017D01*
X89387323Y-72032017D02*
X89292085Y-71984398D01*
X89292085Y-71984398D02*
X89101609Y-71936779D01*
X89101609Y-71936779D02*
X88958752Y-71936779D01*
X88958752Y-71936779D02*
X88768276Y-71984398D01*
X88768276Y-71984398D02*
X88673038Y-72032017D01*
X88673038Y-72032017D02*
X88577800Y-72127255D01*
X88577800Y-72127255D02*
X88530180Y-72270112D01*
X88530180Y-72270112D02*
X88530180Y-72365350D01*
X88530180Y-72365350D02*
X88577800Y-72508207D01*
X88577800Y-72508207D02*
X88625419Y-72555826D01*
X88625419Y-72555826D02*
X88958752Y-72555826D01*
X88958752Y-72555826D02*
X88958752Y-72365350D01*
X88953990Y-73870112D02*
X88953990Y-73536779D01*
X88430180Y-73536779D02*
X89430180Y-73536779D01*
X89430180Y-73536779D02*
X89430180Y-74012969D01*
X89430180Y-74393922D02*
X88620657Y-74393922D01*
X88620657Y-74393922D02*
X88525419Y-74441541D01*
X88525419Y-74441541D02*
X88477800Y-74489160D01*
X88477800Y-74489160D02*
X88430180Y-74584398D01*
X88430180Y-74584398D02*
X88430180Y-74774874D01*
X88430180Y-74774874D02*
X88477800Y-74870112D01*
X88477800Y-74870112D02*
X88525419Y-74917731D01*
X88525419Y-74917731D02*
X88620657Y-74965350D01*
X88620657Y-74965350D02*
X89430180Y-74965350D01*
X88430180Y-75917731D02*
X88430180Y-75441541D01*
X88430180Y-75441541D02*
X89430180Y-75441541D01*
X135269819Y-94391792D02*
X134793628Y-94725125D01*
X135269819Y-94963220D02*
X134269819Y-94963220D01*
X134269819Y-94963220D02*
X134269819Y-94582268D01*
X134269819Y-94582268D02*
X134317438Y-94487030D01*
X134317438Y-94487030D02*
X134365057Y-94439411D01*
X134365057Y-94439411D02*
X134460295Y-94391792D01*
X134460295Y-94391792D02*
X134603152Y-94391792D01*
X134603152Y-94391792D02*
X134698390Y-94439411D01*
X134698390Y-94439411D02*
X134746009Y-94487030D01*
X134746009Y-94487030D02*
X134793628Y-94582268D01*
X134793628Y-94582268D02*
X134793628Y-94963220D01*
X134746009Y-93963220D02*
X134746009Y-93629887D01*
X135269819Y-93487030D02*
X135269819Y-93963220D01*
X135269819Y-93963220D02*
X134269819Y-93963220D01*
X134269819Y-93963220D02*
X134269819Y-93487030D01*
X135222200Y-93106077D02*
X135269819Y-92963220D01*
X135269819Y-92963220D02*
X135269819Y-92725125D01*
X135269819Y-92725125D02*
X135222200Y-92629887D01*
X135222200Y-92629887D02*
X135174580Y-92582268D01*
X135174580Y-92582268D02*
X135079342Y-92534649D01*
X135079342Y-92534649D02*
X134984104Y-92534649D01*
X134984104Y-92534649D02*
X134888866Y-92582268D01*
X134888866Y-92582268D02*
X134841247Y-92629887D01*
X134841247Y-92629887D02*
X134793628Y-92725125D01*
X134793628Y-92725125D02*
X134746009Y-92915601D01*
X134746009Y-92915601D02*
X134698390Y-93010839D01*
X134698390Y-93010839D02*
X134650771Y-93058458D01*
X134650771Y-93058458D02*
X134555533Y-93106077D01*
X134555533Y-93106077D02*
X134460295Y-93106077D01*
X134460295Y-93106077D02*
X134365057Y-93058458D01*
X134365057Y-93058458D02*
X134317438Y-93010839D01*
X134317438Y-93010839D02*
X134269819Y-92915601D01*
X134269819Y-92915601D02*
X134269819Y-92677506D01*
X134269819Y-92677506D02*
X134317438Y-92534649D01*
X134746009Y-92106077D02*
X134746009Y-91772744D01*
X135269819Y-91629887D02*
X135269819Y-92106077D01*
X135269819Y-92106077D02*
X134269819Y-92106077D01*
X134269819Y-92106077D02*
X134269819Y-91629887D01*
X134269819Y-91344172D02*
X134269819Y-90772744D01*
X135269819Y-91058458D02*
X134269819Y-91058458D01*
X88330180Y-90436779D02*
X89330180Y-90436779D01*
X89330180Y-90436779D02*
X89330180Y-90817731D01*
X89330180Y-90817731D02*
X89282561Y-90912969D01*
X89282561Y-90912969D02*
X89234942Y-90960588D01*
X89234942Y-90960588D02*
X89139704Y-91008207D01*
X89139704Y-91008207D02*
X88996847Y-91008207D01*
X88996847Y-91008207D02*
X88901609Y-90960588D01*
X88901609Y-90960588D02*
X88853990Y-90912969D01*
X88853990Y-90912969D02*
X88806371Y-90817731D01*
X88806371Y-90817731D02*
X88806371Y-90436779D01*
X89330180Y-91341541D02*
X88330180Y-91579636D01*
X88330180Y-91579636D02*
X89044466Y-91770112D01*
X89044466Y-91770112D02*
X88330180Y-91960588D01*
X88330180Y-91960588D02*
X89330180Y-92198684D01*
X88330180Y-93151064D02*
X88806371Y-92817731D01*
X88330180Y-92579636D02*
X89330180Y-92579636D01*
X89330180Y-92579636D02*
X89330180Y-92960588D01*
X89330180Y-92960588D02*
X89282561Y-93055826D01*
X89282561Y-93055826D02*
X89234942Y-93103445D01*
X89234942Y-93103445D02*
X89139704Y-93151064D01*
X89139704Y-93151064D02*
X88996847Y-93151064D01*
X88996847Y-93151064D02*
X88901609Y-93103445D01*
X88901609Y-93103445D02*
X88853990Y-93055826D01*
X88853990Y-93055826D02*
X88806371Y-92960588D01*
X88806371Y-92960588D02*
X88806371Y-92579636D01*
X88425419Y-94151064D02*
X88377800Y-94103445D01*
X88377800Y-94103445D02*
X88330180Y-93960588D01*
X88330180Y-93960588D02*
X88330180Y-93865350D01*
X88330180Y-93865350D02*
X88377800Y-93722493D01*
X88377800Y-93722493D02*
X88473038Y-93627255D01*
X88473038Y-93627255D02*
X88568276Y-93579636D01*
X88568276Y-93579636D02*
X88758752Y-93532017D01*
X88758752Y-93532017D02*
X88901609Y-93532017D01*
X88901609Y-93532017D02*
X89092085Y-93579636D01*
X89092085Y-93579636D02*
X89187323Y-93627255D01*
X89187323Y-93627255D02*
X89282561Y-93722493D01*
X89282561Y-93722493D02*
X89330180Y-93865350D01*
X89330180Y-93865350D02*
X89330180Y-93960588D01*
X89330180Y-93960588D02*
X89282561Y-94103445D01*
X89282561Y-94103445D02*
X89234942Y-94151064D01*
X89330180Y-94436779D02*
X89330180Y-95008207D01*
X88330180Y-94722493D02*
X89330180Y-94722493D01*
X88330180Y-95817731D02*
X88330180Y-95341541D01*
X88330180Y-95341541D02*
X89330180Y-95341541D01*
X90289160Y-114122200D02*
X90432017Y-114169819D01*
X90432017Y-114169819D02*
X90670112Y-114169819D01*
X90670112Y-114169819D02*
X90765350Y-114122200D01*
X90765350Y-114122200D02*
X90812969Y-114074580D01*
X90812969Y-114074580D02*
X90860588Y-113979342D01*
X90860588Y-113979342D02*
X90860588Y-113884104D01*
X90860588Y-113884104D02*
X90812969Y-113788866D01*
X90812969Y-113788866D02*
X90765350Y-113741247D01*
X90765350Y-113741247D02*
X90670112Y-113693628D01*
X90670112Y-113693628D02*
X90479636Y-113646009D01*
X90479636Y-113646009D02*
X90384398Y-113598390D01*
X90384398Y-113598390D02*
X90336779Y-113550771D01*
X90336779Y-113550771D02*
X90289160Y-113455533D01*
X90289160Y-113455533D02*
X90289160Y-113360295D01*
X90289160Y-113360295D02*
X90336779Y-113265057D01*
X90336779Y-113265057D02*
X90384398Y-113217438D01*
X90384398Y-113217438D02*
X90479636Y-113169819D01*
X90479636Y-113169819D02*
X90717731Y-113169819D01*
X90717731Y-113169819D02*
X90860588Y-113217438D01*
X91146303Y-113169819D02*
X91717731Y-113169819D01*
X91432017Y-114169819D02*
X91432017Y-113169819D01*
X92003446Y-113884104D02*
X92479636Y-113884104D01*
X91908208Y-114169819D02*
X92241541Y-113169819D01*
X92241541Y-113169819D02*
X92574874Y-114169819D01*
X93479636Y-114169819D02*
X93146303Y-113693628D01*
X92908208Y-114169819D02*
X92908208Y-113169819D01*
X92908208Y-113169819D02*
X93289160Y-113169819D01*
X93289160Y-113169819D02*
X93384398Y-113217438D01*
X93384398Y-113217438D02*
X93432017Y-113265057D01*
X93432017Y-113265057D02*
X93479636Y-113360295D01*
X93479636Y-113360295D02*
X93479636Y-113503152D01*
X93479636Y-113503152D02*
X93432017Y-113598390D01*
X93432017Y-113598390D02*
X93384398Y-113646009D01*
X93384398Y-113646009D02*
X93289160Y-113693628D01*
X93289160Y-113693628D02*
X92908208Y-113693628D01*
X93765351Y-113169819D02*
X94336779Y-113169819D01*
X94051065Y-114169819D02*
X94051065Y-113169819D01*
X95384398Y-113122200D02*
X94527256Y-114407914D01*
X95670113Y-114122200D02*
X95812970Y-114169819D01*
X95812970Y-114169819D02*
X96051065Y-114169819D01*
X96051065Y-114169819D02*
X96146303Y-114122200D01*
X96146303Y-114122200D02*
X96193922Y-114074580D01*
X96193922Y-114074580D02*
X96241541Y-113979342D01*
X96241541Y-113979342D02*
X96241541Y-113884104D01*
X96241541Y-113884104D02*
X96193922Y-113788866D01*
X96193922Y-113788866D02*
X96146303Y-113741247D01*
X96146303Y-113741247D02*
X96051065Y-113693628D01*
X96051065Y-113693628D02*
X95860589Y-113646009D01*
X95860589Y-113646009D02*
X95765351Y-113598390D01*
X95765351Y-113598390D02*
X95717732Y-113550771D01*
X95717732Y-113550771D02*
X95670113Y-113455533D01*
X95670113Y-113455533D02*
X95670113Y-113360295D01*
X95670113Y-113360295D02*
X95717732Y-113265057D01*
X95717732Y-113265057D02*
X95765351Y-113217438D01*
X95765351Y-113217438D02*
X95860589Y-113169819D01*
X95860589Y-113169819D02*
X96098684Y-113169819D01*
X96098684Y-113169819D02*
X96241541Y-113217438D01*
X96527256Y-113169819D02*
X97098684Y-113169819D01*
X96812970Y-114169819D02*
X96812970Y-113169819D01*
X97622494Y-113169819D02*
X97812970Y-113169819D01*
X97812970Y-113169819D02*
X97908208Y-113217438D01*
X97908208Y-113217438D02*
X98003446Y-113312676D01*
X98003446Y-113312676D02*
X98051065Y-113503152D01*
X98051065Y-113503152D02*
X98051065Y-113836485D01*
X98051065Y-113836485D02*
X98003446Y-114026961D01*
X98003446Y-114026961D02*
X97908208Y-114122200D01*
X97908208Y-114122200D02*
X97812970Y-114169819D01*
X97812970Y-114169819D02*
X97622494Y-114169819D01*
X97622494Y-114169819D02*
X97527256Y-114122200D01*
X97527256Y-114122200D02*
X97432018Y-114026961D01*
X97432018Y-114026961D02*
X97384399Y-113836485D01*
X97384399Y-113836485D02*
X97384399Y-113503152D01*
X97384399Y-113503152D02*
X97432018Y-113312676D01*
X97432018Y-113312676D02*
X97527256Y-113217438D01*
X97527256Y-113217438D02*
X97622494Y-113169819D01*
X98479637Y-114169819D02*
X98479637Y-113169819D01*
X98479637Y-113169819D02*
X98860589Y-113169819D01*
X98860589Y-113169819D02*
X98955827Y-113217438D01*
X98955827Y-113217438D02*
X99003446Y-113265057D01*
X99003446Y-113265057D02*
X99051065Y-113360295D01*
X99051065Y-113360295D02*
X99051065Y-113503152D01*
X99051065Y-113503152D02*
X99003446Y-113598390D01*
X99003446Y-113598390D02*
X98955827Y-113646009D01*
X98955827Y-113646009D02*
X98860589Y-113693628D01*
X98860589Y-113693628D02*
X98479637Y-113693628D01*
%TO.C,SW105*%
X89632200Y-58985713D02*
X89679819Y-58842856D01*
X89679819Y-58842856D02*
X89679819Y-58604761D01*
X89679819Y-58604761D02*
X89632200Y-58509523D01*
X89632200Y-58509523D02*
X89584580Y-58461904D01*
X89584580Y-58461904D02*
X89489342Y-58414285D01*
X89489342Y-58414285D02*
X89394104Y-58414285D01*
X89394104Y-58414285D02*
X89298866Y-58461904D01*
X89298866Y-58461904D02*
X89251247Y-58509523D01*
X89251247Y-58509523D02*
X89203628Y-58604761D01*
X89203628Y-58604761D02*
X89156009Y-58795237D01*
X89156009Y-58795237D02*
X89108390Y-58890475D01*
X89108390Y-58890475D02*
X89060771Y-58938094D01*
X89060771Y-58938094D02*
X88965533Y-58985713D01*
X88965533Y-58985713D02*
X88870295Y-58985713D01*
X88870295Y-58985713D02*
X88775057Y-58938094D01*
X88775057Y-58938094D02*
X88727438Y-58890475D01*
X88727438Y-58890475D02*
X88679819Y-58795237D01*
X88679819Y-58795237D02*
X88679819Y-58557142D01*
X88679819Y-58557142D02*
X88727438Y-58414285D01*
X88679819Y-58080951D02*
X89679819Y-57842856D01*
X89679819Y-57842856D02*
X88965533Y-57652380D01*
X88965533Y-57652380D02*
X89679819Y-57461904D01*
X89679819Y-57461904D02*
X88679819Y-57223809D01*
X89679819Y-56319047D02*
X89679819Y-56890475D01*
X89679819Y-56604761D02*
X88679819Y-56604761D01*
X88679819Y-56604761D02*
X88822676Y-56699999D01*
X88822676Y-56699999D02*
X88917914Y-56795237D01*
X88917914Y-56795237D02*
X88965533Y-56890475D01*
X88679819Y-55699999D02*
X88679819Y-55604761D01*
X88679819Y-55604761D02*
X88727438Y-55509523D01*
X88727438Y-55509523D02*
X88775057Y-55461904D01*
X88775057Y-55461904D02*
X88870295Y-55414285D01*
X88870295Y-55414285D02*
X89060771Y-55366666D01*
X89060771Y-55366666D02*
X89298866Y-55366666D01*
X89298866Y-55366666D02*
X89489342Y-55414285D01*
X89489342Y-55414285D02*
X89584580Y-55461904D01*
X89584580Y-55461904D02*
X89632200Y-55509523D01*
X89632200Y-55509523D02*
X89679819Y-55604761D01*
X89679819Y-55604761D02*
X89679819Y-55699999D01*
X89679819Y-55699999D02*
X89632200Y-55795237D01*
X89632200Y-55795237D02*
X89584580Y-55842856D01*
X89584580Y-55842856D02*
X89489342Y-55890475D01*
X89489342Y-55890475D02*
X89298866Y-55938094D01*
X89298866Y-55938094D02*
X89060771Y-55938094D01*
X89060771Y-55938094D02*
X88870295Y-55890475D01*
X88870295Y-55890475D02*
X88775057Y-55842856D01*
X88775057Y-55842856D02*
X88727438Y-55795237D01*
X88727438Y-55795237D02*
X88679819Y-55699999D01*
X88679819Y-54461904D02*
X88679819Y-54938094D01*
X88679819Y-54938094D02*
X89156009Y-54985713D01*
X89156009Y-54985713D02*
X89108390Y-54938094D01*
X89108390Y-54938094D02*
X89060771Y-54842856D01*
X89060771Y-54842856D02*
X89060771Y-54604761D01*
X89060771Y-54604761D02*
X89108390Y-54509523D01*
X89108390Y-54509523D02*
X89156009Y-54461904D01*
X89156009Y-54461904D02*
X89251247Y-54414285D01*
X89251247Y-54414285D02*
X89489342Y-54414285D01*
X89489342Y-54414285D02*
X89584580Y-54461904D01*
X89584580Y-54461904D02*
X89632200Y-54509523D01*
X89632200Y-54509523D02*
X89679819Y-54604761D01*
X89679819Y-54604761D02*
X89679819Y-54842856D01*
X89679819Y-54842856D02*
X89632200Y-54938094D01*
X89632200Y-54938094D02*
X89584580Y-54985713D01*
%TO.C,R117*%
X107880952Y-56254819D02*
X107547619Y-55778628D01*
X107309524Y-56254819D02*
X107309524Y-55254819D01*
X107309524Y-55254819D02*
X107690476Y-55254819D01*
X107690476Y-55254819D02*
X107785714Y-55302438D01*
X107785714Y-55302438D02*
X107833333Y-55350057D01*
X107833333Y-55350057D02*
X107880952Y-55445295D01*
X107880952Y-55445295D02*
X107880952Y-55588152D01*
X107880952Y-55588152D02*
X107833333Y-55683390D01*
X107833333Y-55683390D02*
X107785714Y-55731009D01*
X107785714Y-55731009D02*
X107690476Y-55778628D01*
X107690476Y-55778628D02*
X107309524Y-55778628D01*
X108833333Y-56254819D02*
X108261905Y-56254819D01*
X108547619Y-56254819D02*
X108547619Y-55254819D01*
X108547619Y-55254819D02*
X108452381Y-55397676D01*
X108452381Y-55397676D02*
X108357143Y-55492914D01*
X108357143Y-55492914D02*
X108261905Y-55540533D01*
X109785714Y-56254819D02*
X109214286Y-56254819D01*
X109500000Y-56254819D02*
X109500000Y-55254819D01*
X109500000Y-55254819D02*
X109404762Y-55397676D01*
X109404762Y-55397676D02*
X109309524Y-55492914D01*
X109309524Y-55492914D02*
X109214286Y-55540533D01*
X110119048Y-55254819D02*
X110785714Y-55254819D01*
X110785714Y-55254819D02*
X110357143Y-56254819D01*
%TO.C,JP101*%
X107914285Y-62154819D02*
X107914285Y-62869104D01*
X107914285Y-62869104D02*
X107866666Y-63011961D01*
X107866666Y-63011961D02*
X107771428Y-63107200D01*
X107771428Y-63107200D02*
X107628571Y-63154819D01*
X107628571Y-63154819D02*
X107533333Y-63154819D01*
X108390476Y-63154819D02*
X108390476Y-62154819D01*
X108390476Y-62154819D02*
X108771428Y-62154819D01*
X108771428Y-62154819D02*
X108866666Y-62202438D01*
X108866666Y-62202438D02*
X108914285Y-62250057D01*
X108914285Y-62250057D02*
X108961904Y-62345295D01*
X108961904Y-62345295D02*
X108961904Y-62488152D01*
X108961904Y-62488152D02*
X108914285Y-62583390D01*
X108914285Y-62583390D02*
X108866666Y-62631009D01*
X108866666Y-62631009D02*
X108771428Y-62678628D01*
X108771428Y-62678628D02*
X108390476Y-62678628D01*
X109914285Y-63154819D02*
X109342857Y-63154819D01*
X109628571Y-63154819D02*
X109628571Y-62154819D01*
X109628571Y-62154819D02*
X109533333Y-62297676D01*
X109533333Y-62297676D02*
X109438095Y-62392914D01*
X109438095Y-62392914D02*
X109342857Y-62440533D01*
X110533333Y-62154819D02*
X110628571Y-62154819D01*
X110628571Y-62154819D02*
X110723809Y-62202438D01*
X110723809Y-62202438D02*
X110771428Y-62250057D01*
X110771428Y-62250057D02*
X110819047Y-62345295D01*
X110819047Y-62345295D02*
X110866666Y-62535771D01*
X110866666Y-62535771D02*
X110866666Y-62773866D01*
X110866666Y-62773866D02*
X110819047Y-62964342D01*
X110819047Y-62964342D02*
X110771428Y-63059580D01*
X110771428Y-63059580D02*
X110723809Y-63107200D01*
X110723809Y-63107200D02*
X110628571Y-63154819D01*
X110628571Y-63154819D02*
X110533333Y-63154819D01*
X110533333Y-63154819D02*
X110438095Y-63107200D01*
X110438095Y-63107200D02*
X110390476Y-63059580D01*
X110390476Y-63059580D02*
X110342857Y-62964342D01*
X110342857Y-62964342D02*
X110295238Y-62773866D01*
X110295238Y-62773866D02*
X110295238Y-62535771D01*
X110295238Y-62535771D02*
X110342857Y-62345295D01*
X110342857Y-62345295D02*
X110390476Y-62250057D01*
X110390476Y-62250057D02*
X110438095Y-62202438D01*
X110438095Y-62202438D02*
X110533333Y-62154819D01*
X111819047Y-63154819D02*
X111247619Y-63154819D01*
X111533333Y-63154819D02*
X111533333Y-62154819D01*
X111533333Y-62154819D02*
X111438095Y-62297676D01*
X111438095Y-62297676D02*
X111342857Y-62392914D01*
X111342857Y-62392914D02*
X111247619Y-62440533D01*
%TO.C,C101*%
X95159580Y-62719047D02*
X95207200Y-62766666D01*
X95207200Y-62766666D02*
X95254819Y-62909523D01*
X95254819Y-62909523D02*
X95254819Y-63004761D01*
X95254819Y-63004761D02*
X95207200Y-63147618D01*
X95207200Y-63147618D02*
X95111961Y-63242856D01*
X95111961Y-63242856D02*
X95016723Y-63290475D01*
X95016723Y-63290475D02*
X94826247Y-63338094D01*
X94826247Y-63338094D02*
X94683390Y-63338094D01*
X94683390Y-63338094D02*
X94492914Y-63290475D01*
X94492914Y-63290475D02*
X94397676Y-63242856D01*
X94397676Y-63242856D02*
X94302438Y-63147618D01*
X94302438Y-63147618D02*
X94254819Y-63004761D01*
X94254819Y-63004761D02*
X94254819Y-62909523D01*
X94254819Y-62909523D02*
X94302438Y-62766666D01*
X94302438Y-62766666D02*
X94350057Y-62719047D01*
X95254819Y-61766666D02*
X95254819Y-62338094D01*
X95254819Y-62052380D02*
X94254819Y-62052380D01*
X94254819Y-62052380D02*
X94397676Y-62147618D01*
X94397676Y-62147618D02*
X94492914Y-62242856D01*
X94492914Y-62242856D02*
X94540533Y-62338094D01*
X94254819Y-61147618D02*
X94254819Y-61052380D01*
X94254819Y-61052380D02*
X94302438Y-60957142D01*
X94302438Y-60957142D02*
X94350057Y-60909523D01*
X94350057Y-60909523D02*
X94445295Y-60861904D01*
X94445295Y-60861904D02*
X94635771Y-60814285D01*
X94635771Y-60814285D02*
X94873866Y-60814285D01*
X94873866Y-60814285D02*
X95064342Y-60861904D01*
X95064342Y-60861904D02*
X95159580Y-60909523D01*
X95159580Y-60909523D02*
X95207200Y-60957142D01*
X95207200Y-60957142D02*
X95254819Y-61052380D01*
X95254819Y-61052380D02*
X95254819Y-61147618D01*
X95254819Y-61147618D02*
X95207200Y-61242856D01*
X95207200Y-61242856D02*
X95159580Y-61290475D01*
X95159580Y-61290475D02*
X95064342Y-61338094D01*
X95064342Y-61338094D02*
X94873866Y-61385713D01*
X94873866Y-61385713D02*
X94635771Y-61385713D01*
X94635771Y-61385713D02*
X94445295Y-61338094D01*
X94445295Y-61338094D02*
X94350057Y-61290475D01*
X94350057Y-61290475D02*
X94302438Y-61242856D01*
X94302438Y-61242856D02*
X94254819Y-61147618D01*
X95254819Y-59861904D02*
X95254819Y-60433332D01*
X95254819Y-60147618D02*
X94254819Y-60147618D01*
X94254819Y-60147618D02*
X94397676Y-60242856D01*
X94397676Y-60242856D02*
X94492914Y-60338094D01*
X94492914Y-60338094D02*
X94540533Y-60433332D01*
%TO.C,R104*%
X127054819Y-69619047D02*
X126578628Y-69952380D01*
X127054819Y-70190475D02*
X126054819Y-70190475D01*
X126054819Y-70190475D02*
X126054819Y-69809523D01*
X126054819Y-69809523D02*
X126102438Y-69714285D01*
X126102438Y-69714285D02*
X126150057Y-69666666D01*
X126150057Y-69666666D02*
X126245295Y-69619047D01*
X126245295Y-69619047D02*
X126388152Y-69619047D01*
X126388152Y-69619047D02*
X126483390Y-69666666D01*
X126483390Y-69666666D02*
X126531009Y-69714285D01*
X126531009Y-69714285D02*
X126578628Y-69809523D01*
X126578628Y-69809523D02*
X126578628Y-70190475D01*
X127054819Y-68666666D02*
X127054819Y-69238094D01*
X127054819Y-68952380D02*
X126054819Y-68952380D01*
X126054819Y-68952380D02*
X126197676Y-69047618D01*
X126197676Y-69047618D02*
X126292914Y-69142856D01*
X126292914Y-69142856D02*
X126340533Y-69238094D01*
X126054819Y-68047618D02*
X126054819Y-67952380D01*
X126054819Y-67952380D02*
X126102438Y-67857142D01*
X126102438Y-67857142D02*
X126150057Y-67809523D01*
X126150057Y-67809523D02*
X126245295Y-67761904D01*
X126245295Y-67761904D02*
X126435771Y-67714285D01*
X126435771Y-67714285D02*
X126673866Y-67714285D01*
X126673866Y-67714285D02*
X126864342Y-67761904D01*
X126864342Y-67761904D02*
X126959580Y-67809523D01*
X126959580Y-67809523D02*
X127007200Y-67857142D01*
X127007200Y-67857142D02*
X127054819Y-67952380D01*
X127054819Y-67952380D02*
X127054819Y-68047618D01*
X127054819Y-68047618D02*
X127007200Y-68142856D01*
X127007200Y-68142856D02*
X126959580Y-68190475D01*
X126959580Y-68190475D02*
X126864342Y-68238094D01*
X126864342Y-68238094D02*
X126673866Y-68285713D01*
X126673866Y-68285713D02*
X126435771Y-68285713D01*
X126435771Y-68285713D02*
X126245295Y-68238094D01*
X126245295Y-68238094D02*
X126150057Y-68190475D01*
X126150057Y-68190475D02*
X126102438Y-68142856D01*
X126102438Y-68142856D02*
X126054819Y-68047618D01*
X126388152Y-66857142D02*
X127054819Y-66857142D01*
X126007200Y-67095237D02*
X126721485Y-67333332D01*
X126721485Y-67333332D02*
X126721485Y-66714285D01*
%TO.C,R107*%
X95380952Y-101254819D02*
X95047619Y-100778628D01*
X94809524Y-101254819D02*
X94809524Y-100254819D01*
X94809524Y-100254819D02*
X95190476Y-100254819D01*
X95190476Y-100254819D02*
X95285714Y-100302438D01*
X95285714Y-100302438D02*
X95333333Y-100350057D01*
X95333333Y-100350057D02*
X95380952Y-100445295D01*
X95380952Y-100445295D02*
X95380952Y-100588152D01*
X95380952Y-100588152D02*
X95333333Y-100683390D01*
X95333333Y-100683390D02*
X95285714Y-100731009D01*
X95285714Y-100731009D02*
X95190476Y-100778628D01*
X95190476Y-100778628D02*
X94809524Y-100778628D01*
X96333333Y-101254819D02*
X95761905Y-101254819D01*
X96047619Y-101254819D02*
X96047619Y-100254819D01*
X96047619Y-100254819D02*
X95952381Y-100397676D01*
X95952381Y-100397676D02*
X95857143Y-100492914D01*
X95857143Y-100492914D02*
X95761905Y-100540533D01*
X96952381Y-100254819D02*
X97047619Y-100254819D01*
X97047619Y-100254819D02*
X97142857Y-100302438D01*
X97142857Y-100302438D02*
X97190476Y-100350057D01*
X97190476Y-100350057D02*
X97238095Y-100445295D01*
X97238095Y-100445295D02*
X97285714Y-100635771D01*
X97285714Y-100635771D02*
X97285714Y-100873866D01*
X97285714Y-100873866D02*
X97238095Y-101064342D01*
X97238095Y-101064342D02*
X97190476Y-101159580D01*
X97190476Y-101159580D02*
X97142857Y-101207200D01*
X97142857Y-101207200D02*
X97047619Y-101254819D01*
X97047619Y-101254819D02*
X96952381Y-101254819D01*
X96952381Y-101254819D02*
X96857143Y-101207200D01*
X96857143Y-101207200D02*
X96809524Y-101159580D01*
X96809524Y-101159580D02*
X96761905Y-101064342D01*
X96761905Y-101064342D02*
X96714286Y-100873866D01*
X96714286Y-100873866D02*
X96714286Y-100635771D01*
X96714286Y-100635771D02*
X96761905Y-100445295D01*
X96761905Y-100445295D02*
X96809524Y-100350057D01*
X96809524Y-100350057D02*
X96857143Y-100302438D01*
X96857143Y-100302438D02*
X96952381Y-100254819D01*
X97619048Y-100254819D02*
X98285714Y-100254819D01*
X98285714Y-100254819D02*
X97857143Y-101254819D01*
%TO.C,R110*%
X128880952Y-70554819D02*
X128547619Y-70078628D01*
X128309524Y-70554819D02*
X128309524Y-69554819D01*
X128309524Y-69554819D02*
X128690476Y-69554819D01*
X128690476Y-69554819D02*
X128785714Y-69602438D01*
X128785714Y-69602438D02*
X128833333Y-69650057D01*
X128833333Y-69650057D02*
X128880952Y-69745295D01*
X128880952Y-69745295D02*
X128880952Y-69888152D01*
X128880952Y-69888152D02*
X128833333Y-69983390D01*
X128833333Y-69983390D02*
X128785714Y-70031009D01*
X128785714Y-70031009D02*
X128690476Y-70078628D01*
X128690476Y-70078628D02*
X128309524Y-70078628D01*
X129833333Y-70554819D02*
X129261905Y-70554819D01*
X129547619Y-70554819D02*
X129547619Y-69554819D01*
X129547619Y-69554819D02*
X129452381Y-69697676D01*
X129452381Y-69697676D02*
X129357143Y-69792914D01*
X129357143Y-69792914D02*
X129261905Y-69840533D01*
X130785714Y-70554819D02*
X130214286Y-70554819D01*
X130500000Y-70554819D02*
X130500000Y-69554819D01*
X130500000Y-69554819D02*
X130404762Y-69697676D01*
X130404762Y-69697676D02*
X130309524Y-69792914D01*
X130309524Y-69792914D02*
X130214286Y-69840533D01*
X131404762Y-69554819D02*
X131500000Y-69554819D01*
X131500000Y-69554819D02*
X131595238Y-69602438D01*
X131595238Y-69602438D02*
X131642857Y-69650057D01*
X131642857Y-69650057D02*
X131690476Y-69745295D01*
X131690476Y-69745295D02*
X131738095Y-69935771D01*
X131738095Y-69935771D02*
X131738095Y-70173866D01*
X131738095Y-70173866D02*
X131690476Y-70364342D01*
X131690476Y-70364342D02*
X131642857Y-70459580D01*
X131642857Y-70459580D02*
X131595238Y-70507200D01*
X131595238Y-70507200D02*
X131500000Y-70554819D01*
X131500000Y-70554819D02*
X131404762Y-70554819D01*
X131404762Y-70554819D02*
X131309524Y-70507200D01*
X131309524Y-70507200D02*
X131261905Y-70459580D01*
X131261905Y-70459580D02*
X131214286Y-70364342D01*
X131214286Y-70364342D02*
X131166667Y-70173866D01*
X131166667Y-70173866D02*
X131166667Y-69935771D01*
X131166667Y-69935771D02*
X131214286Y-69745295D01*
X131214286Y-69745295D02*
X131261905Y-69650057D01*
X131261905Y-69650057D02*
X131309524Y-69602438D01*
X131309524Y-69602438D02*
X131404762Y-69554819D01*
%TO.C,C103*%
X114989580Y-62719047D02*
X115037200Y-62766666D01*
X115037200Y-62766666D02*
X115084819Y-62909523D01*
X115084819Y-62909523D02*
X115084819Y-63004761D01*
X115084819Y-63004761D02*
X115037200Y-63147618D01*
X115037200Y-63147618D02*
X114941961Y-63242856D01*
X114941961Y-63242856D02*
X114846723Y-63290475D01*
X114846723Y-63290475D02*
X114656247Y-63338094D01*
X114656247Y-63338094D02*
X114513390Y-63338094D01*
X114513390Y-63338094D02*
X114322914Y-63290475D01*
X114322914Y-63290475D02*
X114227676Y-63242856D01*
X114227676Y-63242856D02*
X114132438Y-63147618D01*
X114132438Y-63147618D02*
X114084819Y-63004761D01*
X114084819Y-63004761D02*
X114084819Y-62909523D01*
X114084819Y-62909523D02*
X114132438Y-62766666D01*
X114132438Y-62766666D02*
X114180057Y-62719047D01*
X115084819Y-61766666D02*
X115084819Y-62338094D01*
X115084819Y-62052380D02*
X114084819Y-62052380D01*
X114084819Y-62052380D02*
X114227676Y-62147618D01*
X114227676Y-62147618D02*
X114322914Y-62242856D01*
X114322914Y-62242856D02*
X114370533Y-62338094D01*
X114084819Y-61147618D02*
X114084819Y-61052380D01*
X114084819Y-61052380D02*
X114132438Y-60957142D01*
X114132438Y-60957142D02*
X114180057Y-60909523D01*
X114180057Y-60909523D02*
X114275295Y-60861904D01*
X114275295Y-60861904D02*
X114465771Y-60814285D01*
X114465771Y-60814285D02*
X114703866Y-60814285D01*
X114703866Y-60814285D02*
X114894342Y-60861904D01*
X114894342Y-60861904D02*
X114989580Y-60909523D01*
X114989580Y-60909523D02*
X115037200Y-60957142D01*
X115037200Y-60957142D02*
X115084819Y-61052380D01*
X115084819Y-61052380D02*
X115084819Y-61147618D01*
X115084819Y-61147618D02*
X115037200Y-61242856D01*
X115037200Y-61242856D02*
X114989580Y-61290475D01*
X114989580Y-61290475D02*
X114894342Y-61338094D01*
X114894342Y-61338094D02*
X114703866Y-61385713D01*
X114703866Y-61385713D02*
X114465771Y-61385713D01*
X114465771Y-61385713D02*
X114275295Y-61338094D01*
X114275295Y-61338094D02*
X114180057Y-61290475D01*
X114180057Y-61290475D02*
X114132438Y-61242856D01*
X114132438Y-61242856D02*
X114084819Y-61147618D01*
X114084819Y-60480951D02*
X114084819Y-59861904D01*
X114084819Y-59861904D02*
X114465771Y-60195237D01*
X114465771Y-60195237D02*
X114465771Y-60052380D01*
X114465771Y-60052380D02*
X114513390Y-59957142D01*
X114513390Y-59957142D02*
X114561009Y-59909523D01*
X114561009Y-59909523D02*
X114656247Y-59861904D01*
X114656247Y-59861904D02*
X114894342Y-59861904D01*
X114894342Y-59861904D02*
X114989580Y-59909523D01*
X114989580Y-59909523D02*
X115037200Y-59957142D01*
X115037200Y-59957142D02*
X115084819Y-60052380D01*
X115084819Y-60052380D02*
X115084819Y-60338094D01*
X115084819Y-60338094D02*
X115037200Y-60433332D01*
X115037200Y-60433332D02*
X114989580Y-60480951D01*
%TO.C,U105*%
X110785714Y-87454819D02*
X110785714Y-88264342D01*
X110785714Y-88264342D02*
X110833333Y-88359580D01*
X110833333Y-88359580D02*
X110880952Y-88407200D01*
X110880952Y-88407200D02*
X110976190Y-88454819D01*
X110976190Y-88454819D02*
X111166666Y-88454819D01*
X111166666Y-88454819D02*
X111261904Y-88407200D01*
X111261904Y-88407200D02*
X111309523Y-88359580D01*
X111309523Y-88359580D02*
X111357142Y-88264342D01*
X111357142Y-88264342D02*
X111357142Y-87454819D01*
X112357142Y-88454819D02*
X111785714Y-88454819D01*
X112071428Y-88454819D02*
X112071428Y-87454819D01*
X112071428Y-87454819D02*
X111976190Y-87597676D01*
X111976190Y-87597676D02*
X111880952Y-87692914D01*
X111880952Y-87692914D02*
X111785714Y-87740533D01*
X112976190Y-87454819D02*
X113071428Y-87454819D01*
X113071428Y-87454819D02*
X113166666Y-87502438D01*
X113166666Y-87502438D02*
X113214285Y-87550057D01*
X113214285Y-87550057D02*
X113261904Y-87645295D01*
X113261904Y-87645295D02*
X113309523Y-87835771D01*
X113309523Y-87835771D02*
X113309523Y-88073866D01*
X113309523Y-88073866D02*
X113261904Y-88264342D01*
X113261904Y-88264342D02*
X113214285Y-88359580D01*
X113214285Y-88359580D02*
X113166666Y-88407200D01*
X113166666Y-88407200D02*
X113071428Y-88454819D01*
X113071428Y-88454819D02*
X112976190Y-88454819D01*
X112976190Y-88454819D02*
X112880952Y-88407200D01*
X112880952Y-88407200D02*
X112833333Y-88359580D01*
X112833333Y-88359580D02*
X112785714Y-88264342D01*
X112785714Y-88264342D02*
X112738095Y-88073866D01*
X112738095Y-88073866D02*
X112738095Y-87835771D01*
X112738095Y-87835771D02*
X112785714Y-87645295D01*
X112785714Y-87645295D02*
X112833333Y-87550057D01*
X112833333Y-87550057D02*
X112880952Y-87502438D01*
X112880952Y-87502438D02*
X112976190Y-87454819D01*
X114214285Y-87454819D02*
X113738095Y-87454819D01*
X113738095Y-87454819D02*
X113690476Y-87931009D01*
X113690476Y-87931009D02*
X113738095Y-87883390D01*
X113738095Y-87883390D02*
X113833333Y-87835771D01*
X113833333Y-87835771D02*
X114071428Y-87835771D01*
X114071428Y-87835771D02*
X114166666Y-87883390D01*
X114166666Y-87883390D02*
X114214285Y-87931009D01*
X114214285Y-87931009D02*
X114261904Y-88026247D01*
X114261904Y-88026247D02*
X114261904Y-88264342D01*
X114261904Y-88264342D02*
X114214285Y-88359580D01*
X114214285Y-88359580D02*
X114166666Y-88407200D01*
X114166666Y-88407200D02*
X114071428Y-88454819D01*
X114071428Y-88454819D02*
X113833333Y-88454819D01*
X113833333Y-88454819D02*
X113738095Y-88407200D01*
X113738095Y-88407200D02*
X113690476Y-88359580D01*
%TO.C,R109*%
X126180952Y-100104819D02*
X125847619Y-99628628D01*
X125609524Y-100104819D02*
X125609524Y-99104819D01*
X125609524Y-99104819D02*
X125990476Y-99104819D01*
X125990476Y-99104819D02*
X126085714Y-99152438D01*
X126085714Y-99152438D02*
X126133333Y-99200057D01*
X126133333Y-99200057D02*
X126180952Y-99295295D01*
X126180952Y-99295295D02*
X126180952Y-99438152D01*
X126180952Y-99438152D02*
X126133333Y-99533390D01*
X126133333Y-99533390D02*
X126085714Y-99581009D01*
X126085714Y-99581009D02*
X125990476Y-99628628D01*
X125990476Y-99628628D02*
X125609524Y-99628628D01*
X127133333Y-100104819D02*
X126561905Y-100104819D01*
X126847619Y-100104819D02*
X126847619Y-99104819D01*
X126847619Y-99104819D02*
X126752381Y-99247676D01*
X126752381Y-99247676D02*
X126657143Y-99342914D01*
X126657143Y-99342914D02*
X126561905Y-99390533D01*
X127752381Y-99104819D02*
X127847619Y-99104819D01*
X127847619Y-99104819D02*
X127942857Y-99152438D01*
X127942857Y-99152438D02*
X127990476Y-99200057D01*
X127990476Y-99200057D02*
X128038095Y-99295295D01*
X128038095Y-99295295D02*
X128085714Y-99485771D01*
X128085714Y-99485771D02*
X128085714Y-99723866D01*
X128085714Y-99723866D02*
X128038095Y-99914342D01*
X128038095Y-99914342D02*
X127990476Y-100009580D01*
X127990476Y-100009580D02*
X127942857Y-100057200D01*
X127942857Y-100057200D02*
X127847619Y-100104819D01*
X127847619Y-100104819D02*
X127752381Y-100104819D01*
X127752381Y-100104819D02*
X127657143Y-100057200D01*
X127657143Y-100057200D02*
X127609524Y-100009580D01*
X127609524Y-100009580D02*
X127561905Y-99914342D01*
X127561905Y-99914342D02*
X127514286Y-99723866D01*
X127514286Y-99723866D02*
X127514286Y-99485771D01*
X127514286Y-99485771D02*
X127561905Y-99295295D01*
X127561905Y-99295295D02*
X127609524Y-99200057D01*
X127609524Y-99200057D02*
X127657143Y-99152438D01*
X127657143Y-99152438D02*
X127752381Y-99104819D01*
X128561905Y-100104819D02*
X128752381Y-100104819D01*
X128752381Y-100104819D02*
X128847619Y-100057200D01*
X128847619Y-100057200D02*
X128895238Y-100009580D01*
X128895238Y-100009580D02*
X128990476Y-99866723D01*
X128990476Y-99866723D02*
X129038095Y-99676247D01*
X129038095Y-99676247D02*
X129038095Y-99295295D01*
X129038095Y-99295295D02*
X128990476Y-99200057D01*
X128990476Y-99200057D02*
X128942857Y-99152438D01*
X128942857Y-99152438D02*
X128847619Y-99104819D01*
X128847619Y-99104819D02*
X128657143Y-99104819D01*
X128657143Y-99104819D02*
X128561905Y-99152438D01*
X128561905Y-99152438D02*
X128514286Y-99200057D01*
X128514286Y-99200057D02*
X128466667Y-99295295D01*
X128466667Y-99295295D02*
X128466667Y-99533390D01*
X128466667Y-99533390D02*
X128514286Y-99628628D01*
X128514286Y-99628628D02*
X128561905Y-99676247D01*
X128561905Y-99676247D02*
X128657143Y-99723866D01*
X128657143Y-99723866D02*
X128847619Y-99723866D01*
X128847619Y-99723866D02*
X128942857Y-99676247D01*
X128942857Y-99676247D02*
X128990476Y-99628628D01*
X128990476Y-99628628D02*
X129038095Y-99533390D01*
%TO.C,R115*%
X95354819Y-74619047D02*
X94878628Y-74952380D01*
X95354819Y-75190475D02*
X94354819Y-75190475D01*
X94354819Y-75190475D02*
X94354819Y-74809523D01*
X94354819Y-74809523D02*
X94402438Y-74714285D01*
X94402438Y-74714285D02*
X94450057Y-74666666D01*
X94450057Y-74666666D02*
X94545295Y-74619047D01*
X94545295Y-74619047D02*
X94688152Y-74619047D01*
X94688152Y-74619047D02*
X94783390Y-74666666D01*
X94783390Y-74666666D02*
X94831009Y-74714285D01*
X94831009Y-74714285D02*
X94878628Y-74809523D01*
X94878628Y-74809523D02*
X94878628Y-75190475D01*
X95354819Y-73666666D02*
X95354819Y-74238094D01*
X95354819Y-73952380D02*
X94354819Y-73952380D01*
X94354819Y-73952380D02*
X94497676Y-74047618D01*
X94497676Y-74047618D02*
X94592914Y-74142856D01*
X94592914Y-74142856D02*
X94640533Y-74238094D01*
X95354819Y-72714285D02*
X95354819Y-73285713D01*
X95354819Y-72999999D02*
X94354819Y-72999999D01*
X94354819Y-72999999D02*
X94497676Y-73095237D01*
X94497676Y-73095237D02*
X94592914Y-73190475D01*
X94592914Y-73190475D02*
X94640533Y-73285713D01*
X94354819Y-71809523D02*
X94354819Y-72285713D01*
X94354819Y-72285713D02*
X94831009Y-72333332D01*
X94831009Y-72333332D02*
X94783390Y-72285713D01*
X94783390Y-72285713D02*
X94735771Y-72190475D01*
X94735771Y-72190475D02*
X94735771Y-71952380D01*
X94735771Y-71952380D02*
X94783390Y-71857142D01*
X94783390Y-71857142D02*
X94831009Y-71809523D01*
X94831009Y-71809523D02*
X94926247Y-71761904D01*
X94926247Y-71761904D02*
X95164342Y-71761904D01*
X95164342Y-71761904D02*
X95259580Y-71809523D01*
X95259580Y-71809523D02*
X95307200Y-71857142D01*
X95307200Y-71857142D02*
X95354819Y-71952380D01*
X95354819Y-71952380D02*
X95354819Y-72190475D01*
X95354819Y-72190475D02*
X95307200Y-72285713D01*
X95307200Y-72285713D02*
X95259580Y-72333332D01*
%TO.C,J103*%
X92045180Y-80414285D02*
X91330895Y-80414285D01*
X91330895Y-80414285D02*
X91188038Y-80366666D01*
X91188038Y-80366666D02*
X91092800Y-80271428D01*
X91092800Y-80271428D02*
X91045180Y-80128571D01*
X91045180Y-80128571D02*
X91045180Y-80033333D01*
X91045180Y-81414285D02*
X91045180Y-80842857D01*
X91045180Y-81128571D02*
X92045180Y-81128571D01*
X92045180Y-81128571D02*
X91902323Y-81033333D01*
X91902323Y-81033333D02*
X91807085Y-80938095D01*
X91807085Y-80938095D02*
X91759466Y-80842857D01*
X92045180Y-82033333D02*
X92045180Y-82128571D01*
X92045180Y-82128571D02*
X91997561Y-82223809D01*
X91997561Y-82223809D02*
X91949942Y-82271428D01*
X91949942Y-82271428D02*
X91854704Y-82319047D01*
X91854704Y-82319047D02*
X91664228Y-82366666D01*
X91664228Y-82366666D02*
X91426133Y-82366666D01*
X91426133Y-82366666D02*
X91235657Y-82319047D01*
X91235657Y-82319047D02*
X91140419Y-82271428D01*
X91140419Y-82271428D02*
X91092800Y-82223809D01*
X91092800Y-82223809D02*
X91045180Y-82128571D01*
X91045180Y-82128571D02*
X91045180Y-82033333D01*
X91045180Y-82033333D02*
X91092800Y-81938095D01*
X91092800Y-81938095D02*
X91140419Y-81890476D01*
X91140419Y-81890476D02*
X91235657Y-81842857D01*
X91235657Y-81842857D02*
X91426133Y-81795238D01*
X91426133Y-81795238D02*
X91664228Y-81795238D01*
X91664228Y-81795238D02*
X91854704Y-81842857D01*
X91854704Y-81842857D02*
X91949942Y-81890476D01*
X91949942Y-81890476D02*
X91997561Y-81938095D01*
X91997561Y-81938095D02*
X92045180Y-82033333D01*
X92045180Y-82700000D02*
X92045180Y-83319047D01*
X92045180Y-83319047D02*
X91664228Y-82985714D01*
X91664228Y-82985714D02*
X91664228Y-83128571D01*
X91664228Y-83128571D02*
X91616609Y-83223809D01*
X91616609Y-83223809D02*
X91568990Y-83271428D01*
X91568990Y-83271428D02*
X91473752Y-83319047D01*
X91473752Y-83319047D02*
X91235657Y-83319047D01*
X91235657Y-83319047D02*
X91140419Y-83271428D01*
X91140419Y-83271428D02*
X91092800Y-83223809D01*
X91092800Y-83223809D02*
X91045180Y-83128571D01*
X91045180Y-83128571D02*
X91045180Y-82842857D01*
X91045180Y-82842857D02*
X91092800Y-82747619D01*
X91092800Y-82747619D02*
X91140419Y-82700000D01*
X95413871Y-84257143D02*
X95413871Y-83542857D01*
X95413871Y-83542857D02*
X94699585Y-83471429D01*
X94699585Y-83471429D02*
X94771014Y-83542857D01*
X94771014Y-83542857D02*
X94842442Y-83685715D01*
X94842442Y-83685715D02*
X94842442Y-84042857D01*
X94842442Y-84042857D02*
X94771014Y-84185715D01*
X94771014Y-84185715D02*
X94699585Y-84257143D01*
X94699585Y-84257143D02*
X94556728Y-84328572D01*
X94556728Y-84328572D02*
X94199585Y-84328572D01*
X94199585Y-84328572D02*
X94056728Y-84257143D01*
X94056728Y-84257143D02*
X93985300Y-84185715D01*
X93985300Y-84185715D02*
X93913871Y-84042857D01*
X93913871Y-84042857D02*
X93913871Y-83685715D01*
X93913871Y-83685715D02*
X93985300Y-83542857D01*
X93985300Y-83542857D02*
X94056728Y-83471429D01*
X94113871Y-80228572D02*
X94113871Y-79371429D01*
X94113871Y-79800000D02*
X95613871Y-79800000D01*
X95613871Y-79800000D02*
X95399585Y-79657143D01*
X95399585Y-79657143D02*
X95256728Y-79514286D01*
X95256728Y-79514286D02*
X95185300Y-79371429D01*
%TO.C,U101*%
X100154819Y-69714285D02*
X100964342Y-69714285D01*
X100964342Y-69714285D02*
X101059580Y-69666666D01*
X101059580Y-69666666D02*
X101107200Y-69619047D01*
X101107200Y-69619047D02*
X101154819Y-69523809D01*
X101154819Y-69523809D02*
X101154819Y-69333333D01*
X101154819Y-69333333D02*
X101107200Y-69238095D01*
X101107200Y-69238095D02*
X101059580Y-69190476D01*
X101059580Y-69190476D02*
X100964342Y-69142857D01*
X100964342Y-69142857D02*
X100154819Y-69142857D01*
X101154819Y-68142857D02*
X101154819Y-68714285D01*
X101154819Y-68428571D02*
X100154819Y-68428571D01*
X100154819Y-68428571D02*
X100297676Y-68523809D01*
X100297676Y-68523809D02*
X100392914Y-68619047D01*
X100392914Y-68619047D02*
X100440533Y-68714285D01*
X100154819Y-67523809D02*
X100154819Y-67428571D01*
X100154819Y-67428571D02*
X100202438Y-67333333D01*
X100202438Y-67333333D02*
X100250057Y-67285714D01*
X100250057Y-67285714D02*
X100345295Y-67238095D01*
X100345295Y-67238095D02*
X100535771Y-67190476D01*
X100535771Y-67190476D02*
X100773866Y-67190476D01*
X100773866Y-67190476D02*
X100964342Y-67238095D01*
X100964342Y-67238095D02*
X101059580Y-67285714D01*
X101059580Y-67285714D02*
X101107200Y-67333333D01*
X101107200Y-67333333D02*
X101154819Y-67428571D01*
X101154819Y-67428571D02*
X101154819Y-67523809D01*
X101154819Y-67523809D02*
X101107200Y-67619047D01*
X101107200Y-67619047D02*
X101059580Y-67666666D01*
X101059580Y-67666666D02*
X100964342Y-67714285D01*
X100964342Y-67714285D02*
X100773866Y-67761904D01*
X100773866Y-67761904D02*
X100535771Y-67761904D01*
X100535771Y-67761904D02*
X100345295Y-67714285D01*
X100345295Y-67714285D02*
X100250057Y-67666666D01*
X100250057Y-67666666D02*
X100202438Y-67619047D01*
X100202438Y-67619047D02*
X100154819Y-67523809D01*
X101154819Y-66238095D02*
X101154819Y-66809523D01*
X101154819Y-66523809D02*
X100154819Y-66523809D01*
X100154819Y-66523809D02*
X100297676Y-66619047D01*
X100297676Y-66619047D02*
X100392914Y-66714285D01*
X100392914Y-66714285D02*
X100440533Y-66809523D01*
%TO.C,J101*%
X113828570Y-116213871D02*
X113828570Y-115142442D01*
X113828570Y-115142442D02*
X113899999Y-114928157D01*
X113899999Y-114928157D02*
X114042856Y-114785300D01*
X114042856Y-114785300D02*
X114257142Y-114713871D01*
X114257142Y-114713871D02*
X114399999Y-114713871D01*
X112328570Y-114713871D02*
X113185713Y-114713871D01*
X112757142Y-114713871D02*
X112757142Y-116213871D01*
X112757142Y-116213871D02*
X112899999Y-115999585D01*
X112899999Y-115999585D02*
X113042856Y-115856728D01*
X113042856Y-115856728D02*
X113185713Y-115785300D01*
X111399999Y-116213871D02*
X111257142Y-116213871D01*
X111257142Y-116213871D02*
X111114285Y-116142442D01*
X111114285Y-116142442D02*
X111042857Y-116071014D01*
X111042857Y-116071014D02*
X110971428Y-115928157D01*
X110971428Y-115928157D02*
X110899999Y-115642442D01*
X110899999Y-115642442D02*
X110899999Y-115285300D01*
X110899999Y-115285300D02*
X110971428Y-114999585D01*
X110971428Y-114999585D02*
X111042857Y-114856728D01*
X111042857Y-114856728D02*
X111114285Y-114785300D01*
X111114285Y-114785300D02*
X111257142Y-114713871D01*
X111257142Y-114713871D02*
X111399999Y-114713871D01*
X111399999Y-114713871D02*
X111542857Y-114785300D01*
X111542857Y-114785300D02*
X111614285Y-114856728D01*
X111614285Y-114856728D02*
X111685714Y-114999585D01*
X111685714Y-114999585D02*
X111757142Y-115285300D01*
X111757142Y-115285300D02*
X111757142Y-115642442D01*
X111757142Y-115642442D02*
X111685714Y-115928157D01*
X111685714Y-115928157D02*
X111614285Y-116071014D01*
X111614285Y-116071014D02*
X111542857Y-116142442D01*
X111542857Y-116142442D02*
X111399999Y-116213871D01*
X109471428Y-114713871D02*
X110328571Y-114713871D01*
X109900000Y-114713871D02*
X109900000Y-116213871D01*
X109900000Y-116213871D02*
X110042857Y-115999585D01*
X110042857Y-115999585D02*
X110185714Y-115856728D01*
X110185714Y-115856728D02*
X110328571Y-115785300D01*
%TO.C,Q102*%
X98152380Y-58250057D02*
X98057142Y-58202438D01*
X98057142Y-58202438D02*
X97961904Y-58107200D01*
X97961904Y-58107200D02*
X97819047Y-57964342D01*
X97819047Y-57964342D02*
X97723809Y-57916723D01*
X97723809Y-57916723D02*
X97628571Y-57916723D01*
X97676190Y-58154819D02*
X97580952Y-58107200D01*
X97580952Y-58107200D02*
X97485714Y-58011961D01*
X97485714Y-58011961D02*
X97438095Y-57821485D01*
X97438095Y-57821485D02*
X97438095Y-57488152D01*
X97438095Y-57488152D02*
X97485714Y-57297676D01*
X97485714Y-57297676D02*
X97580952Y-57202438D01*
X97580952Y-57202438D02*
X97676190Y-57154819D01*
X97676190Y-57154819D02*
X97866666Y-57154819D01*
X97866666Y-57154819D02*
X97961904Y-57202438D01*
X97961904Y-57202438D02*
X98057142Y-57297676D01*
X98057142Y-57297676D02*
X98104761Y-57488152D01*
X98104761Y-57488152D02*
X98104761Y-57821485D01*
X98104761Y-57821485D02*
X98057142Y-58011961D01*
X98057142Y-58011961D02*
X97961904Y-58107200D01*
X97961904Y-58107200D02*
X97866666Y-58154819D01*
X97866666Y-58154819D02*
X97676190Y-58154819D01*
X99057142Y-58154819D02*
X98485714Y-58154819D01*
X98771428Y-58154819D02*
X98771428Y-57154819D01*
X98771428Y-57154819D02*
X98676190Y-57297676D01*
X98676190Y-57297676D02*
X98580952Y-57392914D01*
X98580952Y-57392914D02*
X98485714Y-57440533D01*
X99676190Y-57154819D02*
X99771428Y-57154819D01*
X99771428Y-57154819D02*
X99866666Y-57202438D01*
X99866666Y-57202438D02*
X99914285Y-57250057D01*
X99914285Y-57250057D02*
X99961904Y-57345295D01*
X99961904Y-57345295D02*
X100009523Y-57535771D01*
X100009523Y-57535771D02*
X100009523Y-57773866D01*
X100009523Y-57773866D02*
X99961904Y-57964342D01*
X99961904Y-57964342D02*
X99914285Y-58059580D01*
X99914285Y-58059580D02*
X99866666Y-58107200D01*
X99866666Y-58107200D02*
X99771428Y-58154819D01*
X99771428Y-58154819D02*
X99676190Y-58154819D01*
X99676190Y-58154819D02*
X99580952Y-58107200D01*
X99580952Y-58107200D02*
X99533333Y-58059580D01*
X99533333Y-58059580D02*
X99485714Y-57964342D01*
X99485714Y-57964342D02*
X99438095Y-57773866D01*
X99438095Y-57773866D02*
X99438095Y-57535771D01*
X99438095Y-57535771D02*
X99485714Y-57345295D01*
X99485714Y-57345295D02*
X99533333Y-57250057D01*
X99533333Y-57250057D02*
X99580952Y-57202438D01*
X99580952Y-57202438D02*
X99676190Y-57154819D01*
X100390476Y-57250057D02*
X100438095Y-57202438D01*
X100438095Y-57202438D02*
X100533333Y-57154819D01*
X100533333Y-57154819D02*
X100771428Y-57154819D01*
X100771428Y-57154819D02*
X100866666Y-57202438D01*
X100866666Y-57202438D02*
X100914285Y-57250057D01*
X100914285Y-57250057D02*
X100961904Y-57345295D01*
X100961904Y-57345295D02*
X100961904Y-57440533D01*
X100961904Y-57440533D02*
X100914285Y-57583390D01*
X100914285Y-57583390D02*
X100342857Y-58154819D01*
X100342857Y-58154819D02*
X100961904Y-58154819D01*
%TO.C,R103*%
X130854819Y-74319047D02*
X130378628Y-74652380D01*
X130854819Y-74890475D02*
X129854819Y-74890475D01*
X129854819Y-74890475D02*
X129854819Y-74509523D01*
X129854819Y-74509523D02*
X129902438Y-74414285D01*
X129902438Y-74414285D02*
X129950057Y-74366666D01*
X129950057Y-74366666D02*
X130045295Y-74319047D01*
X130045295Y-74319047D02*
X130188152Y-74319047D01*
X130188152Y-74319047D02*
X130283390Y-74366666D01*
X130283390Y-74366666D02*
X130331009Y-74414285D01*
X130331009Y-74414285D02*
X130378628Y-74509523D01*
X130378628Y-74509523D02*
X130378628Y-74890475D01*
X130854819Y-73366666D02*
X130854819Y-73938094D01*
X130854819Y-73652380D02*
X129854819Y-73652380D01*
X129854819Y-73652380D02*
X129997676Y-73747618D01*
X129997676Y-73747618D02*
X130092914Y-73842856D01*
X130092914Y-73842856D02*
X130140533Y-73938094D01*
X129854819Y-72747618D02*
X129854819Y-72652380D01*
X129854819Y-72652380D02*
X129902438Y-72557142D01*
X129902438Y-72557142D02*
X129950057Y-72509523D01*
X129950057Y-72509523D02*
X130045295Y-72461904D01*
X130045295Y-72461904D02*
X130235771Y-72414285D01*
X130235771Y-72414285D02*
X130473866Y-72414285D01*
X130473866Y-72414285D02*
X130664342Y-72461904D01*
X130664342Y-72461904D02*
X130759580Y-72509523D01*
X130759580Y-72509523D02*
X130807200Y-72557142D01*
X130807200Y-72557142D02*
X130854819Y-72652380D01*
X130854819Y-72652380D02*
X130854819Y-72747618D01*
X130854819Y-72747618D02*
X130807200Y-72842856D01*
X130807200Y-72842856D02*
X130759580Y-72890475D01*
X130759580Y-72890475D02*
X130664342Y-72938094D01*
X130664342Y-72938094D02*
X130473866Y-72985713D01*
X130473866Y-72985713D02*
X130235771Y-72985713D01*
X130235771Y-72985713D02*
X130045295Y-72938094D01*
X130045295Y-72938094D02*
X129950057Y-72890475D01*
X129950057Y-72890475D02*
X129902438Y-72842856D01*
X129902438Y-72842856D02*
X129854819Y-72747618D01*
X129854819Y-72080951D02*
X129854819Y-71461904D01*
X129854819Y-71461904D02*
X130235771Y-71795237D01*
X130235771Y-71795237D02*
X130235771Y-71652380D01*
X130235771Y-71652380D02*
X130283390Y-71557142D01*
X130283390Y-71557142D02*
X130331009Y-71509523D01*
X130331009Y-71509523D02*
X130426247Y-71461904D01*
X130426247Y-71461904D02*
X130664342Y-71461904D01*
X130664342Y-71461904D02*
X130759580Y-71509523D01*
X130759580Y-71509523D02*
X130807200Y-71557142D01*
X130807200Y-71557142D02*
X130854819Y-71652380D01*
X130854819Y-71652380D02*
X130854819Y-71938094D01*
X130854819Y-71938094D02*
X130807200Y-72033332D01*
X130807200Y-72033332D02*
X130759580Y-72080951D01*
%TO.C,C108*%
X130580952Y-99979580D02*
X130533333Y-100027200D01*
X130533333Y-100027200D02*
X130390476Y-100074819D01*
X130390476Y-100074819D02*
X130295238Y-100074819D01*
X130295238Y-100074819D02*
X130152381Y-100027200D01*
X130152381Y-100027200D02*
X130057143Y-99931961D01*
X130057143Y-99931961D02*
X130009524Y-99836723D01*
X130009524Y-99836723D02*
X129961905Y-99646247D01*
X129961905Y-99646247D02*
X129961905Y-99503390D01*
X129961905Y-99503390D02*
X130009524Y-99312914D01*
X130009524Y-99312914D02*
X130057143Y-99217676D01*
X130057143Y-99217676D02*
X130152381Y-99122438D01*
X130152381Y-99122438D02*
X130295238Y-99074819D01*
X130295238Y-99074819D02*
X130390476Y-99074819D01*
X130390476Y-99074819D02*
X130533333Y-99122438D01*
X130533333Y-99122438D02*
X130580952Y-99170057D01*
X131533333Y-100074819D02*
X130961905Y-100074819D01*
X131247619Y-100074819D02*
X131247619Y-99074819D01*
X131247619Y-99074819D02*
X131152381Y-99217676D01*
X131152381Y-99217676D02*
X131057143Y-99312914D01*
X131057143Y-99312914D02*
X130961905Y-99360533D01*
X132152381Y-99074819D02*
X132247619Y-99074819D01*
X132247619Y-99074819D02*
X132342857Y-99122438D01*
X132342857Y-99122438D02*
X132390476Y-99170057D01*
X132390476Y-99170057D02*
X132438095Y-99265295D01*
X132438095Y-99265295D02*
X132485714Y-99455771D01*
X132485714Y-99455771D02*
X132485714Y-99693866D01*
X132485714Y-99693866D02*
X132438095Y-99884342D01*
X132438095Y-99884342D02*
X132390476Y-99979580D01*
X132390476Y-99979580D02*
X132342857Y-100027200D01*
X132342857Y-100027200D02*
X132247619Y-100074819D01*
X132247619Y-100074819D02*
X132152381Y-100074819D01*
X132152381Y-100074819D02*
X132057143Y-100027200D01*
X132057143Y-100027200D02*
X132009524Y-99979580D01*
X132009524Y-99979580D02*
X131961905Y-99884342D01*
X131961905Y-99884342D02*
X131914286Y-99693866D01*
X131914286Y-99693866D02*
X131914286Y-99455771D01*
X131914286Y-99455771D02*
X131961905Y-99265295D01*
X131961905Y-99265295D02*
X132009524Y-99170057D01*
X132009524Y-99170057D02*
X132057143Y-99122438D01*
X132057143Y-99122438D02*
X132152381Y-99074819D01*
X133057143Y-99503390D02*
X132961905Y-99455771D01*
X132961905Y-99455771D02*
X132914286Y-99408152D01*
X132914286Y-99408152D02*
X132866667Y-99312914D01*
X132866667Y-99312914D02*
X132866667Y-99265295D01*
X132866667Y-99265295D02*
X132914286Y-99170057D01*
X132914286Y-99170057D02*
X132961905Y-99122438D01*
X132961905Y-99122438D02*
X133057143Y-99074819D01*
X133057143Y-99074819D02*
X133247619Y-99074819D01*
X133247619Y-99074819D02*
X133342857Y-99122438D01*
X133342857Y-99122438D02*
X133390476Y-99170057D01*
X133390476Y-99170057D02*
X133438095Y-99265295D01*
X133438095Y-99265295D02*
X133438095Y-99312914D01*
X133438095Y-99312914D02*
X133390476Y-99408152D01*
X133390476Y-99408152D02*
X133342857Y-99455771D01*
X133342857Y-99455771D02*
X133247619Y-99503390D01*
X133247619Y-99503390D02*
X133057143Y-99503390D01*
X133057143Y-99503390D02*
X132961905Y-99551009D01*
X132961905Y-99551009D02*
X132914286Y-99598628D01*
X132914286Y-99598628D02*
X132866667Y-99693866D01*
X132866667Y-99693866D02*
X132866667Y-99884342D01*
X132866667Y-99884342D02*
X132914286Y-99979580D01*
X132914286Y-99979580D02*
X132961905Y-100027200D01*
X132961905Y-100027200D02*
X133057143Y-100074819D01*
X133057143Y-100074819D02*
X133247619Y-100074819D01*
X133247619Y-100074819D02*
X133342857Y-100027200D01*
X133342857Y-100027200D02*
X133390476Y-99979580D01*
X133390476Y-99979580D02*
X133438095Y-99884342D01*
X133438095Y-99884342D02*
X133438095Y-99693866D01*
X133438095Y-99693866D02*
X133390476Y-99598628D01*
X133390476Y-99598628D02*
X133342857Y-99551009D01*
X133342857Y-99551009D02*
X133247619Y-99503390D01*
%TO.C,SW102*%
X133710588Y-105519819D02*
X133139160Y-105519819D01*
X133424874Y-105519819D02*
X133424874Y-104519819D01*
X133424874Y-104519819D02*
X133329636Y-104662676D01*
X133329636Y-104662676D02*
X133234398Y-104757914D01*
X133234398Y-104757914D02*
X133139160Y-104805533D01*
%TO.C,FB101*%
X103339285Y-59168509D02*
X103005952Y-59168509D01*
X103005952Y-59692319D02*
X103005952Y-58692319D01*
X103005952Y-58692319D02*
X103482142Y-58692319D01*
X104196428Y-59168509D02*
X104339285Y-59216128D01*
X104339285Y-59216128D02*
X104386904Y-59263747D01*
X104386904Y-59263747D02*
X104434523Y-59358985D01*
X104434523Y-59358985D02*
X104434523Y-59501842D01*
X104434523Y-59501842D02*
X104386904Y-59597080D01*
X104386904Y-59597080D02*
X104339285Y-59644700D01*
X104339285Y-59644700D02*
X104244047Y-59692319D01*
X104244047Y-59692319D02*
X103863095Y-59692319D01*
X103863095Y-59692319D02*
X103863095Y-58692319D01*
X103863095Y-58692319D02*
X104196428Y-58692319D01*
X104196428Y-58692319D02*
X104291666Y-58739938D01*
X104291666Y-58739938D02*
X104339285Y-58787557D01*
X104339285Y-58787557D02*
X104386904Y-58882795D01*
X104386904Y-58882795D02*
X104386904Y-58978033D01*
X104386904Y-58978033D02*
X104339285Y-59073271D01*
X104339285Y-59073271D02*
X104291666Y-59120890D01*
X104291666Y-59120890D02*
X104196428Y-59168509D01*
X104196428Y-59168509D02*
X103863095Y-59168509D01*
X105386904Y-59692319D02*
X104815476Y-59692319D01*
X105101190Y-59692319D02*
X105101190Y-58692319D01*
X105101190Y-58692319D02*
X105005952Y-58835176D01*
X105005952Y-58835176D02*
X104910714Y-58930414D01*
X104910714Y-58930414D02*
X104815476Y-58978033D01*
X106005952Y-58692319D02*
X106101190Y-58692319D01*
X106101190Y-58692319D02*
X106196428Y-58739938D01*
X106196428Y-58739938D02*
X106244047Y-58787557D01*
X106244047Y-58787557D02*
X106291666Y-58882795D01*
X106291666Y-58882795D02*
X106339285Y-59073271D01*
X106339285Y-59073271D02*
X106339285Y-59311366D01*
X106339285Y-59311366D02*
X106291666Y-59501842D01*
X106291666Y-59501842D02*
X106244047Y-59597080D01*
X106244047Y-59597080D02*
X106196428Y-59644700D01*
X106196428Y-59644700D02*
X106101190Y-59692319D01*
X106101190Y-59692319D02*
X106005952Y-59692319D01*
X106005952Y-59692319D02*
X105910714Y-59644700D01*
X105910714Y-59644700D02*
X105863095Y-59597080D01*
X105863095Y-59597080D02*
X105815476Y-59501842D01*
X105815476Y-59501842D02*
X105767857Y-59311366D01*
X105767857Y-59311366D02*
X105767857Y-59073271D01*
X105767857Y-59073271D02*
X105815476Y-58882795D01*
X105815476Y-58882795D02*
X105863095Y-58787557D01*
X105863095Y-58787557D02*
X105910714Y-58739938D01*
X105910714Y-58739938D02*
X106005952Y-58692319D01*
X107291666Y-59692319D02*
X106720238Y-59692319D01*
X107005952Y-59692319D02*
X107005952Y-58692319D01*
X107005952Y-58692319D02*
X106910714Y-58835176D01*
X106910714Y-58835176D02*
X106815476Y-58930414D01*
X106815476Y-58930414D02*
X106720238Y-58978033D01*
%TO.C,D105*%
X99609524Y-65654819D02*
X99609524Y-64654819D01*
X99609524Y-64654819D02*
X99847619Y-64654819D01*
X99847619Y-64654819D02*
X99990476Y-64702438D01*
X99990476Y-64702438D02*
X100085714Y-64797676D01*
X100085714Y-64797676D02*
X100133333Y-64892914D01*
X100133333Y-64892914D02*
X100180952Y-65083390D01*
X100180952Y-65083390D02*
X100180952Y-65226247D01*
X100180952Y-65226247D02*
X100133333Y-65416723D01*
X100133333Y-65416723D02*
X100085714Y-65511961D01*
X100085714Y-65511961D02*
X99990476Y-65607200D01*
X99990476Y-65607200D02*
X99847619Y-65654819D01*
X99847619Y-65654819D02*
X99609524Y-65654819D01*
X101133333Y-65654819D02*
X100561905Y-65654819D01*
X100847619Y-65654819D02*
X100847619Y-64654819D01*
X100847619Y-64654819D02*
X100752381Y-64797676D01*
X100752381Y-64797676D02*
X100657143Y-64892914D01*
X100657143Y-64892914D02*
X100561905Y-64940533D01*
X101752381Y-64654819D02*
X101847619Y-64654819D01*
X101847619Y-64654819D02*
X101942857Y-64702438D01*
X101942857Y-64702438D02*
X101990476Y-64750057D01*
X101990476Y-64750057D02*
X102038095Y-64845295D01*
X102038095Y-64845295D02*
X102085714Y-65035771D01*
X102085714Y-65035771D02*
X102085714Y-65273866D01*
X102085714Y-65273866D02*
X102038095Y-65464342D01*
X102038095Y-65464342D02*
X101990476Y-65559580D01*
X101990476Y-65559580D02*
X101942857Y-65607200D01*
X101942857Y-65607200D02*
X101847619Y-65654819D01*
X101847619Y-65654819D02*
X101752381Y-65654819D01*
X101752381Y-65654819D02*
X101657143Y-65607200D01*
X101657143Y-65607200D02*
X101609524Y-65559580D01*
X101609524Y-65559580D02*
X101561905Y-65464342D01*
X101561905Y-65464342D02*
X101514286Y-65273866D01*
X101514286Y-65273866D02*
X101514286Y-65035771D01*
X101514286Y-65035771D02*
X101561905Y-64845295D01*
X101561905Y-64845295D02*
X101609524Y-64750057D01*
X101609524Y-64750057D02*
X101657143Y-64702438D01*
X101657143Y-64702438D02*
X101752381Y-64654819D01*
X102990476Y-64654819D02*
X102514286Y-64654819D01*
X102514286Y-64654819D02*
X102466667Y-65131009D01*
X102466667Y-65131009D02*
X102514286Y-65083390D01*
X102514286Y-65083390D02*
X102609524Y-65035771D01*
X102609524Y-65035771D02*
X102847619Y-65035771D01*
X102847619Y-65035771D02*
X102942857Y-65083390D01*
X102942857Y-65083390D02*
X102990476Y-65131009D01*
X102990476Y-65131009D02*
X103038095Y-65226247D01*
X103038095Y-65226247D02*
X103038095Y-65464342D01*
X103038095Y-65464342D02*
X102990476Y-65559580D01*
X102990476Y-65559580D02*
X102942857Y-65607200D01*
X102942857Y-65607200D02*
X102847619Y-65654819D01*
X102847619Y-65654819D02*
X102609524Y-65654819D01*
X102609524Y-65654819D02*
X102514286Y-65607200D01*
X102514286Y-65607200D02*
X102466667Y-65559580D01*
%TO.C,J102*%
X96629819Y-94285714D02*
X97344104Y-94285714D01*
X97344104Y-94285714D02*
X97486961Y-94333333D01*
X97486961Y-94333333D02*
X97582200Y-94428571D01*
X97582200Y-94428571D02*
X97629819Y-94571428D01*
X97629819Y-94571428D02*
X97629819Y-94666666D01*
X97629819Y-93285714D02*
X97629819Y-93857142D01*
X97629819Y-93571428D02*
X96629819Y-93571428D01*
X96629819Y-93571428D02*
X96772676Y-93666666D01*
X96772676Y-93666666D02*
X96867914Y-93761904D01*
X96867914Y-93761904D02*
X96915533Y-93857142D01*
X96629819Y-92666666D02*
X96629819Y-92571428D01*
X96629819Y-92571428D02*
X96677438Y-92476190D01*
X96677438Y-92476190D02*
X96725057Y-92428571D01*
X96725057Y-92428571D02*
X96820295Y-92380952D01*
X96820295Y-92380952D02*
X97010771Y-92333333D01*
X97010771Y-92333333D02*
X97248866Y-92333333D01*
X97248866Y-92333333D02*
X97439342Y-92380952D01*
X97439342Y-92380952D02*
X97534580Y-92428571D01*
X97534580Y-92428571D02*
X97582200Y-92476190D01*
X97582200Y-92476190D02*
X97629819Y-92571428D01*
X97629819Y-92571428D02*
X97629819Y-92666666D01*
X97629819Y-92666666D02*
X97582200Y-92761904D01*
X97582200Y-92761904D02*
X97534580Y-92809523D01*
X97534580Y-92809523D02*
X97439342Y-92857142D01*
X97439342Y-92857142D02*
X97248866Y-92904761D01*
X97248866Y-92904761D02*
X97010771Y-92904761D01*
X97010771Y-92904761D02*
X96820295Y-92857142D01*
X96820295Y-92857142D02*
X96725057Y-92809523D01*
X96725057Y-92809523D02*
X96677438Y-92761904D01*
X96677438Y-92761904D02*
X96629819Y-92666666D01*
X96725057Y-91952380D02*
X96677438Y-91904761D01*
X96677438Y-91904761D02*
X96629819Y-91809523D01*
X96629819Y-91809523D02*
X96629819Y-91571428D01*
X96629819Y-91571428D02*
X96677438Y-91476190D01*
X96677438Y-91476190D02*
X96725057Y-91428571D01*
X96725057Y-91428571D02*
X96820295Y-91380952D01*
X96820295Y-91380952D02*
X96915533Y-91380952D01*
X96915533Y-91380952D02*
X97058390Y-91428571D01*
X97058390Y-91428571D02*
X97629819Y-91999999D01*
X97629819Y-91999999D02*
X97629819Y-91380952D01*
%TO.C,C104*%
X118439580Y-62719047D02*
X118487200Y-62766666D01*
X118487200Y-62766666D02*
X118534819Y-62909523D01*
X118534819Y-62909523D02*
X118534819Y-63004761D01*
X118534819Y-63004761D02*
X118487200Y-63147618D01*
X118487200Y-63147618D02*
X118391961Y-63242856D01*
X118391961Y-63242856D02*
X118296723Y-63290475D01*
X118296723Y-63290475D02*
X118106247Y-63338094D01*
X118106247Y-63338094D02*
X117963390Y-63338094D01*
X117963390Y-63338094D02*
X117772914Y-63290475D01*
X117772914Y-63290475D02*
X117677676Y-63242856D01*
X117677676Y-63242856D02*
X117582438Y-63147618D01*
X117582438Y-63147618D02*
X117534819Y-63004761D01*
X117534819Y-63004761D02*
X117534819Y-62909523D01*
X117534819Y-62909523D02*
X117582438Y-62766666D01*
X117582438Y-62766666D02*
X117630057Y-62719047D01*
X118534819Y-61766666D02*
X118534819Y-62338094D01*
X118534819Y-62052380D02*
X117534819Y-62052380D01*
X117534819Y-62052380D02*
X117677676Y-62147618D01*
X117677676Y-62147618D02*
X117772914Y-62242856D01*
X117772914Y-62242856D02*
X117820533Y-62338094D01*
X117534819Y-61147618D02*
X117534819Y-61052380D01*
X117534819Y-61052380D02*
X117582438Y-60957142D01*
X117582438Y-60957142D02*
X117630057Y-60909523D01*
X117630057Y-60909523D02*
X117725295Y-60861904D01*
X117725295Y-60861904D02*
X117915771Y-60814285D01*
X117915771Y-60814285D02*
X118153866Y-60814285D01*
X118153866Y-60814285D02*
X118344342Y-60861904D01*
X118344342Y-60861904D02*
X118439580Y-60909523D01*
X118439580Y-60909523D02*
X118487200Y-60957142D01*
X118487200Y-60957142D02*
X118534819Y-61052380D01*
X118534819Y-61052380D02*
X118534819Y-61147618D01*
X118534819Y-61147618D02*
X118487200Y-61242856D01*
X118487200Y-61242856D02*
X118439580Y-61290475D01*
X118439580Y-61290475D02*
X118344342Y-61338094D01*
X118344342Y-61338094D02*
X118153866Y-61385713D01*
X118153866Y-61385713D02*
X117915771Y-61385713D01*
X117915771Y-61385713D02*
X117725295Y-61338094D01*
X117725295Y-61338094D02*
X117630057Y-61290475D01*
X117630057Y-61290475D02*
X117582438Y-61242856D01*
X117582438Y-61242856D02*
X117534819Y-61147618D01*
X117868152Y-59957142D02*
X118534819Y-59957142D01*
X117487200Y-60195237D02*
X118201485Y-60433332D01*
X118201485Y-60433332D02*
X118201485Y-59814285D01*
%TO.C,R106*%
X119780952Y-66804819D02*
X119447619Y-66328628D01*
X119209524Y-66804819D02*
X119209524Y-65804819D01*
X119209524Y-65804819D02*
X119590476Y-65804819D01*
X119590476Y-65804819D02*
X119685714Y-65852438D01*
X119685714Y-65852438D02*
X119733333Y-65900057D01*
X119733333Y-65900057D02*
X119780952Y-65995295D01*
X119780952Y-65995295D02*
X119780952Y-66138152D01*
X119780952Y-66138152D02*
X119733333Y-66233390D01*
X119733333Y-66233390D02*
X119685714Y-66281009D01*
X119685714Y-66281009D02*
X119590476Y-66328628D01*
X119590476Y-66328628D02*
X119209524Y-66328628D01*
X120733333Y-66804819D02*
X120161905Y-66804819D01*
X120447619Y-66804819D02*
X120447619Y-65804819D01*
X120447619Y-65804819D02*
X120352381Y-65947676D01*
X120352381Y-65947676D02*
X120257143Y-66042914D01*
X120257143Y-66042914D02*
X120161905Y-66090533D01*
X121352381Y-65804819D02*
X121447619Y-65804819D01*
X121447619Y-65804819D02*
X121542857Y-65852438D01*
X121542857Y-65852438D02*
X121590476Y-65900057D01*
X121590476Y-65900057D02*
X121638095Y-65995295D01*
X121638095Y-65995295D02*
X121685714Y-66185771D01*
X121685714Y-66185771D02*
X121685714Y-66423866D01*
X121685714Y-66423866D02*
X121638095Y-66614342D01*
X121638095Y-66614342D02*
X121590476Y-66709580D01*
X121590476Y-66709580D02*
X121542857Y-66757200D01*
X121542857Y-66757200D02*
X121447619Y-66804819D01*
X121447619Y-66804819D02*
X121352381Y-66804819D01*
X121352381Y-66804819D02*
X121257143Y-66757200D01*
X121257143Y-66757200D02*
X121209524Y-66709580D01*
X121209524Y-66709580D02*
X121161905Y-66614342D01*
X121161905Y-66614342D02*
X121114286Y-66423866D01*
X121114286Y-66423866D02*
X121114286Y-66185771D01*
X121114286Y-66185771D02*
X121161905Y-65995295D01*
X121161905Y-65995295D02*
X121209524Y-65900057D01*
X121209524Y-65900057D02*
X121257143Y-65852438D01*
X121257143Y-65852438D02*
X121352381Y-65804819D01*
X122542857Y-65804819D02*
X122352381Y-65804819D01*
X122352381Y-65804819D02*
X122257143Y-65852438D01*
X122257143Y-65852438D02*
X122209524Y-65900057D01*
X122209524Y-65900057D02*
X122114286Y-66042914D01*
X122114286Y-66042914D02*
X122066667Y-66233390D01*
X122066667Y-66233390D02*
X122066667Y-66614342D01*
X122066667Y-66614342D02*
X122114286Y-66709580D01*
X122114286Y-66709580D02*
X122161905Y-66757200D01*
X122161905Y-66757200D02*
X122257143Y-66804819D01*
X122257143Y-66804819D02*
X122447619Y-66804819D01*
X122447619Y-66804819D02*
X122542857Y-66757200D01*
X122542857Y-66757200D02*
X122590476Y-66709580D01*
X122590476Y-66709580D02*
X122638095Y-66614342D01*
X122638095Y-66614342D02*
X122638095Y-66376247D01*
X122638095Y-66376247D02*
X122590476Y-66281009D01*
X122590476Y-66281009D02*
X122542857Y-66233390D01*
X122542857Y-66233390D02*
X122447619Y-66185771D01*
X122447619Y-66185771D02*
X122257143Y-66185771D01*
X122257143Y-66185771D02*
X122161905Y-66233390D01*
X122161905Y-66233390D02*
X122114286Y-66281009D01*
X122114286Y-66281009D02*
X122066667Y-66376247D01*
%TO.C,C102*%
X106639580Y-64819047D02*
X106687200Y-64866666D01*
X106687200Y-64866666D02*
X106734819Y-65009523D01*
X106734819Y-65009523D02*
X106734819Y-65104761D01*
X106734819Y-65104761D02*
X106687200Y-65247618D01*
X106687200Y-65247618D02*
X106591961Y-65342856D01*
X106591961Y-65342856D02*
X106496723Y-65390475D01*
X106496723Y-65390475D02*
X106306247Y-65438094D01*
X106306247Y-65438094D02*
X106163390Y-65438094D01*
X106163390Y-65438094D02*
X105972914Y-65390475D01*
X105972914Y-65390475D02*
X105877676Y-65342856D01*
X105877676Y-65342856D02*
X105782438Y-65247618D01*
X105782438Y-65247618D02*
X105734819Y-65104761D01*
X105734819Y-65104761D02*
X105734819Y-65009523D01*
X105734819Y-65009523D02*
X105782438Y-64866666D01*
X105782438Y-64866666D02*
X105830057Y-64819047D01*
X106734819Y-63866666D02*
X106734819Y-64438094D01*
X106734819Y-64152380D02*
X105734819Y-64152380D01*
X105734819Y-64152380D02*
X105877676Y-64247618D01*
X105877676Y-64247618D02*
X105972914Y-64342856D01*
X105972914Y-64342856D02*
X106020533Y-64438094D01*
X105734819Y-63247618D02*
X105734819Y-63152380D01*
X105734819Y-63152380D02*
X105782438Y-63057142D01*
X105782438Y-63057142D02*
X105830057Y-63009523D01*
X105830057Y-63009523D02*
X105925295Y-62961904D01*
X105925295Y-62961904D02*
X106115771Y-62914285D01*
X106115771Y-62914285D02*
X106353866Y-62914285D01*
X106353866Y-62914285D02*
X106544342Y-62961904D01*
X106544342Y-62961904D02*
X106639580Y-63009523D01*
X106639580Y-63009523D02*
X106687200Y-63057142D01*
X106687200Y-63057142D02*
X106734819Y-63152380D01*
X106734819Y-63152380D02*
X106734819Y-63247618D01*
X106734819Y-63247618D02*
X106687200Y-63342856D01*
X106687200Y-63342856D02*
X106639580Y-63390475D01*
X106639580Y-63390475D02*
X106544342Y-63438094D01*
X106544342Y-63438094D02*
X106353866Y-63485713D01*
X106353866Y-63485713D02*
X106115771Y-63485713D01*
X106115771Y-63485713D02*
X105925295Y-63438094D01*
X105925295Y-63438094D02*
X105830057Y-63390475D01*
X105830057Y-63390475D02*
X105782438Y-63342856D01*
X105782438Y-63342856D02*
X105734819Y-63247618D01*
X105830057Y-62533332D02*
X105782438Y-62485713D01*
X105782438Y-62485713D02*
X105734819Y-62390475D01*
X105734819Y-62390475D02*
X105734819Y-62152380D01*
X105734819Y-62152380D02*
X105782438Y-62057142D01*
X105782438Y-62057142D02*
X105830057Y-62009523D01*
X105830057Y-62009523D02*
X105925295Y-61961904D01*
X105925295Y-61961904D02*
X106020533Y-61961904D01*
X106020533Y-61961904D02*
X106163390Y-62009523D01*
X106163390Y-62009523D02*
X106734819Y-62580951D01*
X106734819Y-62580951D02*
X106734819Y-61961904D01*
%TO.C,R112*%
X105680952Y-69654819D02*
X105347619Y-69178628D01*
X105109524Y-69654819D02*
X105109524Y-68654819D01*
X105109524Y-68654819D02*
X105490476Y-68654819D01*
X105490476Y-68654819D02*
X105585714Y-68702438D01*
X105585714Y-68702438D02*
X105633333Y-68750057D01*
X105633333Y-68750057D02*
X105680952Y-68845295D01*
X105680952Y-68845295D02*
X105680952Y-68988152D01*
X105680952Y-68988152D02*
X105633333Y-69083390D01*
X105633333Y-69083390D02*
X105585714Y-69131009D01*
X105585714Y-69131009D02*
X105490476Y-69178628D01*
X105490476Y-69178628D02*
X105109524Y-69178628D01*
X106633333Y-69654819D02*
X106061905Y-69654819D01*
X106347619Y-69654819D02*
X106347619Y-68654819D01*
X106347619Y-68654819D02*
X106252381Y-68797676D01*
X106252381Y-68797676D02*
X106157143Y-68892914D01*
X106157143Y-68892914D02*
X106061905Y-68940533D01*
X107585714Y-69654819D02*
X107014286Y-69654819D01*
X107300000Y-69654819D02*
X107300000Y-68654819D01*
X107300000Y-68654819D02*
X107204762Y-68797676D01*
X107204762Y-68797676D02*
X107109524Y-68892914D01*
X107109524Y-68892914D02*
X107014286Y-68940533D01*
X107966667Y-68750057D02*
X108014286Y-68702438D01*
X108014286Y-68702438D02*
X108109524Y-68654819D01*
X108109524Y-68654819D02*
X108347619Y-68654819D01*
X108347619Y-68654819D02*
X108442857Y-68702438D01*
X108442857Y-68702438D02*
X108490476Y-68750057D01*
X108490476Y-68750057D02*
X108538095Y-68845295D01*
X108538095Y-68845295D02*
X108538095Y-68940533D01*
X108538095Y-68940533D02*
X108490476Y-69083390D01*
X108490476Y-69083390D02*
X107919048Y-69654819D01*
X107919048Y-69654819D02*
X108538095Y-69654819D01*
%TO.C,U104*%
X119148214Y-58604819D02*
X119148214Y-59414342D01*
X119148214Y-59414342D02*
X119195833Y-59509580D01*
X119195833Y-59509580D02*
X119243452Y-59557200D01*
X119243452Y-59557200D02*
X119338690Y-59604819D01*
X119338690Y-59604819D02*
X119529166Y-59604819D01*
X119529166Y-59604819D02*
X119624404Y-59557200D01*
X119624404Y-59557200D02*
X119672023Y-59509580D01*
X119672023Y-59509580D02*
X119719642Y-59414342D01*
X119719642Y-59414342D02*
X119719642Y-58604819D01*
X120719642Y-59604819D02*
X120148214Y-59604819D01*
X120433928Y-59604819D02*
X120433928Y-58604819D01*
X120433928Y-58604819D02*
X120338690Y-58747676D01*
X120338690Y-58747676D02*
X120243452Y-58842914D01*
X120243452Y-58842914D02*
X120148214Y-58890533D01*
X121338690Y-58604819D02*
X121433928Y-58604819D01*
X121433928Y-58604819D02*
X121529166Y-58652438D01*
X121529166Y-58652438D02*
X121576785Y-58700057D01*
X121576785Y-58700057D02*
X121624404Y-58795295D01*
X121624404Y-58795295D02*
X121672023Y-58985771D01*
X121672023Y-58985771D02*
X121672023Y-59223866D01*
X121672023Y-59223866D02*
X121624404Y-59414342D01*
X121624404Y-59414342D02*
X121576785Y-59509580D01*
X121576785Y-59509580D02*
X121529166Y-59557200D01*
X121529166Y-59557200D02*
X121433928Y-59604819D01*
X121433928Y-59604819D02*
X121338690Y-59604819D01*
X121338690Y-59604819D02*
X121243452Y-59557200D01*
X121243452Y-59557200D02*
X121195833Y-59509580D01*
X121195833Y-59509580D02*
X121148214Y-59414342D01*
X121148214Y-59414342D02*
X121100595Y-59223866D01*
X121100595Y-59223866D02*
X121100595Y-58985771D01*
X121100595Y-58985771D02*
X121148214Y-58795295D01*
X121148214Y-58795295D02*
X121195833Y-58700057D01*
X121195833Y-58700057D02*
X121243452Y-58652438D01*
X121243452Y-58652438D02*
X121338690Y-58604819D01*
X122529166Y-58938152D02*
X122529166Y-59604819D01*
X122291071Y-58557200D02*
X122052976Y-59271485D01*
X122052976Y-59271485D02*
X122672023Y-59271485D01*
%TO.C,SW101*%
X99810588Y-105519819D02*
X99239160Y-105519819D01*
X99524874Y-105519819D02*
X99524874Y-104519819D01*
X99524874Y-104519819D02*
X99429636Y-104662676D01*
X99429636Y-104662676D02*
X99334398Y-104757914D01*
X99334398Y-104757914D02*
X99239160Y-104805533D01*
%TO.C,R108*%
X113280952Y-56254819D02*
X112947619Y-55778628D01*
X112709524Y-56254819D02*
X112709524Y-55254819D01*
X112709524Y-55254819D02*
X113090476Y-55254819D01*
X113090476Y-55254819D02*
X113185714Y-55302438D01*
X113185714Y-55302438D02*
X113233333Y-55350057D01*
X113233333Y-55350057D02*
X113280952Y-55445295D01*
X113280952Y-55445295D02*
X113280952Y-55588152D01*
X113280952Y-55588152D02*
X113233333Y-55683390D01*
X113233333Y-55683390D02*
X113185714Y-55731009D01*
X113185714Y-55731009D02*
X113090476Y-55778628D01*
X113090476Y-55778628D02*
X112709524Y-55778628D01*
X114233333Y-56254819D02*
X113661905Y-56254819D01*
X113947619Y-56254819D02*
X113947619Y-55254819D01*
X113947619Y-55254819D02*
X113852381Y-55397676D01*
X113852381Y-55397676D02*
X113757143Y-55492914D01*
X113757143Y-55492914D02*
X113661905Y-55540533D01*
X114852381Y-55254819D02*
X114947619Y-55254819D01*
X114947619Y-55254819D02*
X115042857Y-55302438D01*
X115042857Y-55302438D02*
X115090476Y-55350057D01*
X115090476Y-55350057D02*
X115138095Y-55445295D01*
X115138095Y-55445295D02*
X115185714Y-55635771D01*
X115185714Y-55635771D02*
X115185714Y-55873866D01*
X115185714Y-55873866D02*
X115138095Y-56064342D01*
X115138095Y-56064342D02*
X115090476Y-56159580D01*
X115090476Y-56159580D02*
X115042857Y-56207200D01*
X115042857Y-56207200D02*
X114947619Y-56254819D01*
X114947619Y-56254819D02*
X114852381Y-56254819D01*
X114852381Y-56254819D02*
X114757143Y-56207200D01*
X114757143Y-56207200D02*
X114709524Y-56159580D01*
X114709524Y-56159580D02*
X114661905Y-56064342D01*
X114661905Y-56064342D02*
X114614286Y-55873866D01*
X114614286Y-55873866D02*
X114614286Y-55635771D01*
X114614286Y-55635771D02*
X114661905Y-55445295D01*
X114661905Y-55445295D02*
X114709524Y-55350057D01*
X114709524Y-55350057D02*
X114757143Y-55302438D01*
X114757143Y-55302438D02*
X114852381Y-55254819D01*
X115757143Y-55683390D02*
X115661905Y-55635771D01*
X115661905Y-55635771D02*
X115614286Y-55588152D01*
X115614286Y-55588152D02*
X115566667Y-55492914D01*
X115566667Y-55492914D02*
X115566667Y-55445295D01*
X115566667Y-55445295D02*
X115614286Y-55350057D01*
X115614286Y-55350057D02*
X115661905Y-55302438D01*
X115661905Y-55302438D02*
X115757143Y-55254819D01*
X115757143Y-55254819D02*
X115947619Y-55254819D01*
X115947619Y-55254819D02*
X116042857Y-55302438D01*
X116042857Y-55302438D02*
X116090476Y-55350057D01*
X116090476Y-55350057D02*
X116138095Y-55445295D01*
X116138095Y-55445295D02*
X116138095Y-55492914D01*
X116138095Y-55492914D02*
X116090476Y-55588152D01*
X116090476Y-55588152D02*
X116042857Y-55635771D01*
X116042857Y-55635771D02*
X115947619Y-55683390D01*
X115947619Y-55683390D02*
X115757143Y-55683390D01*
X115757143Y-55683390D02*
X115661905Y-55731009D01*
X115661905Y-55731009D02*
X115614286Y-55778628D01*
X115614286Y-55778628D02*
X115566667Y-55873866D01*
X115566667Y-55873866D02*
X115566667Y-56064342D01*
X115566667Y-56064342D02*
X115614286Y-56159580D01*
X115614286Y-56159580D02*
X115661905Y-56207200D01*
X115661905Y-56207200D02*
X115757143Y-56254819D01*
X115757143Y-56254819D02*
X115947619Y-56254819D01*
X115947619Y-56254819D02*
X116042857Y-56207200D01*
X116042857Y-56207200D02*
X116090476Y-56159580D01*
X116090476Y-56159580D02*
X116138095Y-56064342D01*
X116138095Y-56064342D02*
X116138095Y-55873866D01*
X116138095Y-55873866D02*
X116090476Y-55778628D01*
X116090476Y-55778628D02*
X116042857Y-55731009D01*
X116042857Y-55731009D02*
X115947619Y-55683390D01*
%TO.C,SW105*%
X91750000Y-52500000D02*
X86850000Y-52500000D01*
X86850000Y-52500000D02*
X86850000Y-61500000D01*
X86850000Y-61500000D02*
X91750000Y-61500000D01*
X91750000Y-61500000D02*
X91750000Y-52500000D01*
D11*
%TO.C,R117*%
X109227064Y-58135000D02*
X108772936Y-58135000D01*
X109227064Y-56665000D02*
X108772936Y-56665000D01*
%TO.C,JP101*%
X109400000Y-59700000D02*
X110800000Y-59700000D01*
X110800000Y-61700000D02*
X109400000Y-61700000D01*
X111500000Y-60400000D02*
X111500000Y-61000000D01*
X108700000Y-61000000D02*
X108700000Y-60400000D01*
X111500000Y-60400000D02*
G75*
G03*
X110800000Y-59700000I-700000J0D01*
G01*
X109400000Y-59700000D02*
G75*
G03*
X108700000Y-60400000I-1J-699999D01*
G01*
X108700000Y-61000000D02*
G75*
G03*
X109400000Y-61700000I699999J-1D01*
G01*
X110800000Y-61700000D02*
G75*
G03*
X111500000Y-61000000I0J700000D01*
G01*
%TO.C,C101*%
X93565000Y-65861252D02*
X93565000Y-65338748D01*
X95035000Y-65861252D02*
X95035000Y-65338748D01*
%TO.C,R104*%
X127235000Y-64472936D02*
X127235000Y-64927064D01*
X125765000Y-64472936D02*
X125765000Y-64927064D01*
%TO.C,D103*%
X131735000Y-63340000D02*
X130265000Y-63340000D01*
X130265000Y-63340000D02*
X130265000Y-65800000D01*
X131735000Y-65800000D02*
X131735000Y-63340000D01*
%TO.C,R107*%
X96727064Y-99735000D02*
X96272936Y-99735000D01*
X96727064Y-98265000D02*
X96272936Y-98265000D01*
%TO.C,R110*%
X129772936Y-67665000D02*
X130227064Y-67665000D01*
X129772936Y-69135000D02*
X130227064Y-69135000D01*
D10*
%TO.C,SW103*%
X133775000Y-78500000D02*
X127725000Y-78500000D01*
X127725000Y-78500000D02*
X127725000Y-84400000D01*
X127725000Y-84400000D02*
X133775000Y-84400000D01*
X133775000Y-84400000D02*
X133775000Y-78500000D01*
D11*
%TO.C,C103*%
X113710000Y-61453733D02*
X113710000Y-61746267D01*
X112690000Y-61453733D02*
X112690000Y-61746267D01*
%TO.C,U105*%
X117140000Y-94000000D02*
X117140000Y-95330000D01*
X115810000Y-94000000D02*
X117140000Y-94000000D01*
D10*
X124950000Y-97150000D02*
X99000000Y-97150000D01*
X99000000Y-97150000D02*
X99000000Y-70800000D01*
X99000000Y-70800000D02*
X124950000Y-70800000D01*
X124950000Y-70800000D02*
X124950000Y-97150000D01*
X122500000Y-90700000D02*
X101500000Y-90700000D01*
X101500000Y-90700000D02*
X101500000Y-79300000D01*
X101500000Y-79300000D02*
X122500000Y-79300000D01*
X122500000Y-79300000D02*
X122500000Y-90700000D01*
D11*
%TO.C,R109*%
X127072936Y-100565000D02*
X127527064Y-100565000D01*
X127072936Y-102035000D02*
X127527064Y-102035000D01*
%TO.C,R115*%
X97335000Y-73272936D02*
X97335000Y-73727064D01*
X95865000Y-73272936D02*
X95865000Y-73727064D01*
D10*
%TO.C,J103*%
X97750000Y-76700000D02*
X88450000Y-76700000D01*
X88450000Y-76700000D02*
X88450000Y-86900000D01*
X88450000Y-86900000D02*
X97750000Y-86900000D01*
X97750000Y-86900000D02*
X97750000Y-76700000D01*
D11*
%TO.C,U101*%
X99860000Y-68000000D02*
X99860000Y-66200000D01*
X99860000Y-68000000D02*
X99860000Y-68800000D01*
X96740000Y-68000000D02*
X96740000Y-67200000D01*
X96740000Y-68000000D02*
X96740000Y-68800000D01*
%TO.C,D102*%
X90340000Y-70565000D02*
X90340000Y-72035000D01*
X90340000Y-72035000D02*
X92800000Y-72035000D01*
X92800000Y-70565000D02*
X90340000Y-70565000D01*
D10*
%TO.C,J101*%
X102100000Y-120275000D02*
X121700000Y-120275000D01*
X121700000Y-120275000D02*
X121700000Y-99275000D01*
X121700000Y-99275000D02*
X102100000Y-99275000D01*
X102100000Y-99275000D02*
X102100000Y-120275000D01*
D11*
%TO.C,D101*%
X90140000Y-98265000D02*
X90140000Y-99735000D01*
X90140000Y-99735000D02*
X92600000Y-99735000D01*
X92600000Y-98265000D02*
X90140000Y-98265000D01*
%TO.C,Q102*%
X99400000Y-62010000D02*
X102325000Y-62010000D01*
X99400000Y-62010000D02*
X97900000Y-62010000D01*
X99400000Y-58790000D02*
X100900000Y-58790000D01*
X99400000Y-58790000D02*
X97900000Y-58790000D01*
%TO.C,R103*%
X129235000Y-72872936D02*
X129235000Y-73327064D01*
X127765000Y-72872936D02*
X127765000Y-73327064D01*
%TO.C,C108*%
X131438748Y-100565000D02*
X131961252Y-100565000D01*
X131438748Y-102035000D02*
X131961252Y-102035000D01*
D10*
%TO.C,SW102*%
X127200000Y-106050000D02*
X127600000Y-106600000D01*
X127600000Y-106600000D02*
X127600000Y-109650000D01*
X127600000Y-108125000D02*
X128950000Y-107450000D01*
X127600000Y-109650000D02*
X127200000Y-110350000D01*
X129475000Y-106775000D02*
X129475000Y-109525000D01*
X129475000Y-108150000D02*
X128900000Y-108150000D01*
X129475000Y-109525000D02*
X130000000Y-110350000D01*
X130050000Y-106000000D02*
X129475000Y-106775000D01*
X124700000Y-103750000D02*
X132750000Y-103750000D01*
X132750000Y-103750000D02*
X132750000Y-112650000D01*
X132750000Y-112650000D02*
X124700000Y-112650000D01*
X124700000Y-112650000D02*
X124700000Y-103750000D01*
D11*
%TO.C,FB101*%
X105328733Y-60290000D02*
X105671267Y-60290000D01*
X105328733Y-61310000D02*
X105671267Y-61310000D01*
%TO.C,D105*%
X103310000Y-64350000D02*
X103310000Y-62650000D01*
X103310000Y-64350000D02*
X100050000Y-64350000D01*
X103310000Y-62650000D02*
X100050000Y-62650000D01*
%TO.C,J102*%
X96375000Y-88900000D02*
X95125000Y-88900000D01*
X96085000Y-89190000D02*
X90115000Y-89190000D01*
X90115000Y-89190000D02*
X90115000Y-96810000D01*
X96075000Y-89200000D02*
X95325000Y-89200000D01*
X95325000Y-89200000D02*
X95325000Y-91000000D01*
X93825000Y-89200000D02*
X93825000Y-89950000D01*
X93825000Y-89950000D02*
X90875000Y-89950000D01*
X90875000Y-89950000D02*
X90875000Y-93000000D01*
X96375000Y-90150000D02*
X96375000Y-88900000D01*
X96075000Y-91000000D02*
X96075000Y-89200000D01*
X95325000Y-91000000D02*
X96075000Y-91000000D01*
X96075000Y-92500000D02*
X95325000Y-92500000D01*
X95325000Y-92500000D02*
X95325000Y-93500000D01*
X96075000Y-93500000D02*
X96075000Y-92500000D01*
X95325000Y-93500000D02*
X96075000Y-93500000D01*
X96075000Y-95000000D02*
X95325000Y-95000000D01*
X95325000Y-95000000D02*
X95325000Y-96800000D01*
X93825000Y-96050000D02*
X90875000Y-96050000D01*
X90875000Y-96050000D02*
X90875000Y-93000000D01*
X96075000Y-96800000D02*
X96075000Y-95000000D01*
X95325000Y-96800000D02*
X96075000Y-96800000D01*
X93825000Y-96800000D02*
X93825000Y-96050000D01*
X96085000Y-96810000D02*
X96085000Y-89190000D01*
X90115000Y-96810000D02*
X96085000Y-96810000D01*
%TO.C,C104*%
X117135000Y-61338748D02*
X117135000Y-61861252D01*
X115665000Y-61338748D02*
X115665000Y-61861252D01*
%TO.C,R106*%
X121127064Y-65435000D02*
X120672936Y-65435000D01*
X121127064Y-63965000D02*
X120672936Y-63965000D01*
%TO.C,D104*%
X93660000Y-75235000D02*
X93660000Y-73765000D01*
X93660000Y-73765000D02*
X91200000Y-73765000D01*
X91200000Y-75235000D02*
X93660000Y-75235000D01*
%TO.C,C102*%
X105335000Y-63438748D02*
X105335000Y-63961252D01*
X103865000Y-63438748D02*
X103865000Y-63961252D01*
%TO.C,R112*%
X102872936Y-68465000D02*
X103327064Y-68465000D01*
X102872936Y-69935000D02*
X103327064Y-69935000D01*
D10*
%TO.C,SW104*%
X133775000Y-90500000D02*
X127725000Y-90500000D01*
X127725000Y-90500000D02*
X127725000Y-96400000D01*
X127725000Y-96400000D02*
X133775000Y-96400000D01*
X133775000Y-96400000D02*
X133775000Y-90500000D01*
D11*
%TO.C,U104*%
X120862500Y-59990000D02*
X119062500Y-59990000D01*
X120862500Y-59990000D02*
X121662500Y-59990000D01*
X120862500Y-63110000D02*
X120062500Y-63110000D01*
X120862500Y-63110000D02*
X121662500Y-63110000D01*
D10*
%TO.C,SW101*%
X93300000Y-106050000D02*
X93700000Y-106600000D01*
X93700000Y-106600000D02*
X93700000Y-109650000D01*
X93700000Y-108125000D02*
X95050000Y-107450000D01*
X93700000Y-109650000D02*
X93300000Y-110350000D01*
X95575000Y-106775000D02*
X95575000Y-109525000D01*
X95575000Y-108150000D02*
X95000000Y-108150000D01*
X95575000Y-109525000D02*
X96100000Y-110350000D01*
X96150000Y-106000000D02*
X95575000Y-106775000D01*
X90800000Y-103750000D02*
X98850000Y-103750000D01*
X98850000Y-103750000D02*
X98850000Y-112650000D01*
X98850000Y-112650000D02*
X90800000Y-112650000D01*
X90800000Y-112650000D02*
X90800000Y-103750000D01*
D11*
%TO.C,R108*%
X114827064Y-58135000D02*
X114372936Y-58135000D01*
X114827064Y-56665000D02*
X114372936Y-56665000D01*
%TO.C,J104*%
X87240000Y-68960000D02*
X88490000Y-68960000D01*
X92260000Y-68660000D02*
X92260000Y-62540000D01*
X90150000Y-68660000D02*
X90150000Y-68050000D01*
X88850000Y-68660000D02*
X88850000Y-68050000D01*
X87540000Y-68660000D02*
X92260000Y-68660000D01*
X91650000Y-68050000D02*
X91650000Y-63150000D01*
X88150000Y-68050000D02*
X91650000Y-68050000D01*
X87240000Y-67710000D02*
X87240000Y-68960000D01*
X87340000Y-67200000D02*
X87540000Y-67200000D01*
X87540000Y-66900000D02*
X87340000Y-66900000D01*
X87440000Y-66900000D02*
X87440000Y-67200000D01*
X87340000Y-66900000D02*
X87340000Y-67200000D01*
X88150000Y-66100000D02*
X88150000Y-68050000D01*
X87540000Y-66100000D02*
X88150000Y-66100000D01*
X91650000Y-65700000D02*
X91150000Y-65700000D01*
X91150000Y-65700000D02*
X91150000Y-65500000D01*
X91650000Y-65600000D02*
X91150000Y-65600000D01*
X91150000Y-65500000D02*
X91650000Y-65500000D01*
X88150000Y-65100000D02*
X87540000Y-65100000D01*
X91650000Y-63150000D02*
X88150000Y-63150000D01*
X88150000Y-63150000D02*
X88150000Y-65100000D01*
X92260000Y-62540000D02*
X87540000Y-62540000D01*
X90150000Y-62540000D02*
X90150000Y-63150000D01*
X88850000Y-62540000D02*
X88850000Y-63150000D01*
X87540000Y-62540000D02*
X87540000Y-68660000D01*
D12*
%TO.C,U102*%
X123240300Y-56699998D02*
G75*
G03*
X123240300Y-56699998I-381000J0D01*
G01*
%TD*%
%LPC*%
D13*
%TO.C,SW105*%
X90900000Y-54500000D03*
X87700000Y-57000000D03*
X90900000Y-59500000D03*
%TD*%
D14*
%TO.C,R117*%
X110000000Y-57400000D03*
X108000000Y-57400000D03*
%TD*%
D15*
%TO.C,JP101*%
X109450000Y-60700000D03*
D16*
X110750000Y-60700000D03*
%TD*%
D17*
%TO.C,C101*%
X94300000Y-66637500D03*
X94300000Y-64562500D03*
%TD*%
D18*
%TO.C,R104*%
X126500000Y-63700000D03*
X126500000Y-65700000D03*
%TD*%
D19*
%TO.C,D103*%
X131000000Y-64125000D03*
X131000000Y-65875000D03*
%TD*%
D14*
%TO.C,R107*%
X97500000Y-99000000D03*
X95500000Y-99000000D03*
%TD*%
D20*
%TO.C,R110*%
X129000000Y-68400000D03*
X131000000Y-68400000D03*
%TD*%
D21*
%TO.C,SW103*%
X128475000Y-77350000D03*
X128475000Y-85550000D03*
X132975000Y-77350000D03*
X132975000Y-85550000D03*
%TD*%
D22*
%TO.C,C103*%
X113200000Y-60737500D03*
X113200000Y-62462500D03*
%TD*%
D23*
%TO.C,U105*%
X122500000Y-94300000D03*
X122500000Y-72300000D03*
X101500000Y-94300000D03*
X101500000Y-72300000D03*
D24*
X115810000Y-95330000D03*
D25*
X113270000Y-95330000D03*
X110730000Y-95330000D03*
X108190000Y-95330000D03*
%TD*%
D20*
%TO.C,R109*%
X126300000Y-101300000D03*
X128300000Y-101300000D03*
%TD*%
D18*
%TO.C,R115*%
X96600000Y-72500000D03*
X96600000Y-74500000D03*
%TD*%
D26*
%TO.C,J103*%
X96750000Y-80160000D03*
X95550000Y-80960000D03*
X96750000Y-81760000D03*
X95550000Y-82560000D03*
X96750000Y-83360000D03*
D27*
X95850000Y-77960000D03*
X91050000Y-77960000D03*
X95850000Y-85560000D03*
X91050000Y-85560000D03*
%TD*%
D28*
%TO.C,U101*%
X99250000Y-66862500D03*
X98300000Y-66862500D03*
X97350000Y-66862500D03*
X97350000Y-69137500D03*
X99250000Y-69137500D03*
%TD*%
D29*
%TO.C,D102*%
X91125000Y-71300000D03*
X92875000Y-71300000D03*
%TD*%
D30*
%TO.C,J101*%
X104050000Y-115625000D03*
X119750000Y-115625000D03*
X118900000Y-102125000D03*
X105200000Y-102125000D03*
%TD*%
D29*
%TO.C,D101*%
X90925000Y-99000000D03*
X92675000Y-99000000D03*
%TD*%
D31*
%TO.C,Q102*%
X101512500Y-61375000D03*
X101512500Y-60725000D03*
X101512500Y-60075000D03*
X101512500Y-59425000D03*
X97287500Y-59425000D03*
X97287500Y-60075000D03*
X97287500Y-60725000D03*
X97287500Y-61375000D03*
%TD*%
D18*
%TO.C,R103*%
X128500000Y-72100000D03*
X128500000Y-74100000D03*
%TD*%
D32*
%TO.C,C108*%
X130750000Y-101300000D03*
X132650000Y-101300000D03*
%TD*%
D33*
%TO.C,SW102*%
X130950000Y-104950000D03*
X130950000Y-111450000D03*
X126450000Y-104950000D03*
X126450000Y-111450000D03*
X125900000Y-108200000D03*
X131500000Y-108200000D03*
%TD*%
D29*
%TO.C,FB101*%
X104625000Y-60800000D03*
X106375000Y-60800000D03*
%TD*%
D34*
%TO.C,D105*%
X102550000Y-63500000D03*
X100050000Y-63500000D03*
%TD*%
D35*
%TO.C,J102*%
X93625000Y-91750000D03*
D36*
X93625000Y-94250000D03*
%TD*%
D37*
%TO.C,C104*%
X116400000Y-60562500D03*
X116400000Y-62637500D03*
%TD*%
D14*
%TO.C,R106*%
X121900000Y-64700000D03*
X119900000Y-64700000D03*
%TD*%
D38*
%TO.C,D104*%
X92875000Y-74500000D03*
X91125000Y-74500000D03*
%TD*%
D39*
%TO.C,C102*%
X104600000Y-62750000D03*
X104600000Y-64650000D03*
%TD*%
D20*
%TO.C,R112*%
X102100000Y-69200000D03*
X104100000Y-69200000D03*
%TD*%
D21*
%TO.C,SW104*%
X128475000Y-89350000D03*
X128475000Y-97550000D03*
X132975000Y-89350000D03*
X132975000Y-97550000D03*
%TD*%
D40*
%TO.C,U104*%
X119725000Y-60600000D03*
X119725000Y-61550000D03*
X119725000Y-62500000D03*
X122000000Y-62500000D03*
X122000000Y-60600000D03*
%TD*%
D33*
%TO.C,SW101*%
X97050000Y-104950000D03*
X97050000Y-111450000D03*
X92550000Y-104950000D03*
X92550000Y-111450000D03*
X92000000Y-108200000D03*
X97600000Y-108200000D03*
%TD*%
D14*
%TO.C,R108*%
X115600000Y-57400000D03*
X113600000Y-57400000D03*
%TD*%
D41*
%TO.C,J104*%
X89350000Y-66600000D03*
D42*
X89350000Y-64600000D03*
%TD*%
%LPD*%
M02*
