%TF.GenerationSoftware,KiCad,Pcbnew,7.0.5*%
%TF.CreationDate,2023-08-05T14:06:43+09:00*%
%TF.ProjectId,templogger,74656d70-6c6f-4676-9765-722e6b696361,rev?*%
%TF.SameCoordinates,Original*%
%TF.FileFunction,Soldermask,Bot*%
%TF.FilePolarity,Negative*%
%FSLAX46Y46*%
G04 Gerber Fmt 4.6, Leading zero omitted, Abs format (unit mm)*
G04 Created by KiCad (PCBNEW 7.0.5) date 2023-08-05 14:06:43*
%MOMM*%
%LPD*%
G01*
G04 APERTURE LIST*
G04 Aperture macros list*
%AMRoundRect*
0 Rectangle with rounded corners*
0 $1 Rounding radius*
0 $2 $3 $4 $5 $6 $7 $8 $9 X,Y pos of 4 corners*
0 Add a 4 corners polygon primitive as box body*
4,1,4,$2,$3,$4,$5,$6,$7,$8,$9,$2,$3,0*
0 Add four circle primitives for the rounded corners*
1,1,$1+$1,$2,$3*
1,1,$1+$1,$4,$5*
1,1,$1+$1,$6,$7*
1,1,$1+$1,$8,$9*
0 Add four rect primitives between the rounded corners*
20,1,$1+$1,$2,$3,$4,$5,0*
20,1,$1+$1,$4,$5,$6,$7,0*
20,1,$1+$1,$6,$7,$8,$9,0*
20,1,$1+$1,$8,$9,$2,$3,0*%
G04 Aperture macros list end*
%ADD10C,1.524000*%
%ADD11RoundRect,0.250000X0.350000X0.450000X-0.350000X0.450000X-0.350000X-0.450000X0.350000X-0.450000X0*%
%ADD12RoundRect,0.237500X0.300000X0.237500X-0.300000X0.237500X-0.300000X-0.237500X0.300000X-0.237500X0*%
%ADD13C,2.100000*%
%ADD14R,1.700000X1.700000*%
%ADD15O,1.700000X1.700000*%
%ADD16C,1.200000*%
%ADD17O,2.600000X1.500000*%
%ADD18C,3.500000*%
%ADD19C,1.800000*%
%ADD20RoundRect,0.250000X-0.750000X0.600000X-0.750000X-0.600000X0.750000X-0.600000X0.750000X0.600000X0*%
%ADD21O,2.000000X1.700000*%
%ADD22RoundRect,0.250000X0.450000X-0.350000X0.450000X0.350000X-0.450000X0.350000X-0.450000X-0.350000X0*%
%ADD23RoundRect,0.150000X-0.150000X0.825000X-0.150000X-0.825000X0.150000X-0.825000X0.150000X0.825000X0*%
%ADD24R,1.800000X1.000000*%
%ADD25RoundRect,0.250000X-0.350000X-0.450000X0.350000X-0.450000X0.350000X0.450000X-0.350000X0.450000X0*%
%ADD26RoundRect,0.250000X0.625000X-0.350000X0.625000X0.350000X-0.625000X0.350000X-0.625000X-0.350000X0*%
%ADD27O,1.750000X1.200000*%
%ADD28RoundRect,0.150000X0.587500X0.150000X-0.587500X0.150000X-0.587500X-0.150000X0.587500X-0.150000X0*%
%ADD29RoundRect,0.225000X-0.250000X0.225000X-0.250000X-0.225000X0.250000X-0.225000X0.250000X0.225000X0*%
%ADD30RoundRect,0.250000X-0.337500X-0.475000X0.337500X-0.475000X0.337500X0.475000X-0.337500X0.475000X0*%
%ADD31RoundRect,0.250000X-0.450000X0.350000X-0.450000X-0.350000X0.450000X-0.350000X0.450000X0.350000X0*%
%ADD32RoundRect,0.237500X-0.300000X-0.237500X0.300000X-0.237500X0.300000X0.237500X-0.300000X0.237500X0*%
%ADD33R,0.711200X0.711200*%
%ADD34R,1.498600X0.889000*%
G04 APERTURE END LIST*
D10*
%TO.C,SW105*%
X90900000Y-54500000D03*
X87700000Y-57000000D03*
X90900000Y-59500000D03*
%TD*%
D11*
%TO.C,R118*%
X92200000Y-82800000D03*
X90200000Y-82800000D03*
%TD*%
D12*
%TO.C,C111*%
X91962500Y-80500000D03*
X90237500Y-80500000D03*
%TD*%
D13*
%TO.C,U105*%
X122500000Y-94300000D03*
X122500000Y-72300000D03*
X101500000Y-94300000D03*
X101500000Y-72300000D03*
D14*
X115810000Y-95330000D03*
D15*
X113270000Y-95330000D03*
X110730000Y-95330000D03*
X108190000Y-95330000D03*
%TD*%
D16*
%TO.C,J103*%
X96750000Y-80160000D03*
X95550000Y-80960000D03*
X96750000Y-81760000D03*
X95550000Y-82560000D03*
X96750000Y-83360000D03*
D17*
X95850000Y-77960000D03*
X91050000Y-77960000D03*
X95850000Y-85560000D03*
X91050000Y-85560000D03*
%TD*%
D18*
%TO.C,J101*%
X104050000Y-115625000D03*
X119750000Y-115625000D03*
X118900000Y-102125000D03*
X105200000Y-102125000D03*
%TD*%
D19*
%TO.C,SW102*%
X130950000Y-104950000D03*
X130950000Y-111450000D03*
X126450000Y-104950000D03*
X126450000Y-111450000D03*
X125900000Y-108200000D03*
X131500000Y-108200000D03*
%TD*%
D20*
%TO.C,J102*%
X93625000Y-91750000D03*
D21*
X93625000Y-94250000D03*
%TD*%
D19*
%TO.C,SW101*%
X97050000Y-104950000D03*
X97050000Y-111450000D03*
X92550000Y-104950000D03*
X92550000Y-111450000D03*
X92000000Y-108200000D03*
X97600000Y-108200000D03*
%TD*%
D22*
%TO.C,R102*%
X122100000Y-108700000D03*
X122100000Y-106700000D03*
%TD*%
D11*
%TO.C,R105*%
X126900000Y-64700000D03*
X124900000Y-64700000D03*
%TD*%
D12*
%TO.C,C109*%
X97262500Y-59300000D03*
X95537500Y-59300000D03*
%TD*%
D23*
%TO.C,U103*%
X110095000Y-106625000D03*
X111365000Y-106625000D03*
X112635000Y-106625000D03*
X113905000Y-106625000D03*
X113905000Y-111575000D03*
X112635000Y-111575000D03*
X111365000Y-111575000D03*
X110095000Y-111575000D03*
%TD*%
D24*
%TO.C,Y102*%
X99600000Y-59250000D03*
X99600000Y-56750000D03*
%TD*%
D25*
%TO.C,R114*%
X93800000Y-74500000D03*
X95800000Y-74500000D03*
%TD*%
D26*
%TO.C,J104*%
X89350000Y-66600000D03*
D27*
X89350000Y-64600000D03*
%TD*%
D12*
%TO.C,C110*%
X97362500Y-56700000D03*
X95637500Y-56700000D03*
%TD*%
D22*
%TO.C,R101*%
X89200000Y-107900000D03*
X89200000Y-105900000D03*
%TD*%
D11*
%TO.C,R113*%
X95800000Y-71300000D03*
X93800000Y-71300000D03*
%TD*%
D28*
%TO.C,Q101*%
X95437500Y-99450000D03*
X95437500Y-101350000D03*
X93562500Y-100400000D03*
%TD*%
D29*
%TO.C,C105*%
X117600000Y-106625000D03*
X117600000Y-108175000D03*
%TD*%
D30*
%TO.C,C107*%
X124562500Y-56700000D03*
X126637500Y-56700000D03*
%TD*%
D31*
%TO.C,R111*%
X99100000Y-99300000D03*
X99100000Y-101300000D03*
%TD*%
D32*
%TO.C,C106*%
X124537500Y-58800000D03*
X126262500Y-58800000D03*
%TD*%
D33*
%TO.C,U102*%
X109894198Y-63999971D03*
X110994198Y-63999971D03*
X112094198Y-63999971D03*
X109894299Y-62899973D03*
X110994300Y-62899973D03*
X112094300Y-62899973D03*
X109894198Y-61799975D03*
X110994198Y-61799975D03*
X112094198Y-61799975D03*
D34*
X103200000Y-56699998D03*
X103200000Y-58199998D03*
X103200000Y-59700000D03*
X103200000Y-61199999D03*
X103200000Y-62699999D03*
X103200000Y-64199998D03*
X103200000Y-65699998D03*
X103200000Y-67200000D03*
X103200000Y-68700000D03*
X120700000Y-68700000D03*
X120700000Y-67200000D03*
X120700000Y-65699998D03*
X120700000Y-64199998D03*
X120700000Y-62699999D03*
X120700000Y-61199999D03*
X120700000Y-59700000D03*
X120700000Y-58199998D03*
X120700000Y-56699998D03*
%TD*%
M02*
