M48
INCH
T1C0.0157
T2C0.0236
T3C0.0295
T4C0.0315
T5C0.0394
T6C0.0709
%
G90
G05
T1
X3.4567Y-2.7795
X3.4567Y-3.0945
X3.4567Y-3.4331
X3.4567Y-3.815
X3.4567Y-4.0945
X3.4567Y-4.3976
X3.5197Y-4.1142
X3.5866Y-3.9528
X3.5876Y-2.8661
X3.6575Y-2.3819
X3.6575Y-2.752
X3.6732Y-2.9882
X3.689Y-2.2402
X3.7047Y-3.811
X3.7677Y-4.6929
X3.7717Y-2.6339
X3.7756Y-2.7126
X3.8268Y-2.4764
X3.8268Y-3.8071
X3.8465Y-3.5551
X3.8719Y-2.7745
X3.878Y-2.5
X3.8809Y-3.1378
X3.938Y-3.0472
X3.9528Y-4.0669
X3.9685Y-4.3701
X3.9685Y-4.6969
X3.9882Y-3.878
X4.0551Y-4.1417
X4.1024Y-3.6024
X4.1102Y-3.0315
X4.1142Y-3.2756
X4.122Y-3.8858
X4.1378Y-2.1969
X4.1417Y-4.2992
X4.1772Y-3.7717
X4.1969Y-3.3189
X4.2047Y-4.6969
X4.2087Y-4.1969
X4.252Y-4.3307
X4.2559Y-4.122
X4.2638Y-2.4606
X4.2717Y-3.8858
X4.2953Y-2.6102
X4.3268Y-3.4695
X4.3386Y-3.9567
X4.3819Y-2.2008
X4.3819Y-3.6024
X4.3898Y-3.0276
X4.4016Y-2.2598
X4.4016Y-3.8858
X4.4055Y-2.7087
X4.4055Y-4.0236
X4.4094Y-3.3189
X4.4449Y-4.6969
X4.4724Y-2.3228
X4.5Y-2.8425
X4.5118Y-3.3819
X4.5276Y-3.9567
X4.5315Y-2.5866
X4.5433Y-4.3937
X4.5591Y-4.2913
X4.5787Y-4.126
X4.5984Y-2.2087
X4.6024Y-2.315
X4.6102Y-2.5315
X4.6102Y-3.2795
X4.6102Y-3.563
X4.6142Y-3.0315
X4.6142Y-4.3386
X4.6181Y-2.7047
X4.6299Y-3.8858
X4.6614Y-2.7638
X4.6654Y-2.2323
X4.6732Y-4.6969
X4.6929Y-2.7047
X4.6929Y-4.374
X4.7402Y-4.374
X4.7756Y-3.8858
X4.8189Y-3.0354
X4.8189Y-3.2835
X4.8189Y-3.5669
X4.8189Y-3.9803
X4.8346Y-2.2913
X4.8386Y-2.3465
X4.8465Y-4.0591
X4.8543Y-4.378
X4.8622Y-2.5433
X4.8622Y-3.374
X4.9055Y-2.3819
X4.9055Y-2.4764
X4.9055Y-2.6417
X4.9173Y-4.7008
X4.9213Y-4.0472
X4.9724Y-3.1811
X4.9764Y-2.3819
X4.9843Y-2.7323
X4.9882Y-4.063
X5.0276Y-2.4567
X5.0276Y-3.4291
X5.0276Y-4.5276
X5.0472Y-2.6063
X5.0669Y-2.3465
X5.0866Y-2.2913
X5.1142Y-3.5157
X5.1575Y-3.6654
X5.3189Y-3.1929
X5.3189Y-3.4921
X5.3189Y-3.8346
X5.3189Y-4.1181
X5.3189Y-4.4291
X5.3228Y-2.689
X5.3228Y-2.9961
X5.3268Y-2.3622
T2
X3.7618Y-3.1874
X3.7618Y-3.2504
X3.8091Y-3.1559
X3.8091Y-3.2189
X3.8091Y-3.2819
T3
X3.5177Y-2.5433
X3.5177Y-2.622
T4
X3.4528Y-2.2441
X3.5787Y-2.1457
X3.5787Y-2.3425
X3.622Y-4.2598
X3.6437Y-4.1319
X3.6437Y-4.3878
X3.8209Y-4.1319
X3.8209Y-4.3878
X3.8425Y-4.2598
X4.9567Y-4.2598
X4.9783Y-4.1319
X4.9783Y-4.3878
X5.1555Y-4.1319
X5.1555Y-4.3878
X5.1772Y-4.2598
T5
X3.686Y-3.6122
X3.686Y-3.7106
X4.2594Y-3.7531
X4.3594Y-3.7531
X4.4594Y-3.7531
X4.5594Y-3.7531
T6
X4.0965Y-4.5522
X4.1417Y-4.0207
X4.6811Y-4.0207
X4.7146Y-4.5522
T4
G00X3.6083Y-3.0693
M15
G01X3.561Y-3.0693
M16
G05
G00X3.6083Y-3.3685
M15
G01X3.561Y-3.3685
M16
G05
G00X3.7972Y-3.0693
M15
G01X3.75Y-3.0693
M16
G05
G00X3.7972Y-3.3685
M15
G01X3.75Y-3.3685
M16
G05
T0
M30
