%TF.GenerationSoftware,KiCad,Pcbnew,7.0.5*%
%TF.CreationDate,2023-08-05T14:06:43+09:00*%
%TF.ProjectId,templogger,74656d70-6c6f-4676-9765-722e6b696361,rev?*%
%TF.SameCoordinates,Original*%
%TF.FileFunction,Legend,Bot*%
%TF.FilePolarity,Positive*%
%FSLAX46Y46*%
G04 Gerber Fmt 4.6, Leading zero omitted, Abs format (unit mm)*
G04 Created by KiCad (PCBNEW 7.0.5) date 2023-08-05 14:06:43*
%MOMM*%
%LPD*%
G01*
G04 APERTURE LIST*
G04 Aperture macros list*
%AMRoundRect*
0 Rectangle with rounded corners*
0 $1 Rounding radius*
0 $2 $3 $4 $5 $6 $7 $8 $9 X,Y pos of 4 corners*
0 Add a 4 corners polygon primitive as box body*
4,1,4,$2,$3,$4,$5,$6,$7,$8,$9,$2,$3,0*
0 Add four circle primitives for the rounded corners*
1,1,$1+$1,$2,$3*
1,1,$1+$1,$4,$5*
1,1,$1+$1,$6,$7*
1,1,$1+$1,$8,$9*
0 Add four rect primitives between the rounded corners*
20,1,$1+$1,$2,$3,$4,$5,0*
20,1,$1+$1,$4,$5,$6,$7,0*
20,1,$1+$1,$6,$7,$8,$9,0*
20,1,$1+$1,$8,$9,$2,$3,0*%
G04 Aperture macros list end*
%ADD10C,0.150000*%
%ADD11C,0.120000*%
%ADD12C,0.508000*%
%ADD13C,0.152400*%
%ADD14C,1.524000*%
%ADD15RoundRect,0.250000X0.350000X0.450000X-0.350000X0.450000X-0.350000X-0.450000X0.350000X-0.450000X0*%
%ADD16RoundRect,0.237500X0.300000X0.237500X-0.300000X0.237500X-0.300000X-0.237500X0.300000X-0.237500X0*%
%ADD17C,2.100000*%
%ADD18R,1.700000X1.700000*%
%ADD19O,1.700000X1.700000*%
%ADD20C,1.200000*%
%ADD21O,2.600000X1.500000*%
%ADD22C,3.500000*%
%ADD23C,1.800000*%
%ADD24RoundRect,0.250000X-0.750000X0.600000X-0.750000X-0.600000X0.750000X-0.600000X0.750000X0.600000X0*%
%ADD25O,2.000000X1.700000*%
%ADD26RoundRect,0.250000X0.450000X-0.350000X0.450000X0.350000X-0.450000X0.350000X-0.450000X-0.350000X0*%
%ADD27RoundRect,0.150000X-0.150000X0.825000X-0.150000X-0.825000X0.150000X-0.825000X0.150000X0.825000X0*%
%ADD28R,1.800000X1.000000*%
%ADD29RoundRect,0.250000X-0.350000X-0.450000X0.350000X-0.450000X0.350000X0.450000X-0.350000X0.450000X0*%
%ADD30RoundRect,0.250000X0.625000X-0.350000X0.625000X0.350000X-0.625000X0.350000X-0.625000X-0.350000X0*%
%ADD31O,1.750000X1.200000*%
%ADD32RoundRect,0.150000X0.587500X0.150000X-0.587500X0.150000X-0.587500X-0.150000X0.587500X-0.150000X0*%
%ADD33RoundRect,0.225000X-0.250000X0.225000X-0.250000X-0.225000X0.250000X-0.225000X0.250000X0.225000X0*%
%ADD34RoundRect,0.250000X-0.337500X-0.475000X0.337500X-0.475000X0.337500X0.475000X-0.337500X0.475000X0*%
%ADD35RoundRect,0.250000X-0.450000X0.350000X-0.450000X-0.350000X0.450000X-0.350000X0.450000X0.350000X0*%
%ADD36RoundRect,0.237500X-0.300000X-0.237500X0.300000X-0.237500X0.300000X0.237500X-0.300000X0.237500X0*%
%ADD37R,0.711200X0.711200*%
%ADD38R,1.498600X0.889000*%
G04 APERTURE END LIST*
D10*
X128206077Y-118269819D02*
X127634649Y-118269819D01*
X127920363Y-119269819D02*
X127920363Y-118269819D01*
X127301315Y-118746009D02*
X126967982Y-118746009D01*
X126825125Y-119269819D02*
X127301315Y-119269819D01*
X127301315Y-119269819D02*
X127301315Y-118269819D01*
X127301315Y-118269819D02*
X126825125Y-118269819D01*
X126396553Y-119269819D02*
X126396553Y-118269819D01*
X126396553Y-118269819D02*
X126063220Y-118984104D01*
X126063220Y-118984104D02*
X125729887Y-118269819D01*
X125729887Y-118269819D02*
X125729887Y-119269819D01*
X125253696Y-119269819D02*
X125253696Y-118269819D01*
X125253696Y-118269819D02*
X124872744Y-118269819D01*
X124872744Y-118269819D02*
X124777506Y-118317438D01*
X124777506Y-118317438D02*
X124729887Y-118365057D01*
X124729887Y-118365057D02*
X124682268Y-118460295D01*
X124682268Y-118460295D02*
X124682268Y-118603152D01*
X124682268Y-118603152D02*
X124729887Y-118698390D01*
X124729887Y-118698390D02*
X124777506Y-118746009D01*
X124777506Y-118746009D02*
X124872744Y-118793628D01*
X124872744Y-118793628D02*
X125253696Y-118793628D01*
X124253696Y-118888866D02*
X123491792Y-118888866D01*
X122539411Y-119269819D02*
X123015601Y-119269819D01*
X123015601Y-119269819D02*
X123015601Y-118269819D01*
X122015601Y-118269819D02*
X121825125Y-118269819D01*
X121825125Y-118269819D02*
X121729887Y-118317438D01*
X121729887Y-118317438D02*
X121634649Y-118412676D01*
X121634649Y-118412676D02*
X121587030Y-118603152D01*
X121587030Y-118603152D02*
X121587030Y-118936485D01*
X121587030Y-118936485D02*
X121634649Y-119126961D01*
X121634649Y-119126961D02*
X121729887Y-119222200D01*
X121729887Y-119222200D02*
X121825125Y-119269819D01*
X121825125Y-119269819D02*
X122015601Y-119269819D01*
X122015601Y-119269819D02*
X122110839Y-119222200D01*
X122110839Y-119222200D02*
X122206077Y-119126961D01*
X122206077Y-119126961D02*
X122253696Y-118936485D01*
X122253696Y-118936485D02*
X122253696Y-118603152D01*
X122253696Y-118603152D02*
X122206077Y-118412676D01*
X122206077Y-118412676D02*
X122110839Y-118317438D01*
X122110839Y-118317438D02*
X122015601Y-118269819D01*
X120634649Y-118317438D02*
X120729887Y-118269819D01*
X120729887Y-118269819D02*
X120872744Y-118269819D01*
X120872744Y-118269819D02*
X121015601Y-118317438D01*
X121015601Y-118317438D02*
X121110839Y-118412676D01*
X121110839Y-118412676D02*
X121158458Y-118507914D01*
X121158458Y-118507914D02*
X121206077Y-118698390D01*
X121206077Y-118698390D02*
X121206077Y-118841247D01*
X121206077Y-118841247D02*
X121158458Y-119031723D01*
X121158458Y-119031723D02*
X121110839Y-119126961D01*
X121110839Y-119126961D02*
X121015601Y-119222200D01*
X121015601Y-119222200D02*
X120872744Y-119269819D01*
X120872744Y-119269819D02*
X120777506Y-119269819D01*
X120777506Y-119269819D02*
X120634649Y-119222200D01*
X120634649Y-119222200D02*
X120587030Y-119174580D01*
X120587030Y-119174580D02*
X120587030Y-118841247D01*
X120587030Y-118841247D02*
X120777506Y-118841247D01*
X119634649Y-118317438D02*
X119729887Y-118269819D01*
X119729887Y-118269819D02*
X119872744Y-118269819D01*
X119872744Y-118269819D02*
X120015601Y-118317438D01*
X120015601Y-118317438D02*
X120110839Y-118412676D01*
X120110839Y-118412676D02*
X120158458Y-118507914D01*
X120158458Y-118507914D02*
X120206077Y-118698390D01*
X120206077Y-118698390D02*
X120206077Y-118841247D01*
X120206077Y-118841247D02*
X120158458Y-119031723D01*
X120158458Y-119031723D02*
X120110839Y-119126961D01*
X120110839Y-119126961D02*
X120015601Y-119222200D01*
X120015601Y-119222200D02*
X119872744Y-119269819D01*
X119872744Y-119269819D02*
X119777506Y-119269819D01*
X119777506Y-119269819D02*
X119634649Y-119222200D01*
X119634649Y-119222200D02*
X119587030Y-119174580D01*
X119587030Y-119174580D02*
X119587030Y-118841247D01*
X119587030Y-118841247D02*
X119777506Y-118841247D01*
X119158458Y-118746009D02*
X118825125Y-118746009D01*
X118682268Y-119269819D02*
X119158458Y-119269819D01*
X119158458Y-119269819D02*
X119158458Y-118269819D01*
X119158458Y-118269819D02*
X118682268Y-118269819D01*
X117682268Y-119269819D02*
X118015601Y-118793628D01*
X118253696Y-119269819D02*
X118253696Y-118269819D01*
X118253696Y-118269819D02*
X117872744Y-118269819D01*
X117872744Y-118269819D02*
X117777506Y-118317438D01*
X117777506Y-118317438D02*
X117729887Y-118365057D01*
X117729887Y-118365057D02*
X117682268Y-118460295D01*
X117682268Y-118460295D02*
X117682268Y-118603152D01*
X117682268Y-118603152D02*
X117729887Y-118698390D01*
X117729887Y-118698390D02*
X117777506Y-118746009D01*
X117777506Y-118746009D02*
X117872744Y-118793628D01*
X117872744Y-118793628D02*
X118253696Y-118793628D01*
X116539410Y-118365057D02*
X116491791Y-118317438D01*
X116491791Y-118317438D02*
X116396553Y-118269819D01*
X116396553Y-118269819D02*
X116158458Y-118269819D01*
X116158458Y-118269819D02*
X116063220Y-118317438D01*
X116063220Y-118317438D02*
X116015601Y-118365057D01*
X116015601Y-118365057D02*
X115967982Y-118460295D01*
X115967982Y-118460295D02*
X115967982Y-118555533D01*
X115967982Y-118555533D02*
X116015601Y-118698390D01*
X116015601Y-118698390D02*
X116587029Y-119269819D01*
X116587029Y-119269819D02*
X115967982Y-119269819D01*
X115348934Y-118269819D02*
X115253696Y-118269819D01*
X115253696Y-118269819D02*
X115158458Y-118317438D01*
X115158458Y-118317438D02*
X115110839Y-118365057D01*
X115110839Y-118365057D02*
X115063220Y-118460295D01*
X115063220Y-118460295D02*
X115015601Y-118650771D01*
X115015601Y-118650771D02*
X115015601Y-118888866D01*
X115015601Y-118888866D02*
X115063220Y-119079342D01*
X115063220Y-119079342D02*
X115110839Y-119174580D01*
X115110839Y-119174580D02*
X115158458Y-119222200D01*
X115158458Y-119222200D02*
X115253696Y-119269819D01*
X115253696Y-119269819D02*
X115348934Y-119269819D01*
X115348934Y-119269819D02*
X115444172Y-119222200D01*
X115444172Y-119222200D02*
X115491791Y-119174580D01*
X115491791Y-119174580D02*
X115539410Y-119079342D01*
X115539410Y-119079342D02*
X115587029Y-118888866D01*
X115587029Y-118888866D02*
X115587029Y-118650771D01*
X115587029Y-118650771D02*
X115539410Y-118460295D01*
X115539410Y-118460295D02*
X115491791Y-118365057D01*
X115491791Y-118365057D02*
X115444172Y-118317438D01*
X115444172Y-118317438D02*
X115348934Y-118269819D01*
X114634648Y-118365057D02*
X114587029Y-118317438D01*
X114587029Y-118317438D02*
X114491791Y-118269819D01*
X114491791Y-118269819D02*
X114253696Y-118269819D01*
X114253696Y-118269819D02*
X114158458Y-118317438D01*
X114158458Y-118317438D02*
X114110839Y-118365057D01*
X114110839Y-118365057D02*
X114063220Y-118460295D01*
X114063220Y-118460295D02*
X114063220Y-118555533D01*
X114063220Y-118555533D02*
X114110839Y-118698390D01*
X114110839Y-118698390D02*
X114682267Y-119269819D01*
X114682267Y-119269819D02*
X114063220Y-119269819D01*
X113729886Y-118269819D02*
X113110839Y-118269819D01*
X113110839Y-118269819D02*
X113444172Y-118650771D01*
X113444172Y-118650771D02*
X113301315Y-118650771D01*
X113301315Y-118650771D02*
X113206077Y-118698390D01*
X113206077Y-118698390D02*
X113158458Y-118746009D01*
X113158458Y-118746009D02*
X113110839Y-118841247D01*
X113110839Y-118841247D02*
X113110839Y-119079342D01*
X113110839Y-119079342D02*
X113158458Y-119174580D01*
X113158458Y-119174580D02*
X113206077Y-119222200D01*
X113206077Y-119222200D02*
X113301315Y-119269819D01*
X113301315Y-119269819D02*
X113587029Y-119269819D01*
X113587029Y-119269819D02*
X113682267Y-119222200D01*
X113682267Y-119222200D02*
X113729886Y-119174580D01*
X111634648Y-119650771D02*
X111682267Y-119603152D01*
X111682267Y-119603152D02*
X111777505Y-119460295D01*
X111777505Y-119460295D02*
X111825124Y-119365057D01*
X111825124Y-119365057D02*
X111872743Y-119222200D01*
X111872743Y-119222200D02*
X111920362Y-118984104D01*
X111920362Y-118984104D02*
X111920362Y-118793628D01*
X111920362Y-118793628D02*
X111872743Y-118555533D01*
X111872743Y-118555533D02*
X111825124Y-118412676D01*
X111825124Y-118412676D02*
X111777505Y-118317438D01*
X111777505Y-118317438D02*
X111682267Y-118174580D01*
X111682267Y-118174580D02*
X111634648Y-118126961D01*
X110682267Y-119174580D02*
X110729886Y-119222200D01*
X110729886Y-119222200D02*
X110872743Y-119269819D01*
X110872743Y-119269819D02*
X110967981Y-119269819D01*
X110967981Y-119269819D02*
X111110838Y-119222200D01*
X111110838Y-119222200D02*
X111206076Y-119126961D01*
X111206076Y-119126961D02*
X111253695Y-119031723D01*
X111253695Y-119031723D02*
X111301314Y-118841247D01*
X111301314Y-118841247D02*
X111301314Y-118698390D01*
X111301314Y-118698390D02*
X111253695Y-118507914D01*
X111253695Y-118507914D02*
X111206076Y-118412676D01*
X111206076Y-118412676D02*
X111110838Y-118317438D01*
X111110838Y-118317438D02*
X110967981Y-118269819D01*
X110967981Y-118269819D02*
X110872743Y-118269819D01*
X110872743Y-118269819D02*
X110729886Y-118317438D01*
X110729886Y-118317438D02*
X110682267Y-118365057D01*
X110348933Y-119650771D02*
X110301314Y-119603152D01*
X110301314Y-119603152D02*
X110206076Y-119460295D01*
X110206076Y-119460295D02*
X110158457Y-119365057D01*
X110158457Y-119365057D02*
X110110838Y-119222200D01*
X110110838Y-119222200D02*
X110063219Y-118984104D01*
X110063219Y-118984104D02*
X110063219Y-118793628D01*
X110063219Y-118793628D02*
X110110838Y-118555533D01*
X110110838Y-118555533D02*
X110158457Y-118412676D01*
X110158457Y-118412676D02*
X110206076Y-118317438D01*
X110206076Y-118317438D02*
X110301314Y-118174580D01*
X110301314Y-118174580D02*
X110348933Y-118126961D01*
X108825123Y-119269819D02*
X108825123Y-118269819D01*
X108825123Y-118746009D02*
X108253695Y-118746009D01*
X108253695Y-119269819D02*
X108253695Y-118269819D01*
X107777504Y-119269819D02*
X107777504Y-118269819D01*
X107777504Y-118269819D02*
X107206076Y-119269819D01*
X107206076Y-119269819D02*
X107206076Y-118269819D01*
X106825123Y-118269819D02*
X106158457Y-118269819D01*
X106158457Y-118269819D02*
X106825123Y-119269819D01*
X106825123Y-119269819D02*
X106158457Y-119269819D01*
X104444171Y-119269819D02*
X104777504Y-118793628D01*
X105015599Y-119269819D02*
X105015599Y-118269819D01*
X105015599Y-118269819D02*
X104634647Y-118269819D01*
X104634647Y-118269819D02*
X104539409Y-118317438D01*
X104539409Y-118317438D02*
X104491790Y-118365057D01*
X104491790Y-118365057D02*
X104444171Y-118460295D01*
X104444171Y-118460295D02*
X104444171Y-118603152D01*
X104444171Y-118603152D02*
X104491790Y-118698390D01*
X104491790Y-118698390D02*
X104539409Y-118746009D01*
X104539409Y-118746009D02*
X104634647Y-118793628D01*
X104634647Y-118793628D02*
X105015599Y-118793628D01*
X103634647Y-119222200D02*
X103729885Y-119269819D01*
X103729885Y-119269819D02*
X103920361Y-119269819D01*
X103920361Y-119269819D02*
X104015599Y-119222200D01*
X104015599Y-119222200D02*
X104063218Y-119126961D01*
X104063218Y-119126961D02*
X104063218Y-118746009D01*
X104063218Y-118746009D02*
X104015599Y-118650771D01*
X104015599Y-118650771D02*
X103920361Y-118603152D01*
X103920361Y-118603152D02*
X103729885Y-118603152D01*
X103729885Y-118603152D02*
X103634647Y-118650771D01*
X103634647Y-118650771D02*
X103587028Y-118746009D01*
X103587028Y-118746009D02*
X103587028Y-118841247D01*
X103587028Y-118841247D02*
X104063218Y-118936485D01*
X103253694Y-118603152D02*
X103015599Y-119269819D01*
X103015599Y-119269819D02*
X102777504Y-118603152D01*
X102396551Y-119174580D02*
X102348932Y-119222200D01*
X102348932Y-119222200D02*
X102396551Y-119269819D01*
X102396551Y-119269819D02*
X102444170Y-119222200D01*
X102444170Y-119222200D02*
X102396551Y-119174580D01*
X102396551Y-119174580D02*
X102396551Y-119269819D01*
X101967980Y-118365057D02*
X101920361Y-118317438D01*
X101920361Y-118317438D02*
X101825123Y-118269819D01*
X101825123Y-118269819D02*
X101587028Y-118269819D01*
X101587028Y-118269819D02*
X101491790Y-118317438D01*
X101491790Y-118317438D02*
X101444171Y-118365057D01*
X101444171Y-118365057D02*
X101396552Y-118460295D01*
X101396552Y-118460295D02*
X101396552Y-118555533D01*
X101396552Y-118555533D02*
X101444171Y-118698390D01*
X101444171Y-118698390D02*
X102015599Y-119269819D01*
X102015599Y-119269819D02*
X101396552Y-119269819D01*
%TO.C,R118*%
X88954819Y-82480952D02*
X88478628Y-82147619D01*
X88954819Y-81909524D02*
X87954819Y-81909524D01*
X87954819Y-81909524D02*
X87954819Y-82290476D01*
X87954819Y-82290476D02*
X88002438Y-82385714D01*
X88002438Y-82385714D02*
X88050057Y-82433333D01*
X88050057Y-82433333D02*
X88145295Y-82480952D01*
X88145295Y-82480952D02*
X88288152Y-82480952D01*
X88288152Y-82480952D02*
X88383390Y-82433333D01*
X88383390Y-82433333D02*
X88431009Y-82385714D01*
X88431009Y-82385714D02*
X88478628Y-82290476D01*
X88478628Y-82290476D02*
X88478628Y-81909524D01*
X88954819Y-83433333D02*
X88954819Y-82861905D01*
X88954819Y-83147619D02*
X87954819Y-83147619D01*
X87954819Y-83147619D02*
X88097676Y-83052381D01*
X88097676Y-83052381D02*
X88192914Y-82957143D01*
X88192914Y-82957143D02*
X88240533Y-82861905D01*
X88954819Y-84385714D02*
X88954819Y-83814286D01*
X88954819Y-84100000D02*
X87954819Y-84100000D01*
X87954819Y-84100000D02*
X88097676Y-84004762D01*
X88097676Y-84004762D02*
X88192914Y-83909524D01*
X88192914Y-83909524D02*
X88240533Y-83814286D01*
X88383390Y-84957143D02*
X88335771Y-84861905D01*
X88335771Y-84861905D02*
X88288152Y-84814286D01*
X88288152Y-84814286D02*
X88192914Y-84766667D01*
X88192914Y-84766667D02*
X88145295Y-84766667D01*
X88145295Y-84766667D02*
X88050057Y-84814286D01*
X88050057Y-84814286D02*
X88002438Y-84861905D01*
X88002438Y-84861905D02*
X87954819Y-84957143D01*
X87954819Y-84957143D02*
X87954819Y-85147619D01*
X87954819Y-85147619D02*
X88002438Y-85242857D01*
X88002438Y-85242857D02*
X88050057Y-85290476D01*
X88050057Y-85290476D02*
X88145295Y-85338095D01*
X88145295Y-85338095D02*
X88192914Y-85338095D01*
X88192914Y-85338095D02*
X88288152Y-85290476D01*
X88288152Y-85290476D02*
X88335771Y-85242857D01*
X88335771Y-85242857D02*
X88383390Y-85147619D01*
X88383390Y-85147619D02*
X88383390Y-84957143D01*
X88383390Y-84957143D02*
X88431009Y-84861905D01*
X88431009Y-84861905D02*
X88478628Y-84814286D01*
X88478628Y-84814286D02*
X88573866Y-84766667D01*
X88573866Y-84766667D02*
X88764342Y-84766667D01*
X88764342Y-84766667D02*
X88859580Y-84814286D01*
X88859580Y-84814286D02*
X88907200Y-84861905D01*
X88907200Y-84861905D02*
X88954819Y-84957143D01*
X88954819Y-84957143D02*
X88954819Y-85147619D01*
X88954819Y-85147619D02*
X88907200Y-85242857D01*
X88907200Y-85242857D02*
X88859580Y-85290476D01*
X88859580Y-85290476D02*
X88764342Y-85338095D01*
X88764342Y-85338095D02*
X88573866Y-85338095D01*
X88573866Y-85338095D02*
X88478628Y-85290476D01*
X88478628Y-85290476D02*
X88431009Y-85242857D01*
X88431009Y-85242857D02*
X88383390Y-85147619D01*
%TO.C,C111*%
X88759580Y-78780952D02*
X88807200Y-78733333D01*
X88807200Y-78733333D02*
X88854819Y-78590476D01*
X88854819Y-78590476D02*
X88854819Y-78495238D01*
X88854819Y-78495238D02*
X88807200Y-78352381D01*
X88807200Y-78352381D02*
X88711961Y-78257143D01*
X88711961Y-78257143D02*
X88616723Y-78209524D01*
X88616723Y-78209524D02*
X88426247Y-78161905D01*
X88426247Y-78161905D02*
X88283390Y-78161905D01*
X88283390Y-78161905D02*
X88092914Y-78209524D01*
X88092914Y-78209524D02*
X87997676Y-78257143D01*
X87997676Y-78257143D02*
X87902438Y-78352381D01*
X87902438Y-78352381D02*
X87854819Y-78495238D01*
X87854819Y-78495238D02*
X87854819Y-78590476D01*
X87854819Y-78590476D02*
X87902438Y-78733333D01*
X87902438Y-78733333D02*
X87950057Y-78780952D01*
X88854819Y-79733333D02*
X88854819Y-79161905D01*
X88854819Y-79447619D02*
X87854819Y-79447619D01*
X87854819Y-79447619D02*
X87997676Y-79352381D01*
X87997676Y-79352381D02*
X88092914Y-79257143D01*
X88092914Y-79257143D02*
X88140533Y-79161905D01*
X88854819Y-80685714D02*
X88854819Y-80114286D01*
X88854819Y-80400000D02*
X87854819Y-80400000D01*
X87854819Y-80400000D02*
X87997676Y-80304762D01*
X87997676Y-80304762D02*
X88092914Y-80209524D01*
X88092914Y-80209524D02*
X88140533Y-80114286D01*
X88854819Y-81638095D02*
X88854819Y-81066667D01*
X88854819Y-81352381D02*
X87854819Y-81352381D01*
X87854819Y-81352381D02*
X87997676Y-81257143D01*
X87997676Y-81257143D02*
X88092914Y-81161905D01*
X88092914Y-81161905D02*
X88140533Y-81066667D01*
%TO.C,R102*%
X124204819Y-106580952D02*
X123728628Y-106247619D01*
X124204819Y-106009524D02*
X123204819Y-106009524D01*
X123204819Y-106009524D02*
X123204819Y-106390476D01*
X123204819Y-106390476D02*
X123252438Y-106485714D01*
X123252438Y-106485714D02*
X123300057Y-106533333D01*
X123300057Y-106533333D02*
X123395295Y-106580952D01*
X123395295Y-106580952D02*
X123538152Y-106580952D01*
X123538152Y-106580952D02*
X123633390Y-106533333D01*
X123633390Y-106533333D02*
X123681009Y-106485714D01*
X123681009Y-106485714D02*
X123728628Y-106390476D01*
X123728628Y-106390476D02*
X123728628Y-106009524D01*
X124204819Y-107533333D02*
X124204819Y-106961905D01*
X124204819Y-107247619D02*
X123204819Y-107247619D01*
X123204819Y-107247619D02*
X123347676Y-107152381D01*
X123347676Y-107152381D02*
X123442914Y-107057143D01*
X123442914Y-107057143D02*
X123490533Y-106961905D01*
X123204819Y-108152381D02*
X123204819Y-108247619D01*
X123204819Y-108247619D02*
X123252438Y-108342857D01*
X123252438Y-108342857D02*
X123300057Y-108390476D01*
X123300057Y-108390476D02*
X123395295Y-108438095D01*
X123395295Y-108438095D02*
X123585771Y-108485714D01*
X123585771Y-108485714D02*
X123823866Y-108485714D01*
X123823866Y-108485714D02*
X124014342Y-108438095D01*
X124014342Y-108438095D02*
X124109580Y-108390476D01*
X124109580Y-108390476D02*
X124157200Y-108342857D01*
X124157200Y-108342857D02*
X124204819Y-108247619D01*
X124204819Y-108247619D02*
X124204819Y-108152381D01*
X124204819Y-108152381D02*
X124157200Y-108057143D01*
X124157200Y-108057143D02*
X124109580Y-108009524D01*
X124109580Y-108009524D02*
X124014342Y-107961905D01*
X124014342Y-107961905D02*
X123823866Y-107914286D01*
X123823866Y-107914286D02*
X123585771Y-107914286D01*
X123585771Y-107914286D02*
X123395295Y-107961905D01*
X123395295Y-107961905D02*
X123300057Y-108009524D01*
X123300057Y-108009524D02*
X123252438Y-108057143D01*
X123252438Y-108057143D02*
X123204819Y-108152381D01*
X123300057Y-108866667D02*
X123252438Y-108914286D01*
X123252438Y-108914286D02*
X123204819Y-109009524D01*
X123204819Y-109009524D02*
X123204819Y-109247619D01*
X123204819Y-109247619D02*
X123252438Y-109342857D01*
X123252438Y-109342857D02*
X123300057Y-109390476D01*
X123300057Y-109390476D02*
X123395295Y-109438095D01*
X123395295Y-109438095D02*
X123490533Y-109438095D01*
X123490533Y-109438095D02*
X123633390Y-109390476D01*
X123633390Y-109390476D02*
X124204819Y-108819048D01*
X124204819Y-108819048D02*
X124204819Y-109438095D01*
%TO.C,R105*%
X127019047Y-63504819D02*
X127352380Y-63028628D01*
X127590475Y-63504819D02*
X127590475Y-62504819D01*
X127590475Y-62504819D02*
X127209523Y-62504819D01*
X127209523Y-62504819D02*
X127114285Y-62552438D01*
X127114285Y-62552438D02*
X127066666Y-62600057D01*
X127066666Y-62600057D02*
X127019047Y-62695295D01*
X127019047Y-62695295D02*
X127019047Y-62838152D01*
X127019047Y-62838152D02*
X127066666Y-62933390D01*
X127066666Y-62933390D02*
X127114285Y-62981009D01*
X127114285Y-62981009D02*
X127209523Y-63028628D01*
X127209523Y-63028628D02*
X127590475Y-63028628D01*
X126066666Y-63504819D02*
X126638094Y-63504819D01*
X126352380Y-63504819D02*
X126352380Y-62504819D01*
X126352380Y-62504819D02*
X126447618Y-62647676D01*
X126447618Y-62647676D02*
X126542856Y-62742914D01*
X126542856Y-62742914D02*
X126638094Y-62790533D01*
X125447618Y-62504819D02*
X125352380Y-62504819D01*
X125352380Y-62504819D02*
X125257142Y-62552438D01*
X125257142Y-62552438D02*
X125209523Y-62600057D01*
X125209523Y-62600057D02*
X125161904Y-62695295D01*
X125161904Y-62695295D02*
X125114285Y-62885771D01*
X125114285Y-62885771D02*
X125114285Y-63123866D01*
X125114285Y-63123866D02*
X125161904Y-63314342D01*
X125161904Y-63314342D02*
X125209523Y-63409580D01*
X125209523Y-63409580D02*
X125257142Y-63457200D01*
X125257142Y-63457200D02*
X125352380Y-63504819D01*
X125352380Y-63504819D02*
X125447618Y-63504819D01*
X125447618Y-63504819D02*
X125542856Y-63457200D01*
X125542856Y-63457200D02*
X125590475Y-63409580D01*
X125590475Y-63409580D02*
X125638094Y-63314342D01*
X125638094Y-63314342D02*
X125685713Y-63123866D01*
X125685713Y-63123866D02*
X125685713Y-62885771D01*
X125685713Y-62885771D02*
X125638094Y-62695295D01*
X125638094Y-62695295D02*
X125590475Y-62600057D01*
X125590475Y-62600057D02*
X125542856Y-62552438D01*
X125542856Y-62552438D02*
X125447618Y-62504819D01*
X124209523Y-62504819D02*
X124685713Y-62504819D01*
X124685713Y-62504819D02*
X124733332Y-62981009D01*
X124733332Y-62981009D02*
X124685713Y-62933390D01*
X124685713Y-62933390D02*
X124590475Y-62885771D01*
X124590475Y-62885771D02*
X124352380Y-62885771D01*
X124352380Y-62885771D02*
X124257142Y-62933390D01*
X124257142Y-62933390D02*
X124209523Y-62981009D01*
X124209523Y-62981009D02*
X124161904Y-63076247D01*
X124161904Y-63076247D02*
X124161904Y-63314342D01*
X124161904Y-63314342D02*
X124209523Y-63409580D01*
X124209523Y-63409580D02*
X124257142Y-63457200D01*
X124257142Y-63457200D02*
X124352380Y-63504819D01*
X124352380Y-63504819D02*
X124590475Y-63504819D01*
X124590475Y-63504819D02*
X124685713Y-63457200D01*
X124685713Y-63457200D02*
X124733332Y-63409580D01*
%TO.C,C109*%
X97519047Y-61259580D02*
X97566666Y-61307200D01*
X97566666Y-61307200D02*
X97709523Y-61354819D01*
X97709523Y-61354819D02*
X97804761Y-61354819D01*
X97804761Y-61354819D02*
X97947618Y-61307200D01*
X97947618Y-61307200D02*
X98042856Y-61211961D01*
X98042856Y-61211961D02*
X98090475Y-61116723D01*
X98090475Y-61116723D02*
X98138094Y-60926247D01*
X98138094Y-60926247D02*
X98138094Y-60783390D01*
X98138094Y-60783390D02*
X98090475Y-60592914D01*
X98090475Y-60592914D02*
X98042856Y-60497676D01*
X98042856Y-60497676D02*
X97947618Y-60402438D01*
X97947618Y-60402438D02*
X97804761Y-60354819D01*
X97804761Y-60354819D02*
X97709523Y-60354819D01*
X97709523Y-60354819D02*
X97566666Y-60402438D01*
X97566666Y-60402438D02*
X97519047Y-60450057D01*
X96566666Y-61354819D02*
X97138094Y-61354819D01*
X96852380Y-61354819D02*
X96852380Y-60354819D01*
X96852380Y-60354819D02*
X96947618Y-60497676D01*
X96947618Y-60497676D02*
X97042856Y-60592914D01*
X97042856Y-60592914D02*
X97138094Y-60640533D01*
X95947618Y-60354819D02*
X95852380Y-60354819D01*
X95852380Y-60354819D02*
X95757142Y-60402438D01*
X95757142Y-60402438D02*
X95709523Y-60450057D01*
X95709523Y-60450057D02*
X95661904Y-60545295D01*
X95661904Y-60545295D02*
X95614285Y-60735771D01*
X95614285Y-60735771D02*
X95614285Y-60973866D01*
X95614285Y-60973866D02*
X95661904Y-61164342D01*
X95661904Y-61164342D02*
X95709523Y-61259580D01*
X95709523Y-61259580D02*
X95757142Y-61307200D01*
X95757142Y-61307200D02*
X95852380Y-61354819D01*
X95852380Y-61354819D02*
X95947618Y-61354819D01*
X95947618Y-61354819D02*
X96042856Y-61307200D01*
X96042856Y-61307200D02*
X96090475Y-61259580D01*
X96090475Y-61259580D02*
X96138094Y-61164342D01*
X96138094Y-61164342D02*
X96185713Y-60973866D01*
X96185713Y-60973866D02*
X96185713Y-60735771D01*
X96185713Y-60735771D02*
X96138094Y-60545295D01*
X96138094Y-60545295D02*
X96090475Y-60450057D01*
X96090475Y-60450057D02*
X96042856Y-60402438D01*
X96042856Y-60402438D02*
X95947618Y-60354819D01*
X95138094Y-61354819D02*
X94947618Y-61354819D01*
X94947618Y-61354819D02*
X94852380Y-61307200D01*
X94852380Y-61307200D02*
X94804761Y-61259580D01*
X94804761Y-61259580D02*
X94709523Y-61116723D01*
X94709523Y-61116723D02*
X94661904Y-60926247D01*
X94661904Y-60926247D02*
X94661904Y-60545295D01*
X94661904Y-60545295D02*
X94709523Y-60450057D01*
X94709523Y-60450057D02*
X94757142Y-60402438D01*
X94757142Y-60402438D02*
X94852380Y-60354819D01*
X94852380Y-60354819D02*
X95042856Y-60354819D01*
X95042856Y-60354819D02*
X95138094Y-60402438D01*
X95138094Y-60402438D02*
X95185713Y-60450057D01*
X95185713Y-60450057D02*
X95233332Y-60545295D01*
X95233332Y-60545295D02*
X95233332Y-60783390D01*
X95233332Y-60783390D02*
X95185713Y-60878628D01*
X95185713Y-60878628D02*
X95138094Y-60926247D01*
X95138094Y-60926247D02*
X95042856Y-60973866D01*
X95042856Y-60973866D02*
X94852380Y-60973866D01*
X94852380Y-60973866D02*
X94757142Y-60926247D01*
X94757142Y-60926247D02*
X94709523Y-60878628D01*
X94709523Y-60878628D02*
X94661904Y-60783390D01*
%TO.C,U103*%
X108054819Y-107385714D02*
X108864342Y-107385714D01*
X108864342Y-107385714D02*
X108959580Y-107433333D01*
X108959580Y-107433333D02*
X109007200Y-107480952D01*
X109007200Y-107480952D02*
X109054819Y-107576190D01*
X109054819Y-107576190D02*
X109054819Y-107766666D01*
X109054819Y-107766666D02*
X109007200Y-107861904D01*
X109007200Y-107861904D02*
X108959580Y-107909523D01*
X108959580Y-107909523D02*
X108864342Y-107957142D01*
X108864342Y-107957142D02*
X108054819Y-107957142D01*
X109054819Y-108957142D02*
X109054819Y-108385714D01*
X109054819Y-108671428D02*
X108054819Y-108671428D01*
X108054819Y-108671428D02*
X108197676Y-108576190D01*
X108197676Y-108576190D02*
X108292914Y-108480952D01*
X108292914Y-108480952D02*
X108340533Y-108385714D01*
X108054819Y-109576190D02*
X108054819Y-109671428D01*
X108054819Y-109671428D02*
X108102438Y-109766666D01*
X108102438Y-109766666D02*
X108150057Y-109814285D01*
X108150057Y-109814285D02*
X108245295Y-109861904D01*
X108245295Y-109861904D02*
X108435771Y-109909523D01*
X108435771Y-109909523D02*
X108673866Y-109909523D01*
X108673866Y-109909523D02*
X108864342Y-109861904D01*
X108864342Y-109861904D02*
X108959580Y-109814285D01*
X108959580Y-109814285D02*
X109007200Y-109766666D01*
X109007200Y-109766666D02*
X109054819Y-109671428D01*
X109054819Y-109671428D02*
X109054819Y-109576190D01*
X109054819Y-109576190D02*
X109007200Y-109480952D01*
X109007200Y-109480952D02*
X108959580Y-109433333D01*
X108959580Y-109433333D02*
X108864342Y-109385714D01*
X108864342Y-109385714D02*
X108673866Y-109338095D01*
X108673866Y-109338095D02*
X108435771Y-109338095D01*
X108435771Y-109338095D02*
X108245295Y-109385714D01*
X108245295Y-109385714D02*
X108150057Y-109433333D01*
X108150057Y-109433333D02*
X108102438Y-109480952D01*
X108102438Y-109480952D02*
X108054819Y-109576190D01*
X108054819Y-110242857D02*
X108054819Y-110861904D01*
X108054819Y-110861904D02*
X108435771Y-110528571D01*
X108435771Y-110528571D02*
X108435771Y-110671428D01*
X108435771Y-110671428D02*
X108483390Y-110766666D01*
X108483390Y-110766666D02*
X108531009Y-110814285D01*
X108531009Y-110814285D02*
X108626247Y-110861904D01*
X108626247Y-110861904D02*
X108864342Y-110861904D01*
X108864342Y-110861904D02*
X108959580Y-110814285D01*
X108959580Y-110814285D02*
X109007200Y-110766666D01*
X109007200Y-110766666D02*
X109054819Y-110671428D01*
X109054819Y-110671428D02*
X109054819Y-110385714D01*
X109054819Y-110385714D02*
X109007200Y-110290476D01*
X109007200Y-110290476D02*
X108959580Y-110242857D01*
%TO.C,Y102*%
X99678628Y-60671428D02*
X100154819Y-60671428D01*
X99154819Y-60338095D02*
X99678628Y-60671428D01*
X99678628Y-60671428D02*
X99154819Y-61004761D01*
X100154819Y-61861904D02*
X100154819Y-61290476D01*
X100154819Y-61576190D02*
X99154819Y-61576190D01*
X99154819Y-61576190D02*
X99297676Y-61480952D01*
X99297676Y-61480952D02*
X99392914Y-61385714D01*
X99392914Y-61385714D02*
X99440533Y-61290476D01*
X99154819Y-62480952D02*
X99154819Y-62576190D01*
X99154819Y-62576190D02*
X99202438Y-62671428D01*
X99202438Y-62671428D02*
X99250057Y-62719047D01*
X99250057Y-62719047D02*
X99345295Y-62766666D01*
X99345295Y-62766666D02*
X99535771Y-62814285D01*
X99535771Y-62814285D02*
X99773866Y-62814285D01*
X99773866Y-62814285D02*
X99964342Y-62766666D01*
X99964342Y-62766666D02*
X100059580Y-62719047D01*
X100059580Y-62719047D02*
X100107200Y-62671428D01*
X100107200Y-62671428D02*
X100154819Y-62576190D01*
X100154819Y-62576190D02*
X100154819Y-62480952D01*
X100154819Y-62480952D02*
X100107200Y-62385714D01*
X100107200Y-62385714D02*
X100059580Y-62338095D01*
X100059580Y-62338095D02*
X99964342Y-62290476D01*
X99964342Y-62290476D02*
X99773866Y-62242857D01*
X99773866Y-62242857D02*
X99535771Y-62242857D01*
X99535771Y-62242857D02*
X99345295Y-62290476D01*
X99345295Y-62290476D02*
X99250057Y-62338095D01*
X99250057Y-62338095D02*
X99202438Y-62385714D01*
X99202438Y-62385714D02*
X99154819Y-62480952D01*
X99250057Y-63195238D02*
X99202438Y-63242857D01*
X99202438Y-63242857D02*
X99154819Y-63338095D01*
X99154819Y-63338095D02*
X99154819Y-63576190D01*
X99154819Y-63576190D02*
X99202438Y-63671428D01*
X99202438Y-63671428D02*
X99250057Y-63719047D01*
X99250057Y-63719047D02*
X99345295Y-63766666D01*
X99345295Y-63766666D02*
X99440533Y-63766666D01*
X99440533Y-63766666D02*
X99583390Y-63719047D01*
X99583390Y-63719047D02*
X100154819Y-63147619D01*
X100154819Y-63147619D02*
X100154819Y-63766666D01*
%TO.C,R114*%
X95919047Y-76604819D02*
X96252380Y-76128628D01*
X96490475Y-76604819D02*
X96490475Y-75604819D01*
X96490475Y-75604819D02*
X96109523Y-75604819D01*
X96109523Y-75604819D02*
X96014285Y-75652438D01*
X96014285Y-75652438D02*
X95966666Y-75700057D01*
X95966666Y-75700057D02*
X95919047Y-75795295D01*
X95919047Y-75795295D02*
X95919047Y-75938152D01*
X95919047Y-75938152D02*
X95966666Y-76033390D01*
X95966666Y-76033390D02*
X96014285Y-76081009D01*
X96014285Y-76081009D02*
X96109523Y-76128628D01*
X96109523Y-76128628D02*
X96490475Y-76128628D01*
X94966666Y-76604819D02*
X95538094Y-76604819D01*
X95252380Y-76604819D02*
X95252380Y-75604819D01*
X95252380Y-75604819D02*
X95347618Y-75747676D01*
X95347618Y-75747676D02*
X95442856Y-75842914D01*
X95442856Y-75842914D02*
X95538094Y-75890533D01*
X94014285Y-76604819D02*
X94585713Y-76604819D01*
X94299999Y-76604819D02*
X94299999Y-75604819D01*
X94299999Y-75604819D02*
X94395237Y-75747676D01*
X94395237Y-75747676D02*
X94490475Y-75842914D01*
X94490475Y-75842914D02*
X94585713Y-75890533D01*
X93157142Y-75938152D02*
X93157142Y-76604819D01*
X93395237Y-75557200D02*
X93633332Y-76271485D01*
X93633332Y-76271485D02*
X93014285Y-76271485D01*
%TO.C,C110*%
X97619047Y-55559580D02*
X97666666Y-55607200D01*
X97666666Y-55607200D02*
X97809523Y-55654819D01*
X97809523Y-55654819D02*
X97904761Y-55654819D01*
X97904761Y-55654819D02*
X98047618Y-55607200D01*
X98047618Y-55607200D02*
X98142856Y-55511961D01*
X98142856Y-55511961D02*
X98190475Y-55416723D01*
X98190475Y-55416723D02*
X98238094Y-55226247D01*
X98238094Y-55226247D02*
X98238094Y-55083390D01*
X98238094Y-55083390D02*
X98190475Y-54892914D01*
X98190475Y-54892914D02*
X98142856Y-54797676D01*
X98142856Y-54797676D02*
X98047618Y-54702438D01*
X98047618Y-54702438D02*
X97904761Y-54654819D01*
X97904761Y-54654819D02*
X97809523Y-54654819D01*
X97809523Y-54654819D02*
X97666666Y-54702438D01*
X97666666Y-54702438D02*
X97619047Y-54750057D01*
X96666666Y-55654819D02*
X97238094Y-55654819D01*
X96952380Y-55654819D02*
X96952380Y-54654819D01*
X96952380Y-54654819D02*
X97047618Y-54797676D01*
X97047618Y-54797676D02*
X97142856Y-54892914D01*
X97142856Y-54892914D02*
X97238094Y-54940533D01*
X95714285Y-55654819D02*
X96285713Y-55654819D01*
X95999999Y-55654819D02*
X95999999Y-54654819D01*
X95999999Y-54654819D02*
X96095237Y-54797676D01*
X96095237Y-54797676D02*
X96190475Y-54892914D01*
X96190475Y-54892914D02*
X96285713Y-54940533D01*
X95095237Y-54654819D02*
X94999999Y-54654819D01*
X94999999Y-54654819D02*
X94904761Y-54702438D01*
X94904761Y-54702438D02*
X94857142Y-54750057D01*
X94857142Y-54750057D02*
X94809523Y-54845295D01*
X94809523Y-54845295D02*
X94761904Y-55035771D01*
X94761904Y-55035771D02*
X94761904Y-55273866D01*
X94761904Y-55273866D02*
X94809523Y-55464342D01*
X94809523Y-55464342D02*
X94857142Y-55559580D01*
X94857142Y-55559580D02*
X94904761Y-55607200D01*
X94904761Y-55607200D02*
X94999999Y-55654819D01*
X94999999Y-55654819D02*
X95095237Y-55654819D01*
X95095237Y-55654819D02*
X95190475Y-55607200D01*
X95190475Y-55607200D02*
X95238094Y-55559580D01*
X95238094Y-55559580D02*
X95285713Y-55464342D01*
X95285713Y-55464342D02*
X95333332Y-55273866D01*
X95333332Y-55273866D02*
X95333332Y-55035771D01*
X95333332Y-55035771D02*
X95285713Y-54845295D01*
X95285713Y-54845295D02*
X95238094Y-54750057D01*
X95238094Y-54750057D02*
X95190475Y-54702438D01*
X95190475Y-54702438D02*
X95095237Y-54654819D01*
%TO.C,R101*%
X89554819Y-109880952D02*
X89078628Y-109547619D01*
X89554819Y-109309524D02*
X88554819Y-109309524D01*
X88554819Y-109309524D02*
X88554819Y-109690476D01*
X88554819Y-109690476D02*
X88602438Y-109785714D01*
X88602438Y-109785714D02*
X88650057Y-109833333D01*
X88650057Y-109833333D02*
X88745295Y-109880952D01*
X88745295Y-109880952D02*
X88888152Y-109880952D01*
X88888152Y-109880952D02*
X88983390Y-109833333D01*
X88983390Y-109833333D02*
X89031009Y-109785714D01*
X89031009Y-109785714D02*
X89078628Y-109690476D01*
X89078628Y-109690476D02*
X89078628Y-109309524D01*
X89554819Y-110833333D02*
X89554819Y-110261905D01*
X89554819Y-110547619D02*
X88554819Y-110547619D01*
X88554819Y-110547619D02*
X88697676Y-110452381D01*
X88697676Y-110452381D02*
X88792914Y-110357143D01*
X88792914Y-110357143D02*
X88840533Y-110261905D01*
X88554819Y-111452381D02*
X88554819Y-111547619D01*
X88554819Y-111547619D02*
X88602438Y-111642857D01*
X88602438Y-111642857D02*
X88650057Y-111690476D01*
X88650057Y-111690476D02*
X88745295Y-111738095D01*
X88745295Y-111738095D02*
X88935771Y-111785714D01*
X88935771Y-111785714D02*
X89173866Y-111785714D01*
X89173866Y-111785714D02*
X89364342Y-111738095D01*
X89364342Y-111738095D02*
X89459580Y-111690476D01*
X89459580Y-111690476D02*
X89507200Y-111642857D01*
X89507200Y-111642857D02*
X89554819Y-111547619D01*
X89554819Y-111547619D02*
X89554819Y-111452381D01*
X89554819Y-111452381D02*
X89507200Y-111357143D01*
X89507200Y-111357143D02*
X89459580Y-111309524D01*
X89459580Y-111309524D02*
X89364342Y-111261905D01*
X89364342Y-111261905D02*
X89173866Y-111214286D01*
X89173866Y-111214286D02*
X88935771Y-111214286D01*
X88935771Y-111214286D02*
X88745295Y-111261905D01*
X88745295Y-111261905D02*
X88650057Y-111309524D01*
X88650057Y-111309524D02*
X88602438Y-111357143D01*
X88602438Y-111357143D02*
X88554819Y-111452381D01*
X89554819Y-112738095D02*
X89554819Y-112166667D01*
X89554819Y-112452381D02*
X88554819Y-112452381D01*
X88554819Y-112452381D02*
X88697676Y-112357143D01*
X88697676Y-112357143D02*
X88792914Y-112261905D01*
X88792914Y-112261905D02*
X88840533Y-112166667D01*
%TO.C,R113*%
X95919047Y-70104819D02*
X96252380Y-69628628D01*
X96490475Y-70104819D02*
X96490475Y-69104819D01*
X96490475Y-69104819D02*
X96109523Y-69104819D01*
X96109523Y-69104819D02*
X96014285Y-69152438D01*
X96014285Y-69152438D02*
X95966666Y-69200057D01*
X95966666Y-69200057D02*
X95919047Y-69295295D01*
X95919047Y-69295295D02*
X95919047Y-69438152D01*
X95919047Y-69438152D02*
X95966666Y-69533390D01*
X95966666Y-69533390D02*
X96014285Y-69581009D01*
X96014285Y-69581009D02*
X96109523Y-69628628D01*
X96109523Y-69628628D02*
X96490475Y-69628628D01*
X94966666Y-70104819D02*
X95538094Y-70104819D01*
X95252380Y-70104819D02*
X95252380Y-69104819D01*
X95252380Y-69104819D02*
X95347618Y-69247676D01*
X95347618Y-69247676D02*
X95442856Y-69342914D01*
X95442856Y-69342914D02*
X95538094Y-69390533D01*
X94014285Y-70104819D02*
X94585713Y-70104819D01*
X94299999Y-70104819D02*
X94299999Y-69104819D01*
X94299999Y-69104819D02*
X94395237Y-69247676D01*
X94395237Y-69247676D02*
X94490475Y-69342914D01*
X94490475Y-69342914D02*
X94585713Y-69390533D01*
X93680951Y-69104819D02*
X93061904Y-69104819D01*
X93061904Y-69104819D02*
X93395237Y-69485771D01*
X93395237Y-69485771D02*
X93252380Y-69485771D01*
X93252380Y-69485771D02*
X93157142Y-69533390D01*
X93157142Y-69533390D02*
X93109523Y-69581009D01*
X93109523Y-69581009D02*
X93061904Y-69676247D01*
X93061904Y-69676247D02*
X93061904Y-69914342D01*
X93061904Y-69914342D02*
X93109523Y-70009580D01*
X93109523Y-70009580D02*
X93157142Y-70057200D01*
X93157142Y-70057200D02*
X93252380Y-70104819D01*
X93252380Y-70104819D02*
X93538094Y-70104819D01*
X93538094Y-70104819D02*
X93633332Y-70057200D01*
X93633332Y-70057200D02*
X93680951Y-70009580D01*
%TO.C,Q101*%
X95547619Y-98550057D02*
X95642857Y-98502438D01*
X95642857Y-98502438D02*
X95738095Y-98407200D01*
X95738095Y-98407200D02*
X95880952Y-98264342D01*
X95880952Y-98264342D02*
X95976190Y-98216723D01*
X95976190Y-98216723D02*
X96071428Y-98216723D01*
X96023809Y-98454819D02*
X96119047Y-98407200D01*
X96119047Y-98407200D02*
X96214285Y-98311961D01*
X96214285Y-98311961D02*
X96261904Y-98121485D01*
X96261904Y-98121485D02*
X96261904Y-97788152D01*
X96261904Y-97788152D02*
X96214285Y-97597676D01*
X96214285Y-97597676D02*
X96119047Y-97502438D01*
X96119047Y-97502438D02*
X96023809Y-97454819D01*
X96023809Y-97454819D02*
X95833333Y-97454819D01*
X95833333Y-97454819D02*
X95738095Y-97502438D01*
X95738095Y-97502438D02*
X95642857Y-97597676D01*
X95642857Y-97597676D02*
X95595238Y-97788152D01*
X95595238Y-97788152D02*
X95595238Y-98121485D01*
X95595238Y-98121485D02*
X95642857Y-98311961D01*
X95642857Y-98311961D02*
X95738095Y-98407200D01*
X95738095Y-98407200D02*
X95833333Y-98454819D01*
X95833333Y-98454819D02*
X96023809Y-98454819D01*
X94642857Y-98454819D02*
X95214285Y-98454819D01*
X94928571Y-98454819D02*
X94928571Y-97454819D01*
X94928571Y-97454819D02*
X95023809Y-97597676D01*
X95023809Y-97597676D02*
X95119047Y-97692914D01*
X95119047Y-97692914D02*
X95214285Y-97740533D01*
X94023809Y-97454819D02*
X93928571Y-97454819D01*
X93928571Y-97454819D02*
X93833333Y-97502438D01*
X93833333Y-97502438D02*
X93785714Y-97550057D01*
X93785714Y-97550057D02*
X93738095Y-97645295D01*
X93738095Y-97645295D02*
X93690476Y-97835771D01*
X93690476Y-97835771D02*
X93690476Y-98073866D01*
X93690476Y-98073866D02*
X93738095Y-98264342D01*
X93738095Y-98264342D02*
X93785714Y-98359580D01*
X93785714Y-98359580D02*
X93833333Y-98407200D01*
X93833333Y-98407200D02*
X93928571Y-98454819D01*
X93928571Y-98454819D02*
X94023809Y-98454819D01*
X94023809Y-98454819D02*
X94119047Y-98407200D01*
X94119047Y-98407200D02*
X94166666Y-98359580D01*
X94166666Y-98359580D02*
X94214285Y-98264342D01*
X94214285Y-98264342D02*
X94261904Y-98073866D01*
X94261904Y-98073866D02*
X94261904Y-97835771D01*
X94261904Y-97835771D02*
X94214285Y-97645295D01*
X94214285Y-97645295D02*
X94166666Y-97550057D01*
X94166666Y-97550057D02*
X94119047Y-97502438D01*
X94119047Y-97502438D02*
X94023809Y-97454819D01*
X92738095Y-98454819D02*
X93309523Y-98454819D01*
X93023809Y-98454819D02*
X93023809Y-97454819D01*
X93023809Y-97454819D02*
X93119047Y-97597676D01*
X93119047Y-97597676D02*
X93214285Y-97692914D01*
X93214285Y-97692914D02*
X93309523Y-97740533D01*
%TO.C,C105*%
X116529580Y-106280952D02*
X116577200Y-106233333D01*
X116577200Y-106233333D02*
X116624819Y-106090476D01*
X116624819Y-106090476D02*
X116624819Y-105995238D01*
X116624819Y-105995238D02*
X116577200Y-105852381D01*
X116577200Y-105852381D02*
X116481961Y-105757143D01*
X116481961Y-105757143D02*
X116386723Y-105709524D01*
X116386723Y-105709524D02*
X116196247Y-105661905D01*
X116196247Y-105661905D02*
X116053390Y-105661905D01*
X116053390Y-105661905D02*
X115862914Y-105709524D01*
X115862914Y-105709524D02*
X115767676Y-105757143D01*
X115767676Y-105757143D02*
X115672438Y-105852381D01*
X115672438Y-105852381D02*
X115624819Y-105995238D01*
X115624819Y-105995238D02*
X115624819Y-106090476D01*
X115624819Y-106090476D02*
X115672438Y-106233333D01*
X115672438Y-106233333D02*
X115720057Y-106280952D01*
X116624819Y-107233333D02*
X116624819Y-106661905D01*
X116624819Y-106947619D02*
X115624819Y-106947619D01*
X115624819Y-106947619D02*
X115767676Y-106852381D01*
X115767676Y-106852381D02*
X115862914Y-106757143D01*
X115862914Y-106757143D02*
X115910533Y-106661905D01*
X115624819Y-107852381D02*
X115624819Y-107947619D01*
X115624819Y-107947619D02*
X115672438Y-108042857D01*
X115672438Y-108042857D02*
X115720057Y-108090476D01*
X115720057Y-108090476D02*
X115815295Y-108138095D01*
X115815295Y-108138095D02*
X116005771Y-108185714D01*
X116005771Y-108185714D02*
X116243866Y-108185714D01*
X116243866Y-108185714D02*
X116434342Y-108138095D01*
X116434342Y-108138095D02*
X116529580Y-108090476D01*
X116529580Y-108090476D02*
X116577200Y-108042857D01*
X116577200Y-108042857D02*
X116624819Y-107947619D01*
X116624819Y-107947619D02*
X116624819Y-107852381D01*
X116624819Y-107852381D02*
X116577200Y-107757143D01*
X116577200Y-107757143D02*
X116529580Y-107709524D01*
X116529580Y-107709524D02*
X116434342Y-107661905D01*
X116434342Y-107661905D02*
X116243866Y-107614286D01*
X116243866Y-107614286D02*
X116005771Y-107614286D01*
X116005771Y-107614286D02*
X115815295Y-107661905D01*
X115815295Y-107661905D02*
X115720057Y-107709524D01*
X115720057Y-107709524D02*
X115672438Y-107757143D01*
X115672438Y-107757143D02*
X115624819Y-107852381D01*
X115624819Y-109090476D02*
X115624819Y-108614286D01*
X115624819Y-108614286D02*
X116101009Y-108566667D01*
X116101009Y-108566667D02*
X116053390Y-108614286D01*
X116053390Y-108614286D02*
X116005771Y-108709524D01*
X116005771Y-108709524D02*
X116005771Y-108947619D01*
X116005771Y-108947619D02*
X116053390Y-109042857D01*
X116053390Y-109042857D02*
X116101009Y-109090476D01*
X116101009Y-109090476D02*
X116196247Y-109138095D01*
X116196247Y-109138095D02*
X116434342Y-109138095D01*
X116434342Y-109138095D02*
X116529580Y-109090476D01*
X116529580Y-109090476D02*
X116577200Y-109042857D01*
X116577200Y-109042857D02*
X116624819Y-108947619D01*
X116624819Y-108947619D02*
X116624819Y-108709524D01*
X116624819Y-108709524D02*
X116577200Y-108614286D01*
X116577200Y-108614286D02*
X116529580Y-108566667D01*
%TO.C,C107*%
X126719047Y-55359580D02*
X126766666Y-55407200D01*
X126766666Y-55407200D02*
X126909523Y-55454819D01*
X126909523Y-55454819D02*
X127004761Y-55454819D01*
X127004761Y-55454819D02*
X127147618Y-55407200D01*
X127147618Y-55407200D02*
X127242856Y-55311961D01*
X127242856Y-55311961D02*
X127290475Y-55216723D01*
X127290475Y-55216723D02*
X127338094Y-55026247D01*
X127338094Y-55026247D02*
X127338094Y-54883390D01*
X127338094Y-54883390D02*
X127290475Y-54692914D01*
X127290475Y-54692914D02*
X127242856Y-54597676D01*
X127242856Y-54597676D02*
X127147618Y-54502438D01*
X127147618Y-54502438D02*
X127004761Y-54454819D01*
X127004761Y-54454819D02*
X126909523Y-54454819D01*
X126909523Y-54454819D02*
X126766666Y-54502438D01*
X126766666Y-54502438D02*
X126719047Y-54550057D01*
X125766666Y-55454819D02*
X126338094Y-55454819D01*
X126052380Y-55454819D02*
X126052380Y-54454819D01*
X126052380Y-54454819D02*
X126147618Y-54597676D01*
X126147618Y-54597676D02*
X126242856Y-54692914D01*
X126242856Y-54692914D02*
X126338094Y-54740533D01*
X125147618Y-54454819D02*
X125052380Y-54454819D01*
X125052380Y-54454819D02*
X124957142Y-54502438D01*
X124957142Y-54502438D02*
X124909523Y-54550057D01*
X124909523Y-54550057D02*
X124861904Y-54645295D01*
X124861904Y-54645295D02*
X124814285Y-54835771D01*
X124814285Y-54835771D02*
X124814285Y-55073866D01*
X124814285Y-55073866D02*
X124861904Y-55264342D01*
X124861904Y-55264342D02*
X124909523Y-55359580D01*
X124909523Y-55359580D02*
X124957142Y-55407200D01*
X124957142Y-55407200D02*
X125052380Y-55454819D01*
X125052380Y-55454819D02*
X125147618Y-55454819D01*
X125147618Y-55454819D02*
X125242856Y-55407200D01*
X125242856Y-55407200D02*
X125290475Y-55359580D01*
X125290475Y-55359580D02*
X125338094Y-55264342D01*
X125338094Y-55264342D02*
X125385713Y-55073866D01*
X125385713Y-55073866D02*
X125385713Y-54835771D01*
X125385713Y-54835771D02*
X125338094Y-54645295D01*
X125338094Y-54645295D02*
X125290475Y-54550057D01*
X125290475Y-54550057D02*
X125242856Y-54502438D01*
X125242856Y-54502438D02*
X125147618Y-54454819D01*
X124480951Y-54454819D02*
X123814285Y-54454819D01*
X123814285Y-54454819D02*
X124242856Y-55454819D01*
%TO.C,R111*%
X97904819Y-99180952D02*
X97428628Y-98847619D01*
X97904819Y-98609524D02*
X96904819Y-98609524D01*
X96904819Y-98609524D02*
X96904819Y-98990476D01*
X96904819Y-98990476D02*
X96952438Y-99085714D01*
X96952438Y-99085714D02*
X97000057Y-99133333D01*
X97000057Y-99133333D02*
X97095295Y-99180952D01*
X97095295Y-99180952D02*
X97238152Y-99180952D01*
X97238152Y-99180952D02*
X97333390Y-99133333D01*
X97333390Y-99133333D02*
X97381009Y-99085714D01*
X97381009Y-99085714D02*
X97428628Y-98990476D01*
X97428628Y-98990476D02*
X97428628Y-98609524D01*
X97904819Y-100133333D02*
X97904819Y-99561905D01*
X97904819Y-99847619D02*
X96904819Y-99847619D01*
X96904819Y-99847619D02*
X97047676Y-99752381D01*
X97047676Y-99752381D02*
X97142914Y-99657143D01*
X97142914Y-99657143D02*
X97190533Y-99561905D01*
X97904819Y-101085714D02*
X97904819Y-100514286D01*
X97904819Y-100800000D02*
X96904819Y-100800000D01*
X96904819Y-100800000D02*
X97047676Y-100704762D01*
X97047676Y-100704762D02*
X97142914Y-100609524D01*
X97142914Y-100609524D02*
X97190533Y-100514286D01*
X97904819Y-102038095D02*
X97904819Y-101466667D01*
X97904819Y-101752381D02*
X96904819Y-101752381D01*
X96904819Y-101752381D02*
X97047676Y-101657143D01*
X97047676Y-101657143D02*
X97142914Y-101561905D01*
X97142914Y-101561905D02*
X97190533Y-101466667D01*
%TO.C,C106*%
X126519047Y-60589580D02*
X126566666Y-60637200D01*
X126566666Y-60637200D02*
X126709523Y-60684819D01*
X126709523Y-60684819D02*
X126804761Y-60684819D01*
X126804761Y-60684819D02*
X126947618Y-60637200D01*
X126947618Y-60637200D02*
X127042856Y-60541961D01*
X127042856Y-60541961D02*
X127090475Y-60446723D01*
X127090475Y-60446723D02*
X127138094Y-60256247D01*
X127138094Y-60256247D02*
X127138094Y-60113390D01*
X127138094Y-60113390D02*
X127090475Y-59922914D01*
X127090475Y-59922914D02*
X127042856Y-59827676D01*
X127042856Y-59827676D02*
X126947618Y-59732438D01*
X126947618Y-59732438D02*
X126804761Y-59684819D01*
X126804761Y-59684819D02*
X126709523Y-59684819D01*
X126709523Y-59684819D02*
X126566666Y-59732438D01*
X126566666Y-59732438D02*
X126519047Y-59780057D01*
X125566666Y-60684819D02*
X126138094Y-60684819D01*
X125852380Y-60684819D02*
X125852380Y-59684819D01*
X125852380Y-59684819D02*
X125947618Y-59827676D01*
X125947618Y-59827676D02*
X126042856Y-59922914D01*
X126042856Y-59922914D02*
X126138094Y-59970533D01*
X124947618Y-59684819D02*
X124852380Y-59684819D01*
X124852380Y-59684819D02*
X124757142Y-59732438D01*
X124757142Y-59732438D02*
X124709523Y-59780057D01*
X124709523Y-59780057D02*
X124661904Y-59875295D01*
X124661904Y-59875295D02*
X124614285Y-60065771D01*
X124614285Y-60065771D02*
X124614285Y-60303866D01*
X124614285Y-60303866D02*
X124661904Y-60494342D01*
X124661904Y-60494342D02*
X124709523Y-60589580D01*
X124709523Y-60589580D02*
X124757142Y-60637200D01*
X124757142Y-60637200D02*
X124852380Y-60684819D01*
X124852380Y-60684819D02*
X124947618Y-60684819D01*
X124947618Y-60684819D02*
X125042856Y-60637200D01*
X125042856Y-60637200D02*
X125090475Y-60589580D01*
X125090475Y-60589580D02*
X125138094Y-60494342D01*
X125138094Y-60494342D02*
X125185713Y-60303866D01*
X125185713Y-60303866D02*
X125185713Y-60065771D01*
X125185713Y-60065771D02*
X125138094Y-59875295D01*
X125138094Y-59875295D02*
X125090475Y-59780057D01*
X125090475Y-59780057D02*
X125042856Y-59732438D01*
X125042856Y-59732438D02*
X124947618Y-59684819D01*
X123757142Y-59684819D02*
X123947618Y-59684819D01*
X123947618Y-59684819D02*
X124042856Y-59732438D01*
X124042856Y-59732438D02*
X124090475Y-59780057D01*
X124090475Y-59780057D02*
X124185713Y-59922914D01*
X124185713Y-59922914D02*
X124233332Y-60113390D01*
X124233332Y-60113390D02*
X124233332Y-60494342D01*
X124233332Y-60494342D02*
X124185713Y-60589580D01*
X124185713Y-60589580D02*
X124138094Y-60637200D01*
X124138094Y-60637200D02*
X124042856Y-60684819D01*
X124042856Y-60684819D02*
X123852380Y-60684819D01*
X123852380Y-60684819D02*
X123757142Y-60637200D01*
X123757142Y-60637200D02*
X123709523Y-60589580D01*
X123709523Y-60589580D02*
X123661904Y-60494342D01*
X123661904Y-60494342D02*
X123661904Y-60256247D01*
X123661904Y-60256247D02*
X123709523Y-60161009D01*
X123709523Y-60161009D02*
X123757142Y-60113390D01*
X123757142Y-60113390D02*
X123852380Y-60065771D01*
X123852380Y-60065771D02*
X124042856Y-60065771D01*
X124042856Y-60065771D02*
X124138094Y-60113390D01*
X124138094Y-60113390D02*
X124185713Y-60161009D01*
X124185713Y-60161009D02*
X124233332Y-60256247D01*
%TO.C,U102*%
X115464285Y-59254819D02*
X115464285Y-60064342D01*
X115464285Y-60064342D02*
X115416666Y-60159580D01*
X115416666Y-60159580D02*
X115369047Y-60207200D01*
X115369047Y-60207200D02*
X115273809Y-60254819D01*
X115273809Y-60254819D02*
X115083333Y-60254819D01*
X115083333Y-60254819D02*
X114988095Y-60207200D01*
X114988095Y-60207200D02*
X114940476Y-60159580D01*
X114940476Y-60159580D02*
X114892857Y-60064342D01*
X114892857Y-60064342D02*
X114892857Y-59254819D01*
X113892857Y-60254819D02*
X114464285Y-60254819D01*
X114178571Y-60254819D02*
X114178571Y-59254819D01*
X114178571Y-59254819D02*
X114273809Y-59397676D01*
X114273809Y-59397676D02*
X114369047Y-59492914D01*
X114369047Y-59492914D02*
X114464285Y-59540533D01*
X113273809Y-59254819D02*
X113178571Y-59254819D01*
X113178571Y-59254819D02*
X113083333Y-59302438D01*
X113083333Y-59302438D02*
X113035714Y-59350057D01*
X113035714Y-59350057D02*
X112988095Y-59445295D01*
X112988095Y-59445295D02*
X112940476Y-59635771D01*
X112940476Y-59635771D02*
X112940476Y-59873866D01*
X112940476Y-59873866D02*
X112988095Y-60064342D01*
X112988095Y-60064342D02*
X113035714Y-60159580D01*
X113035714Y-60159580D02*
X113083333Y-60207200D01*
X113083333Y-60207200D02*
X113178571Y-60254819D01*
X113178571Y-60254819D02*
X113273809Y-60254819D01*
X113273809Y-60254819D02*
X113369047Y-60207200D01*
X113369047Y-60207200D02*
X113416666Y-60159580D01*
X113416666Y-60159580D02*
X113464285Y-60064342D01*
X113464285Y-60064342D02*
X113511904Y-59873866D01*
X113511904Y-59873866D02*
X113511904Y-59635771D01*
X113511904Y-59635771D02*
X113464285Y-59445295D01*
X113464285Y-59445295D02*
X113416666Y-59350057D01*
X113416666Y-59350057D02*
X113369047Y-59302438D01*
X113369047Y-59302438D02*
X113273809Y-59254819D01*
X112559523Y-59350057D02*
X112511904Y-59302438D01*
X112511904Y-59302438D02*
X112416666Y-59254819D01*
X112416666Y-59254819D02*
X112178571Y-59254819D01*
X112178571Y-59254819D02*
X112083333Y-59302438D01*
X112083333Y-59302438D02*
X112035714Y-59350057D01*
X112035714Y-59350057D02*
X111988095Y-59445295D01*
X111988095Y-59445295D02*
X111988095Y-59540533D01*
X111988095Y-59540533D02*
X112035714Y-59683390D01*
X112035714Y-59683390D02*
X112607142Y-60254819D01*
X112607142Y-60254819D02*
X111988095Y-60254819D01*
D11*
%TO.C,R118*%
X91427064Y-82065000D02*
X90972936Y-82065000D01*
X91427064Y-83535000D02*
X90972936Y-83535000D01*
%TO.C,C111*%
X91246267Y-79990000D02*
X90953733Y-79990000D01*
X91246267Y-81010000D02*
X90953733Y-81010000D01*
%TO.C,R102*%
X121365000Y-107927064D02*
X121365000Y-107472936D01*
X122835000Y-107927064D02*
X122835000Y-107472936D01*
%TO.C,R105*%
X126127064Y-65435000D02*
X125672936Y-65435000D01*
X126127064Y-63965000D02*
X125672936Y-63965000D01*
%TO.C,C109*%
X96546267Y-59810000D02*
X96253733Y-59810000D01*
X96546267Y-58790000D02*
X96253733Y-58790000D01*
%TO.C,U103*%
X114560000Y-109100000D02*
X114560000Y-107150000D01*
X114560000Y-109100000D02*
X114560000Y-111050000D01*
X109440000Y-109100000D02*
X109440000Y-105650000D01*
X109440000Y-109100000D02*
X109440000Y-111050000D01*
%TO.C,Y102*%
X100475000Y-57325000D02*
X100475000Y-58675000D01*
X98725000Y-57325000D02*
X98725000Y-58675000D01*
%TO.C,R114*%
X94572936Y-73765000D02*
X95027064Y-73765000D01*
X94572936Y-75235000D02*
X95027064Y-75235000D01*
%TO.C,C110*%
X96646267Y-57210000D02*
X96353733Y-57210000D01*
X96646267Y-56190000D02*
X96353733Y-56190000D01*
%TO.C,R101*%
X88465000Y-107127064D02*
X88465000Y-106672936D01*
X89935000Y-107127064D02*
X89935000Y-106672936D01*
%TO.C,R113*%
X95027064Y-72035000D02*
X94572936Y-72035000D01*
X95027064Y-70565000D02*
X94572936Y-70565000D01*
%TO.C,Q101*%
X94500000Y-101960000D02*
X95150000Y-101960000D01*
X94500000Y-101960000D02*
X93850000Y-101960000D01*
X94500000Y-98840000D02*
X96175000Y-98840000D01*
X94500000Y-98840000D02*
X93850000Y-98840000D01*
%TO.C,C105*%
X118110000Y-107259420D02*
X118110000Y-107540580D01*
X117090000Y-107259420D02*
X117090000Y-107540580D01*
%TO.C,C107*%
X125338748Y-55965000D02*
X125861252Y-55965000D01*
X125338748Y-57435000D02*
X125861252Y-57435000D01*
%TO.C,R111*%
X99835000Y-100072936D02*
X99835000Y-100527064D01*
X98365000Y-100072936D02*
X98365000Y-100527064D01*
%TO.C,C106*%
X125253733Y-58290000D02*
X125546267Y-58290000D01*
X125253733Y-59310000D02*
X125546267Y-59310000D01*
D12*
%TO.C,U102*%
X123240300Y-56699998D02*
G75*
G03*
X123240300Y-56699998I-381000J0D01*
G01*
D13*
X121081300Y-69726985D02*
X102818700Y-69726985D01*
%TD*%
%LPC*%
D14*
%TO.C,SW105*%
X90900000Y-54500000D03*
X87700000Y-57000000D03*
X90900000Y-59500000D03*
%TD*%
D15*
%TO.C,R118*%
X92200000Y-82800000D03*
X90200000Y-82800000D03*
%TD*%
D16*
%TO.C,C111*%
X91962500Y-80500000D03*
X90237500Y-80500000D03*
%TD*%
D17*
%TO.C,U105*%
X122500000Y-94300000D03*
X122500000Y-72300000D03*
X101500000Y-94300000D03*
X101500000Y-72300000D03*
D18*
X115810000Y-95330000D03*
D19*
X113270000Y-95330000D03*
X110730000Y-95330000D03*
X108190000Y-95330000D03*
%TD*%
D20*
%TO.C,J103*%
X96750000Y-80160000D03*
X95550000Y-80960000D03*
X96750000Y-81760000D03*
X95550000Y-82560000D03*
X96750000Y-83360000D03*
D21*
X95850000Y-77960000D03*
X91050000Y-77960000D03*
X95850000Y-85560000D03*
X91050000Y-85560000D03*
%TD*%
D22*
%TO.C,J101*%
X104050000Y-115625000D03*
X119750000Y-115625000D03*
X118900000Y-102125000D03*
X105200000Y-102125000D03*
%TD*%
D23*
%TO.C,SW102*%
X130950000Y-104950000D03*
X130950000Y-111450000D03*
X126450000Y-104950000D03*
X126450000Y-111450000D03*
X125900000Y-108200000D03*
X131500000Y-108200000D03*
%TD*%
D24*
%TO.C,J102*%
X93625000Y-91750000D03*
D25*
X93625000Y-94250000D03*
%TD*%
D23*
%TO.C,SW101*%
X97050000Y-104950000D03*
X97050000Y-111450000D03*
X92550000Y-104950000D03*
X92550000Y-111450000D03*
X92000000Y-108200000D03*
X97600000Y-108200000D03*
%TD*%
D26*
%TO.C,R102*%
X122100000Y-108700000D03*
X122100000Y-106700000D03*
%TD*%
D15*
%TO.C,R105*%
X126900000Y-64700000D03*
X124900000Y-64700000D03*
%TD*%
D16*
%TO.C,C109*%
X97262500Y-59300000D03*
X95537500Y-59300000D03*
%TD*%
D27*
%TO.C,U103*%
X110095000Y-106625000D03*
X111365000Y-106625000D03*
X112635000Y-106625000D03*
X113905000Y-106625000D03*
X113905000Y-111575000D03*
X112635000Y-111575000D03*
X111365000Y-111575000D03*
X110095000Y-111575000D03*
%TD*%
D28*
%TO.C,Y102*%
X99600000Y-59250000D03*
X99600000Y-56750000D03*
%TD*%
D29*
%TO.C,R114*%
X93800000Y-74500000D03*
X95800000Y-74500000D03*
%TD*%
D30*
%TO.C,J104*%
X89350000Y-66600000D03*
D31*
X89350000Y-64600000D03*
%TD*%
D16*
%TO.C,C110*%
X97362500Y-56700000D03*
X95637500Y-56700000D03*
%TD*%
D26*
%TO.C,R101*%
X89200000Y-107900000D03*
X89200000Y-105900000D03*
%TD*%
D15*
%TO.C,R113*%
X95800000Y-71300000D03*
X93800000Y-71300000D03*
%TD*%
D32*
%TO.C,Q101*%
X95437500Y-99450000D03*
X95437500Y-101350000D03*
X93562500Y-100400000D03*
%TD*%
D33*
%TO.C,C105*%
X117600000Y-106625000D03*
X117600000Y-108175000D03*
%TD*%
D34*
%TO.C,C107*%
X124562500Y-56700000D03*
X126637500Y-56700000D03*
%TD*%
D35*
%TO.C,R111*%
X99100000Y-99300000D03*
X99100000Y-101300000D03*
%TD*%
D36*
%TO.C,C106*%
X124537500Y-58800000D03*
X126262500Y-58800000D03*
%TD*%
D37*
%TO.C,U102*%
X109894198Y-63999971D03*
X110994198Y-63999971D03*
X112094198Y-63999971D03*
X109894299Y-62899973D03*
X110994300Y-62899973D03*
X112094300Y-62899973D03*
X109894198Y-61799975D03*
X110994198Y-61799975D03*
X112094198Y-61799975D03*
D38*
X103200000Y-56699998D03*
X103200000Y-58199998D03*
X103200000Y-59700000D03*
X103200000Y-61199999D03*
X103200000Y-62699999D03*
X103200000Y-64199998D03*
X103200000Y-65699998D03*
X103200000Y-67200000D03*
X103200000Y-68700000D03*
X120700000Y-68700000D03*
X120700000Y-67200000D03*
X120700000Y-65699998D03*
X120700000Y-64199998D03*
X120700000Y-62699999D03*
X120700000Y-61199999D03*
X120700000Y-59700000D03*
X120700000Y-58199998D03*
X120700000Y-56699998D03*
%TD*%
%LPD*%
M02*
