%TF.GenerationSoftware,KiCad,Pcbnew,7.0.5*%
%TF.CreationDate,2023-08-24T21:12:11+09:00*%
%TF.ProjectId,templogger,74656d70-6c6f-4676-9765-722e6b696361,rev?*%
%TF.SameCoordinates,Original*%
%TF.FileFunction,Paste,Top*%
%TF.FilePolarity,Positive*%
%FSLAX46Y46*%
G04 Gerber Fmt 4.6, Leading zero omitted, Abs format (unit mm)*
G04 Created by KiCad (PCBNEW 7.0.5) date 2023-08-24 21:12:11*
%MOMM*%
%LPD*%
G01*
G04 APERTURE LIST*
G04 Aperture macros list*
%AMRoundRect*
0 Rectangle with rounded corners*
0 $1 Rounding radius*
0 $2 $3 $4 $5 $6 $7 $8 $9 X,Y pos of 4 corners*
0 Add a 4 corners polygon primitive as box body*
4,1,4,$2,$3,$4,$5,$6,$7,$8,$9,$2,$3,0*
0 Add four circle primitives for the rounded corners*
1,1,$1+$1,$2,$3*
1,1,$1+$1,$4,$5*
1,1,$1+$1,$6,$7*
1,1,$1+$1,$8,$9*
0 Add four rect primitives between the rounded corners*
20,1,$1+$1,$2,$3,$4,$5,0*
20,1,$1+$1,$4,$5,$6,$7,0*
20,1,$1+$1,$6,$7,$8,$9,0*
20,1,$1+$1,$8,$9,$2,$3,0*%
G04 Aperture macros list end*
%ADD10RoundRect,0.250000X0.475000X-0.337500X0.475000X0.337500X-0.475000X0.337500X-0.475000X-0.337500X0*%
%ADD11RoundRect,0.250000X-0.450000X0.350000X-0.450000X-0.350000X0.450000X-0.350000X0.450000X0.350000X0*%
%ADD12RoundRect,0.237500X-0.237500X0.287500X-0.237500X-0.287500X0.237500X-0.287500X0.237500X0.287500X0*%
%ADD13RoundRect,0.250000X0.350000X0.450000X-0.350000X0.450000X-0.350000X-0.450000X0.350000X-0.450000X0*%
%ADD14RoundRect,0.250000X-0.350000X-0.450000X0.350000X-0.450000X0.350000X0.450000X-0.350000X0.450000X0*%
%ADD15RoundRect,0.250000X-0.250000X0.650000X-0.250000X-0.650000X0.250000X-0.650000X0.250000X0.650000X0*%
%ADD16RoundRect,0.237500X-0.237500X0.300000X-0.237500X-0.300000X0.237500X-0.300000X0.237500X0.300000X0*%
%ADD17RoundRect,0.150000X-0.150000X0.512500X-0.150000X-0.512500X0.150000X-0.512500X0.150000X0.512500X0*%
%ADD18RoundRect,0.237500X-0.287500X-0.237500X0.287500X-0.237500X0.287500X0.237500X-0.287500X0.237500X0*%
%ADD19RoundRect,0.100000X0.712500X0.100000X-0.712500X0.100000X-0.712500X-0.100000X0.712500X-0.100000X0*%
%ADD20RoundRect,0.250000X-0.250000X-0.475000X0.250000X-0.475000X0.250000X0.475000X-0.250000X0.475000X0*%
%ADD21RoundRect,0.250000X0.250000X0.250000X-0.250000X0.250000X-0.250000X-0.250000X0.250000X-0.250000X0*%
%ADD22RoundRect,0.250000X-0.475000X0.337500X-0.475000X-0.337500X0.475000X-0.337500X0.475000X0.337500X0*%
%ADD23RoundRect,0.237500X0.287500X0.237500X-0.287500X0.237500X-0.287500X-0.237500X0.287500X-0.237500X0*%
%ADD24RoundRect,0.250000X-0.475000X0.250000X-0.475000X-0.250000X0.475000X-0.250000X0.475000X0.250000X0*%
%ADD25RoundRect,0.150000X-0.512500X-0.150000X0.512500X-0.150000X0.512500X0.150000X-0.512500X0.150000X0*%
G04 APERTURE END LIST*
D10*
%TO.C,C101*%
X94300000Y-66637500D03*
X94300000Y-64562500D03*
%TD*%
D11*
%TO.C,R104*%
X126500000Y-63700000D03*
X126500000Y-65700000D03*
%TD*%
D12*
%TO.C,D103*%
X131000000Y-64125000D03*
X131000000Y-65875000D03*
%TD*%
D13*
%TO.C,R107*%
X97500000Y-99000000D03*
X95500000Y-99000000D03*
%TD*%
D14*
%TO.C,R110*%
X129000000Y-68400000D03*
X131000000Y-68400000D03*
%TD*%
D15*
%TO.C,SW103*%
X128475000Y-77350000D03*
X128475000Y-85550000D03*
X132975000Y-77350000D03*
X132975000Y-85550000D03*
%TD*%
D16*
%TO.C,C103*%
X113200000Y-60737500D03*
X113200000Y-62462500D03*
%TD*%
D14*
%TO.C,R109*%
X126300000Y-101300000D03*
X128300000Y-101300000D03*
%TD*%
D11*
%TO.C,R115*%
X96600000Y-72500000D03*
X96600000Y-74500000D03*
%TD*%
D17*
%TO.C,U101*%
X99250000Y-66862500D03*
X98300000Y-66862500D03*
X97350000Y-66862500D03*
X97350000Y-69137500D03*
X99250000Y-69137500D03*
%TD*%
D14*
%TO.C,R117*%
X113400000Y-57050000D03*
X115400000Y-57050000D03*
%TD*%
D18*
%TO.C,D102*%
X91125000Y-71300000D03*
X92875000Y-71300000D03*
%TD*%
%TO.C,D101*%
X90925000Y-99000000D03*
X92675000Y-99000000D03*
%TD*%
D19*
%TO.C,Q102*%
X101512500Y-61375000D03*
X101512500Y-60725000D03*
X101512500Y-60075000D03*
X101512500Y-59425000D03*
X97287500Y-59425000D03*
X97287500Y-60075000D03*
X97287500Y-60725000D03*
X97287500Y-61375000D03*
%TD*%
D11*
%TO.C,R103*%
X128500000Y-72100000D03*
X128500000Y-74100000D03*
%TD*%
D20*
%TO.C,C108*%
X130750000Y-101300000D03*
X132650000Y-101300000D03*
%TD*%
D18*
%TO.C,FB101*%
X104625000Y-60800000D03*
X106375000Y-60800000D03*
%TD*%
D21*
%TO.C,D105*%
X102550000Y-63500000D03*
X100050000Y-63500000D03*
%TD*%
D22*
%TO.C,C104*%
X116400000Y-60562500D03*
X116400000Y-62637500D03*
%TD*%
D13*
%TO.C,R106*%
X121900000Y-64700000D03*
X119900000Y-64700000D03*
%TD*%
D23*
%TO.C,D104*%
X92875000Y-74500000D03*
X91125000Y-74500000D03*
%TD*%
D24*
%TO.C,C102*%
X104600000Y-62750000D03*
X104600000Y-64650000D03*
%TD*%
D14*
%TO.C,R112*%
X102100000Y-69200000D03*
X104100000Y-69200000D03*
%TD*%
D15*
%TO.C,SW104*%
X128475000Y-89350000D03*
X128475000Y-97550000D03*
X132975000Y-89350000D03*
X132975000Y-97550000D03*
%TD*%
D25*
%TO.C,U104*%
X119725000Y-60600000D03*
X119725000Y-61550000D03*
X119725000Y-62500000D03*
X122000000Y-62500000D03*
X122000000Y-60600000D03*
%TD*%
D14*
%TO.C,R108*%
X107750000Y-57000000D03*
X109750000Y-57000000D03*
%TD*%
M02*
